<?xml version="1.0" standalone="no"?>
<!DOCTYPE svg PUBLIC "-//W3C//DTD SVG 20010904//EN"
 "http://www.w3.org/TR/2001/REC-SVG-20010904/DTD/svg10.dtd">
<svg version="1.0" xmlns="http://www.w3.org/2000/svg"
 width="184.000000pt" height="130.000000pt" viewBox="0 0 184.000000 130.000000"
 preserveAspectRatio="xMidYMid meet">

<g transform="translate(0.000000,130.000000) scale(0.100000,-0.100000)"
fill="#000000" stroke="none">
<path d="M162 1280 c-7 -11 -18 -20 -26 -20 -7 0 -16 -9 -19 -20 -3 -11 -12
-20 -20 -20 -8 0 -17 -9 -20 -20 -3 -11 -12 -20 -20 -20 -8 0 -17 -9 -20 -20
-3 -11 -12 -20 -21 -20 -14 0 -16 -15 -16 -100 0 -85 2 -100 16 -100 9 0 18
-9 21 -20 3 -11 12 -20 20 -20 8 0 17 -9 20 -20 5 -18 14 -20 103 -20 91 0 98
2 103 21 4 13 12 20 24 17 16 -3 18 -16 21 -100 2 -86 5 -96 22 -101 19 -5 20
-14 20 -165 0 -151 1 -160 20 -165 19 -5 20 -14 20 -166 l0 -161 80 0 c73 0
80 -2 80 -20 0 -18 7 -20 85 -20 71 0 85 3 85 16 0 9 9 18 20 21 16 4 20 14
20 44 l0 39 60 0 60 0 0 -40 0 -40 60 0 c53 0 60 -2 60 -20 0 -18 7 -20 79
-20 70 0 79 2 84 20 3 11 12 20 21 20 13 0 16 12 16 60 l0 60 65 0 c63 0 65 1
65 25 0 25 1 25 79 25 70 0 79 2 84 20 4 15 14 20 40 20 26 0 36 5 40 20 4 15
14 20 41 20 26 0 36 4 36 16 0 9 9 18 19 21 11 3 21 13 24 24 3 11 14 19 26
19 14 0 21 6 21 20 0 13 7 20 20 20 13 0 20 7 20 20 0 13 7 20 20 20 18 0 20
7 20 55 l0 55 -40 0 c-30 0 -40 -4 -40 -16 0 -9 -9 -18 -20 -21 -11 -3 -20
-11 -20 -18 0 -8 -9 -17 -20 -20 -11 -3 -20 -12 -20 -20 0 -8 -9 -17 -20 -20
-11 -3 -20 -12 -20 -20 0 -12 -21 -25 -41 -25 -5 0 -9 9 -9 20 0 13 -7 20 -20
20 -13 0 -20 7 -20 20 0 13 -7 20 -20 20 -13 0 -20 -7 -20 -20 0 -13 -7 -20
-20 -20 -13 0 -20 7 -20 20 0 17 -7 20 -40 20 -33 0 -40 3 -40 20 0 15 -7 20
-25 20 -18 0 -25 5 -25 20 0 17 -7 20 -40 20 l-40 0 0 40 0 40 -40 0 -40 0 0
45 0 45 -40 0 c-33 0 -40 3 -40 20 0 12 -7 20 -16 20 -9 0 -18 9 -21 20 -3 11
-14 20 -24 20 -12 0 -19 -7 -19 -20 0 -12 -7 -20 -16 -20 -9 0 -18 9 -21 20
-4 16 -14 20 -43 20 -29 0 -39 -4 -43 -20 -3 -11 -10 -20 -17 -20 -7 0 -14 9
-17 20 -4 16 -14 20 -43 20 -29 0 -39 -4 -43 -20 -3 -11 -13 -20 -22 -20 -9 0
-19 9 -22 20 -4 15 -14 20 -38 20 -24 0 -34 -5 -38 -20 -4 -16 -14 -20 -46
-20 -41 0 -41 0 -41 39 0 30 -4 40 -20 44 -18 5 -20 14 -20 86 0 74 -2 81 -20
81 -18 0 -20 7 -20 59 0 50 -3 59 -20 64 -15 4 -20 14 -20 41 0 26 -4 36 -16
36 -9 0 -18 9 -21 20 -4 14 -14 20 -33 20 -39 0 -60 9 -60 26 0 11 -17 14 -73
14 -61 0 -74 -3 -85 -20z m160 -32 c2 -19 11 -24 43 -28 38 -5 40 -7 40 -40 0
-29 4 -36 23 -38 20 -3 22 -9 22 -63 0 -52 2 -59 20 -59 18 0 20 -7 20 -80 0
-73 2 -80 20 -80 19 0 20 -7 20 -105 0 -98 1 -105 20 -105 13 0 20 -7 20 -20
0 -13 7 -20 20 -20 13 0 20 7 20 20 0 13 7 20 20 20 13 0 20 7 20 20 0 18 7
20 65 20 58 0 65 -2 65 -20 0 -26 30 -26 37 0 8 29 78 29 86 0 3 -11 10 -20
17 -20 7 0 14 9 17 20 4 16 14 20 44 20 32 0 39 -3 39 -20 0 -17 7 -20 40 -20
33 0 40 -3 40 -20 0 -13 7 -20 20 -20 13 0 20 -7 20 -20 0 -13 7 -20 20 -20
13 0 20 -7 20 -20 0 -14 7 -20 21 -20 12 0 23 -8 26 -20 3 -11 12 -20 19 -20
8 0 19 -12 24 -26 9 -22 15 -26 41 -22 25 4 32 1 40 -19 7 -18 16 -23 44 -23
28 0 35 -4 35 -20 0 -19 7 -20 105 -20 98 0 105 1 105 20 0 13 7 20 20 20 13
0 20 7 20 19 0 11 9 23 20 26 11 3 20 13 20 22 0 8 9 17 20 20 11 3 20 12 20
19 0 8 9 14 20 14 16 0 20 -7 20 -35 0 -28 -4 -35 -20 -35 -13 0 -20 -7 -20
-20 0 -13 -7 -20 -20 -20 -13 0 -20 -7 -20 -20 0 -13 -7 -20 -20 -20 -13 0
-20 -7 -20 -20 0 -17 -7 -20 -41 -20 -32 0 -42 -4 -46 -20 -4 -15 -14 -20 -40
-20 -26 0 -36 -5 -40 -20 -6 -22 -9 -22 -95 -20 -54 1 -59 -1 -68 -24 -9 -24
-15 -26 -65 -26 l-55 0 0 60 c0 53 -2 60 -20 60 -13 0 -20 7 -20 18 0 25 -7
31 -31 25 -26 -7 -25 -43 1 -43 19 0 20 -7 20 -140 l0 -140 -54 0 c-53 0 -54
1 -59 33 -4 17 -6 70 -5 117 0 79 -1 85 -21 88 -19 3 -21 -1 -21 -57 l0 -61
-120 0 -120 0 0 80 c0 79 0 80 -25 80 l-25 0 0 -140 0 -140 -54 0 c-66 0 -66
-2 -66 181 0 108 -3 138 -14 142 -23 9 -26 -2 -26 -81 0 -65 -2 -74 -20 -79
-26 -7 -26 -39 0 -46 15 -4 20 -14 20 -41 l0 -36 -60 0 -60 0 0 80 c0 73 2 80
20 80 13 0 20 -7 20 -20 0 -14 7 -20 21 -20 16 0 20 5 17 22 -2 13 -9 22 -16
20 -7 -1 -17 9 -22 23 -5 14 -16 25 -25 25 -11 0 -15 10 -15 36 0 27 -5 37
-20 41 -19 5 -20 14 -20 164 0 152 -1 159 -20 159 -19 0 -20 7 -20 100 0 96
-1 101 -23 109 -19 7 -24 16 -23 43 1 26 6 34 24 36 18 3 22 10 22 43 0 35 -3
39 -25 39 -22 0 -25 -4 -25 -40 0 -33 -3 -40 -20 -40 -17 0 -20 -7 -20 -40 l0
-40 -100 0 c-93 0 -100 1 -100 20 0 13 -7 20 -20 20 -19 0 -20 7 -20 100 0 93
1 100 20 100 13 0 20 7 20 20 0 13 7 20 20 20 13 0 20 7 20 20 0 13 7 20 20
20 15 0 20 7 20 25 0 25 1 25 79 25 75 0 80 -1 83 -22z m686 -1138 c6 0 12 -7
12 -15 0 -11 -11 -15 -40 -15 -27 0 -40 4 -40 13 0 21 12 29 35 23 11 -3 26
-6 33 -6z"/>
<path d="M80 1080 c0 -13 7 -20 20 -20 13 0 20 7 20 20 0 13 -7 20 -20 20 -13
0 -20 -7 -20 -20z"/>
<path d="M200 1040 c0 -13 7 -20 20 -20 13 0 20 7 20 20 0 13 -7 20 -20 20
-13 0 -20 -7 -20 -20z"/>
<path d="M697 636 c-7 -16 1 -26 20 -26 7 0 13 9 13 20 0 23 -25 27 -33 6z"/>
<path d="M820 589 c0 -25 33 -22 38 4 2 12 -3 17 -17 17 -15 0 -21 -6 -21 -21z"/>
<path d="M940 590 c0 -13 7 -20 20 -20 13 0 20 7 20 20 0 13 -7 20 -20 20 -13
0 -20 -7 -20 -20z"/>
<path d="M1070 550 c0 -11 7 -20 15 -20 8 0 15 9 15 20 0 11 -7 20 -15 20 -8
0 -15 -9 -15 -20z"/>
</g>
</svg>
