<?xml version="1.0" standalone="no"?>
<!DOCTYPE svg PUBLIC "-//W3C//DTD SVG 20010904//EN"
 "http://www.w3.org/TR/2001/REC-SVG-20010904/DTD/svg10.dtd">
<svg version="1.0" xmlns="http://www.w3.org/2000/svg"
 width="151.000000pt" height="126.000000pt" viewBox="0 0 151.000000 126.000000"
 preserveAspectRatio="xMidYMid meet">

<g transform="translate(0.000000,126.000000) scale(0.100000,-0.100000)"
fill="#000000" stroke="none">
<path d="M207 1240 c-4 -16 -14 -20 -46 -20 -31 0 -41 -4 -41 -16 0 -9 -9 -18
-19 -21 -11 -3 -21 -13 -24 -24 -3 -10 -12 -19 -21 -19 -9 0 -16 -7 -16 -16 0
-9 -9 -18 -20 -21 -18 -5 -20 -14 -20 -84 0 -66 3 -79 16 -79 9 0 18 -9 21
-20 3 -11 12 -20 20 -20 8 0 17 -9 20 -20 3 -11 12 -20 20 -20 8 0 17 -9 20
-20 5 -18 15 -20 127 -22 117 -3 121 -4 124 -25 3 -21 -1 -23 -37 -23 -31 0
-41 -4 -41 -16 0 -9 -9 -18 -20 -21 -17 -4 -20 -14 -20 -54 0 -37 4 -49 15
-49 11 0 15 12 15 50 l0 50 40 0 40 0 0 -80 c0 -61 -3 -80 -14 -80 -7 0 -16 9
-19 20 -6 23 -37 27 -37 5 0 -8 6 -15 14 -15 21 0 26 -23 26 -120 0 -79 2 -88
20 -93 15 -4 20 -14 20 -40 0 -26 5 -36 20 -40 11 -3 20 -14 20 -25 0 -11 9
-22 20 -25 11 -3 20 -10 20 -17 0 -7 -9 -14 -20 -17 -11 -3 -20 -14 -20 -25 0
-11 -9 -22 -20 -25 -28 -8 -28 -68 0 -76 11 -3 20 -12 20 -21 0 -13 13 -16 80
-16 67 0 80 3 80 16 0 9 9 18 19 21 11 3 21 14 24 25 10 35 42 18 45 -24 2
-26 9 -37 23 -41 10 -3 19 -12 19 -21 0 -13 13 -16 75 -16 62 0 75 3 75 16 0
9 9 18 20 21 11 3 20 12 20 20 0 8 9 17 20 20 17 5 20 14 20 69 l0 64 64 0
c55 0 64 3 69 20 4 14 14 20 34 20 17 0 33 8 41 20 8 14 23 20 46 20 25 0 35
5 39 20 3 11 12 20 20 20 8 0 17 9 20 20 3 11 12 20 20 20 8 0 17 9 20 20 3
11 12 20 20 20 8 0 17 9 20 20 3 11 12 20 20 20 8 0 17 9 20 20 3 12 14 20 26
20 14 0 21 6 21 20 0 13 7 20 20 20 17 0 20 7 20 40 0 33 -3 40 -20 40 -17 0
-20 -7 -20 -40 0 -33 -3 -40 -20 -40 -13 0 -20 -7 -20 -20 0 -13 -7 -20 -20
-20 -13 0 -20 -7 -20 -20 0 -13 -7 -20 -20 -20 -13 0 -20 -7 -20 -20 0 -13 -7
-20 -20 -20 -13 0 -20 -7 -20 -19 0 -13 -8 -21 -22 -23 -15 -2 -24 -11 -26
-25 -3 -19 -10 -23 -43 -23 -32 0 -39 -3 -39 -20 0 -17 -7 -20 -40 -20 -34 0
-40 -3 -40 -20 0 -19 -5 -21 -57 -18 l-58 3 -3 58 c-3 49 -6 57 -22 57 -19 0
-20 -8 -20 -140 0 -135 -1 -140 -21 -140 -12 0 -23 -8 -26 -20 -5 -18 -14 -20
-79 -20 l-74 0 -6 40 c-5 30 -11 40 -25 40 -17 0 -19 9 -19 100 0 93 1 100 20
100 13 0 20 7 20 20 0 13 -7 20 -20 20 -13 0 -20 -7 -20 -20 0 -13 -7 -20 -20
-20 -18 0 -20 -7 -20 -60 l0 -60 -60 0 c-53 0 -60 2 -60 20 0 13 -7 20 -20 20
-13 0 -20 7 -20 20 0 13 -7 20 -20 20 -17 0 -20 7 -20 41 0 32 -4 42 -20 46
-18 5 -20 14 -20 104 0 92 1 99 20 99 19 0 20 7 20 121 0 112 -1 121 -20 126
-11 3 -20 14 -20 24 0 12 7 19 20 19 13 0 20 7 20 20 0 13 7 20 20 20 18 0 20
7 20 80 0 73 -2 80 -20 80 -18 0 -20 -7 -20 -80 0 -75 -1 -80 -21 -80 -12 0
-23 -8 -26 -20 -5 -19 -14 -20 -124 -20 -112 0 -119 1 -119 20 0 13 -7 20 -20
20 -13 0 -20 7 -20 20 0 13 -7 20 -20 20 -18 0 -20 7 -20 79 0 70 2 79 20 84
11 3 20 12 20 21 0 9 8 16 20 16 13 0 20 7 20 20 0 17 7 20 40 20 33 0 40 3
40 20 0 19 7 20 144 20 131 0 144 -2 142 -17 0 -12 7 -19 22 -21 14 -2 22 -10
22 -23 0 -12 7 -19 20 -19 13 0 20 -7 20 -20 0 -13 7 -20 20 -20 13 0 20 -7
20 -20 0 -13 7 -20 20 -20 17 0 20 -7 20 -40 0 -33 3 -40 20 -40 13 0 20 -7
20 -20 0 -13 7 -20 19 -20 16 0 20 -8 23 -42 2 -34 7 -43 21 -42 11 1 17 -5
17 -18 0 -11 8 -22 20 -25 15 -4 20 -14 20 -40 0 -26 5 -36 20 -40 10 -3 22
-13 25 -23 3 -10 15 -20 25 -23 15 -4 20 -14 20 -41 0 -29 4 -36 20 -36 13 0
20 -7 20 -19 0 -10 9 -21 20 -24 11 -3 20 -12 20 -21 0 -9 7 -16 15 -16 9 0
20 -11 25 -25 9 -24 12 -25 106 -25 86 0 96 2 101 19 3 13 17 22 44 26 29 5
39 11 39 26 0 12 7 19 20 19 13 0 20 7 20 20 0 13 7 20 20 20 13 0 20 7 20 20
0 13 7 20 20 20 13 0 20 7 20 20 0 13 7 20 20 20 16 0 20 -7 20 -34 0 -29 3
-33 20 -29 17 4 20 14 20 54 l0 49 -40 0 c-33 0 -40 -3 -40 -20 0 -13 -7 -20
-20 -20 -13 0 -20 -7 -20 -20 0 -13 -7 -20 -20 -20 -13 0 -20 -7 -20 -20 0
-13 -7 -20 -20 -20 -13 0 -20 -7 -20 -19 0 -22 -19 -31 -61 -31 -17 0 -28 -4
-25 -9 14 -22 -25 -32 -111 -29 l-88 3 -3 48 c-3 42 0 49 17 54 29 8 30 63 1
63 -13 0 -20 7 -20 20 0 17 -7 20 -45 20 l-45 0 0 59 c0 50 -3 59 -20 64 -11
3 -20 12 -20 21 0 12 -10 16 -40 16 l-40 0 0 65 c0 53 -3 65 -16 65 -9 0 -18
9 -21 20 -4 16 -14 20 -44 20 l-39 0 0 60 0 60 -76 0 c-66 0 -77 2 -81 19 -3
11 -13 21 -24 24 -10 3 -19 12 -19 21 0 14 -18 16 -139 16 -130 0 -139 -1
-144 -20z m441 -118 c2 -7 -6 -12 -17 -12 -21 0 -27 11 -14 24 9 9 26 2 31
-12z m122 -142 c0 -29 -4 -40 -15 -40 -8 0 -15 9 -15 20 0 13 -7 20 -20 20
-13 0 -20 7 -20 20 0 16 7 20 35 20 34 0 35 -1 35 -40z m120 -185 c0 -42 -3
-55 -15 -55 -11 0 -15 11 -15 40 0 33 -3 40 -20 40 -11 0 -20 7 -20 15 0 10
11 15 35 15 l35 0 0 -55z m125 -145 c0 -33 -2 -35 -35 -35 -29 0 -36 4 -38 23
-6 40 5 54 40 50 30 -3 33 -6 33 -38z m-525 -470 c0 -18 7 -20 60 -20 53 0 60
-2 60 -20 0 -13 -7 -20 -20 -20 -13 0 -20 -7 -20 -20 0 -18 -7 -20 -80 -20
l-80 0 0 40 c0 33 3 40 20 40 13 0 20 7 20 20 0 13 7 20 20 20 13 0 20 -7 20
-20z"/>
<path d="M160 1080 c0 -13 7 -20 20 -20 13 0 20 7 20 20 0 13 -7 20 -20 20
-13 0 -20 -7 -20 -20z"/>
<path d="M280 1040 c0 -13 7 -20 20 -20 13 0 20 7 20 20 0 13 -7 20 -20 20
-13 0 -20 -7 -20 -20z"/>
<path d="M690 610 l0 -80 -40 0 -40 0 0 60 c0 53 -2 60 -20 60 -18 0 -20 -7
-20 -60 0 -53 2 -60 20 -60 13 0 20 -7 20 -20 0 -17 7 -20 39 -20 30 0 40 4
44 20 3 11 12 20 21 20 13 0 16 13 16 80 0 73 -2 80 -20 80 -18 0 -20 -7 -20
-80z"/>
</g>
</svg>
