<?xml version="1.0" standalone="no"?>
<!DOCTYPE svg PUBLIC "-//W3C//DTD SVG 20010904//EN"
 "http://www.w3.org/TR/2001/REC-SVG-20010904/DTD/svg10.dtd">
<svg version="1.0" xmlns="http://www.w3.org/2000/svg"
 width="213.000000pt" height="110.000000pt" viewBox="0 0 213.000000 110.000000"
 preserveAspectRatio="xMidYMid meet">

<g transform="translate(0.000000,110.000000) scale(0.100000,-0.100000)"
fill="#000000" stroke="none">
<path d="M900 1080 c0 -13 -7 -20 -20 -20 -17 0 -20 -7 -20 -41 0 -32 -4 -42
-20 -46 -18 -5 -20 -14 -20 -78 0 -64 2 -73 20 -78 12 -3 20 -14 20 -26 0 -14
-6 -21 -20 -21 -13 0 -20 7 -20 19 0 10 -9 21 -20 24 -11 3 -20 12 -20 20 0 8
-11 18 -25 21 -14 4 -25 13 -25 21 0 11 -13 15 -54 15 -45 0 -54 -3 -59 -20
-3 -12 -14 -20 -26 -20 -19 0 -21 -6 -21 -54 0 -45 3 -54 20 -59 12 -3 20 -14
20 -26 0 -14 -6 -21 -20 -21 -13 0 -20 7 -20 20 0 17 -7 20 -39 20 -30 0 -40
-4 -44 -20 -3 -11 -12 -20 -21 -20 -13 0 -16 -12 -16 -59 0 -50 3 -59 20 -64
11 -3 20 -12 20 -21 0 -9 -8 -16 -20 -16 -11 0 -20 6 -20 14 0 8 -8 13 -17 12
-13 -1 -19 7 -21 27 -2 19 -9 27 -23 27 -12 0 -19 7 -19 20 0 17 -7 20 -45 20
-38 0 -45 3 -45 20 0 19 -7 20 -100 20 -93 0 -100 -1 -100 -20 0 -13 -7 -20
-20 -20 -13 0 -20 -7 -20 -20 0 -11 6 -20 14 -20 8 0 18 -9 21 -20 8 -27 45
-27 45 0 0 13 -7 20 -20 20 -13 0 -20 7 -20 20 0 19 7 20 100 20 93 0 100 -1
100 -20 0 -17 7 -20 40 -20 33 0 40 -3 40 -20 0 -13 7 -20 20 -20 13 0 20 -7
20 -20 0 -13 7 -20 19 -20 13 0 21 -8 23 -22 2 -19 10 -24 41 -26 32 -3 38 0
47 22 5 15 15 25 22 24 7 -2 14 7 16 19 3 18 11 22 45 25 28 2 41 7 39 16 -1
7 9 17 23 22 14 5 25 16 25 25 0 11 11 15 40 15 33 0 40 3 40 20 0 13 7 20 20
20 13 0 20 7 20 20 0 17 7 20 40 20 33 0 40 3 40 20 0 19 7 20 159 20 150 0
159 -1 164 -20 4 -17 14 -20 66 -20 54 0 61 -2 61 -20 0 -17 7 -20 40 -20 33
0 40 -3 40 -20 0 -17 7 -20 40 -20 33 0 40 -3 40 -20 0 -17 7 -20 40 -20 33 0
40 -3 40 -20 0 -13 7 -20 20 -20 11 0 20 -7 20 -15 0 -9 11 -20 25 -25 15 -6
25 -17 25 -30 0 -13 7 -20 20 -20 13 0 20 -7 20 -20 0 -17 7 -20 39 -20 30 0
40 -4 44 -20 5 -19 14 -20 146 -20 116 0 141 -3 141 -14 0 -10 -14 -16 -42
-18 -36 -2 -44 -7 -46 -25 -3 -21 -8 -23 -71 -23 -37 0 -109 3 -159 6 -81 6
-92 9 -92 25 0 16 -8 19 -59 19 -50 0 -59 3 -64 20 -3 11 -13 20 -22 20 -9 0
-19 -9 -22 -20 -3 -11 -14 -20 -24 -20 -12 0 -19 -7 -19 -20 0 -26 -26 -26
-33 0 -3 12 -14 20 -26 20 -14 0 -21 6 -21 20 0 13 -7 20 -20 20 -15 0 -20 -7
-20 -25 0 -18 5 -25 20 -25 19 0 20 -7 20 -160 l0 -160 -60 0 -60 0 0 140 0
140 -25 0 c-24 0 -25 -3 -25 -60 l0 -60 -40 0 c-33 0 -40 -3 -40 -20 0 -19 -7
-20 -100 -20 l-100 0 0 60 c0 53 -2 60 -20 60 -13 0 -20 7 -20 20 0 13 -7 20
-20 20 -13 0 -20 -7 -20 -20 0 -11 7 -20 15 -20 13 0 15 -20 15 -120 l0 -120
-55 0 -55 0 -2 163 c-3 154 -4 162 -23 162 -16 0 -21 -8 -23 -38 l-3 -37 -53
0 c-45 0 -54 3 -59 20 -4 16 -14 20 -46 20 -34 0 -41 3 -41 20 0 17 -7 20 -40
20 -33 0 -40 3 -40 20 0 17 -7 20 -40 20 -33 0 -40 3 -40 20 0 17 -7 20 -39
20 -30 0 -40 4 -44 20 -3 12 -14 20 -26 20 -14 0 -21 -6 -21 -20 0 -18 -7 -20
-80 -20 -73 0 -80 2 -80 20 0 13 -7 20 -20 20 -18 0 -20 7 -20 60 0 53 -2 60
-20 60 -18 0 -20 -7 -20 -59 0 -50 3 -59 20 -64 11 -3 20 -12 20 -20 0 -8 9
-17 20 -20 11 -3 20 -12 20 -21 0 -13 13 -16 80 -16 73 0 80 2 80 20 0 14 7
20 21 20 12 0 23 -8 26 -20 4 -15 14 -20 40 -20 26 0 36 -5 40 -20 4 -15 14
-20 40 -20 26 0 36 -5 40 -20 4 -15 14 -20 40 -20 26 0 36 -5 40 -19 4 -14 15
-21 42 -23 l36 -3 3 -102 c3 -96 4 -103 23 -103 12 0 23 -8 26 -20 5 -17 14
-20 60 -20 46 0 56 -3 60 -20 5 -17 14 -20 64 -20 47 0 59 3 59 16 0 9 9 18
19 21 14 4 21 15 23 42 l3 36 78 3 c70 3 77 1 77 -16 0 -11 9 -22 20 -25 11
-3 20 -12 20 -21 0 -13 12 -16 61 -16 52 0 62 -3 66 -20 8 -29 93 -29 111 0 7
11 21 20 32 20 19 0 20 7 20 125 0 116 1 125 19 125 10 0 21 9 24 20 3 11 12
20 20 20 8 0 17 9 20 20 7 26 27 26 34 0 4 -16 14 -20 53 -20 58 0 80 -7 80
-26 0 -11 30 -14 159 -14 150 0 159 1 164 20 4 15 14 20 40 20 26 0 36 5 40
20 3 12 14 20 26 20 12 0 21 6 21 15 0 9 -9 15 -21 15 -12 0 -23 8 -26 20 -3
11 -14 20 -24 20 -15 0 -19 7 -19 40 0 29 -4 40 -15 40 -9 0 -18 7 -21 15 -8
20 -80 20 -88 0 -3 -8 -12 -15 -20 -15 -7 0 -16 -9 -19 -20 -3 -11 -12 -20
-21 -20 -10 0 -16 -8 -16 -21 0 -15 -5 -20 -22 -17 -32 4 -33 52 -2 56 12 2
24 12 27 23 3 10 12 19 21 19 9 0 16 7 16 15 0 8 9 15 20 15 18 0 20 7 20 60
0 53 -2 60 -20 60 -13 0 -20 7 -20 20 0 18 -7 20 -60 20 -48 0 -60 -3 -60 -16
0 -9 -9 -18 -20 -21 -11 -3 -20 -14 -20 -24 0 -12 -7 -19 -20 -19 -13 0 -20
-7 -20 -20 0 -15 -7 -20 -25 -20 -32 0 -36 39 -5 47 15 4 20 14 20 40 0 26 5
36 20 40 17 4 20 14 20 58 0 44 -3 54 -20 58 -11 3 -20 12 -20 21 0 25 -66 22
-80 -4 -7 -14 -21 -20 -44 -20 -25 0 -35 -5 -39 -20 -3 -11 -12 -20 -21 -20
-9 0 -16 -8 -16 -20 0 -13 -7 -20 -20 -20 -14 0 -20 -7 -20 -21 0 -18 -5 -20
-42 -17 -32 2 -44 8 -46 21 -2 12 4 20 16 24 11 3 22 13 25 24 3 11 14 19 26
19 20 0 21 5 21 120 0 113 -1 120 -20 120 -13 0 -20 7 -20 20 0 17 -7 20 -40
20 -33 0 -40 -3 -40 -20 0 -17 -7 -20 -40 -20 -29 0 -40 -4 -40 -15 0 -9 -11
-20 -24 -24 -13 -5 -26 -19 -29 -30 -3 -12 -12 -21 -21 -21 -13 0 -16 -13 -16
-80 0 -73 -2 -80 -20 -80 -18 0 -20 7 -20 80 0 64 -3 80 -15 80 -8 0 -17 11
-21 25 -4 16 -13 25 -25 25 -12 0 -19 7 -19 20 0 13 -7 20 -20 20 -13 0 -20 7
-20 20 0 17 -7 20 -40 20 -33 0 -40 -3 -40 -20z m-170 -920 l0 -80 -35 0 -35
0 0 80 0 80 35 0 35 0 0 -80z m491 -5 c3 -2 3 -20 1 -40 -4 -32 -7 -35 -38
-35 -33 0 -34 1 -34 40 0 39 1 40 33 40 19 0 36 -2 38 -5z"/>
<path d="M160 552 c0 -24 8 -32 26 -25 22 8 17 43 -6 43 -13 0 -20 -7 -20 -18z"/>
</g>
</svg>
