<svg xmlns="http://www.w3.org/2000/svg" xmlns:v="https://svgstorm.com"
viewBox = "0 0 184 130"
width="184"
height="130">
<g fill="None" fill-opacity="0.0" stroke="#000000" stroke-opacity="0.00" stroke-width="0.3"><path d="
M 0.00 16.00 
C 0.84 15.68 2.19 16.40 3.00 16.00
C 3.05 15.65 3.65 15.05 4.00 15.00
C 4.84 11.96 3.90 12.85 7.00 12.00
C 7.05 11.65 7.65 11.05 8.00 11.00
C 8.84 7.96 7.90 8.85 11.00 8.00
C 11.05 7.65 11.65 7.11 12.00 7.00
C 12.90 3.54 15.95 4.13 16.00 0.00
L 0.00 0.00
L 0.00 16.00 Z"/>
</g>
<g fill="None" fill-opacity="0.0" stroke="#030903" stroke-opacity="0.95" stroke-width="0.3"><path d="
M 12.00 7.00 
C 12.69 6.79 15.58 7.51 16.00 7.00
C 16.46 6.29 15.62 4.76 16.00 4.00
C 17.76 0.44 28.83 4.60 32.00 3.00
C 32.00 2.00 32.00 1.00 32.00 0.00
L 16.00 0.00
C 15.95 4.13 12.90 3.54 12.00 7.00 Z"/>
</g>
<g fill="None" fill-opacity="0.0" stroke="#779781" stroke-opacity="1.00" stroke-width="0.3"><path d="
M 16.00 4.00 
C 21.15 3.15 26.92 5.13 32.00 4.00
C 32.23 3.95 32.65 3.08 33.00 3.00
C 32.60 2.19 33.32 0.84 33.00 0.00
L 32.00 0.00
C 32.00 1.00 32.00 2.00 32.00 3.00
C 28.83 4.60 17.76 0.44 16.00 4.00 Z"/>
</g>
<g fill="None" fill-opacity="0.0" stroke="#000000" stroke-opacity="0.00" stroke-width="0.3"><path d="
M 33.00 3.00 
C 33.13 3.27 33.75 3.91 34.00 4.00
C 35.71 4.63 38.37 3.22 40.00 4.00
C 41.45 4.70 40.69 7.18 42.00 8.00
C 42.36 8.23 43.65 7.77 44.00 8.00
C 45.91 9.24 44.73 12.95 45.00 15.00
C 45.03 15.21 45.74 15.89 46.00 16.00
C 46.42 16.18 47.84 15.77 48.00 16.00
C 49.83 17.76 49.38 24.34 49.00 27.00
C 49.05 27.23 49.79 27.97 50.00 28.00
C 50.98 28.15 52.02 27.88 53.00 28.00
C 53.54 33.61 51.84 39.82 54.00 45.00
C 58.82 44.43 56.41 49.97 57.00 53.00
C 59.67 53.00 62.33 53.00 65.00 53.00
C 65.03 52.65 65.65 52.07 66.00 52.00
C 66.15 51.02 65.88 49.98 66.00 49.00
C 68.33 49.00 70.67 49.00 73.00 49.00
C 73.50 49.27 75.15 52.28 75.00 53.00
C 75.47 52.88 76.58 53.18 77.00 53.00
C 77.26 52.89 77.66 52.02 78.00 52.00
C 78.15 51.02 77.88 49.98 78.00 49.00
C 80.33 49.00 82.67 49.00 85.00 49.00
C 86.39 49.76 85.70 52.18 87.00 53.00
C 87.18 52.76 88.64 53.23 89.00 53.00
C 90.50 52.06 89.36 49.89 91.00 49.00
C 92.80 48.02 96.07 49.74 98.00 49.00
C 98.00 50.00 98.00 51.00 98.00 52.00
C 98.03 52.21 98.74 52.89 99.00 53.00
C 99.42 53.18 100.64 53.23 101.00 53.00
C 102.48 52.07 101.17 49.54 103.00 49.00
C 105.98 48.11 105.49 50.14 106.00 52.00
C 106.35 52.06 106.95 52.65 107.00 53.00
C 110.79 53.94 111.66 59.33 118.00 57.00
C 118.00 60.00 118.00 63.00 118.00 66.00
C 125.50 63.77 126.18 68.71 127.00 74.00
C 128.26 72.58 132.84 72.22 134.00 74.00
C 134.71 75.08 134.16 76.79 135.00 78.00
C 134.51 77.57 138.56 76.35 139.00 77.00
C 139.00 78.33 139.00 79.67 139.00 81.00
C 140.62 80.48 146.24 80.46 147.00 82.00
C 147.09 82.19 147.13 84.89 147.00 85.00
C 149.57 84.64 150.98 82.05 152.00 82.00
C 156.05 81.79 153.21 83.98 155.00 85.00
C 156.52 85.87 157.77 84.22 159.00 86.00
C 159.64 86.93 157.98 89.80 160.00 90.00
C 159.40 89.40 161.81 88.90 162.00 89.00
C 163.38 87.92 162.57 86.06 164.00 85.00
C 164.16 84.77 165.60 85.20 166.00 85.00
C 167.20 84.41 166.46 82.46 168.00 82.00
C 168.46 81.86 169.54 81.87 170.00 82.00
C 172.20 78.64 171.12 77.52 175.00 80.00
C 175.45 78.01 173.64 73.77 177.00 74.00
C 178.95 73.14 181.95 74.65 184.00 74.00
L 184.00 0.00
L 33.00 0.00
C 33.32 0.84 32.60 2.19 33.00 3.00 Z"/>
</g>
<g fill="None" fill-opacity="0.0" stroke="#576D5D" stroke-opacity="1.00" stroke-width="0.3"><path d="
M 32.00 4.00 
C 30.94 9.00 36.93 8.01 40.00 8.00
C 39.97 11.13 38.97 16.98 44.00 16.00
C 44.05 15.77 44.93 15.35 45.00 15.00
C 44.73 12.95 45.91 9.24 44.00 8.00
C 44.96 9.96 44.57 16.42 41.00 15.00
C 41.52 12.81 39.86 9.38 42.00 8.00
C 40.69 7.18 41.45 4.70 40.00 4.00
C 41.10 8.43 35.51 6.64 33.00 7.00
C 33.11 6.00 32.53 4.27 34.00 4.00
C 33.75 3.91 33.13 3.27 33.00 3.00
C 32.65 3.08 32.23 3.95 32.00 4.00 Z"/>
</g>
<g fill="None" fill-opacity="0.0" stroke="#9BE1BC" stroke-opacity="1.00" stroke-width="0.3"><path d="
M 16.00 7.00 
C 15.12 8.38 13.52 7.90 12.00 8.00
C 11.39 12.02 8.14 15.37 4.00 16.00
C 4.00 22.67 4.00 29.33 4.00 36.00
C 8.01 34.57 7.45 38.17 9.00 40.00
C 15.33 40.00 21.67 40.00 28.00 40.00
C 28.22 36.67 26.44 30.51 32.00 32.00
C 32.56 29.48 30.81 25.70 33.00 24.00
C 33.31 23.85 35.69 23.85 36.00 24.00
C 38.34 25.15 36.29 29.95 37.00 32.00
C 31.50 30.37 33.22 36.75 33.00 40.00
C 41.25 40.74 35.10 54.69 37.00 61.00
C 37.13 60.86 39.80 60.90 40.00 61.00
C 42.62 62.29 40.61 68.89 41.00 72.00 C 41.39 75.11 41.00 81.59 41.00 85.00
C 42.33 85.00 43.67 85.00 45.00 85.00
C 45.22 88.33 43.44 94.49 49.00 93.00
C 47.83 99.82 52.09 103.28 56.00 106.00
C 52.09 98.13 60.95 87.93 62.00 98.00 C 63.04 108.07 61.22 112.45 62.00 122.00
C 73.97 124.77 67.29 108.90 69.00 102.00
C 70.33 102.00 71.67 102.00 73.00 102.00
C 73.00 101.15 72.57 98.71 73.00 98.00
C 74.08 96.52 76.92 96.53 78.00 98.00
C 78.35 101.93 78.00 106.05 78.00 110.00
C 86.00 110.00 94.00 110.00 102.00 110.00
C 102.41 108.02 100.92 103.64 102.00 102.00
C 104.80 97.74 108.03 104.47 107.00 108.00 C 105.97 111.53 107.35 118.15 107.00 122.00
C 109.33 122.00 111.67 122.00 114.00 122.00
C 114.00 114.00 114.00 106.00 114.00 98.00
C 114.83 91.92 118.16 91.88 119.00 98.00
C 119.39 98.44 121.45 97.73 122.00 98.00
C 123.87 98.92 123.00 104.12 123.00 106.00
C 126.67 106.00 130.33 106.00 134.00 106.00
C 135.37 98.58 145.43 103.35 151.00 102.00
C 150.51 95.04 161.03 101.08 160.00 94.00
C 154.57 95.13 148.49 93.16 143.00 94.00
C 143.00 92.67 143.00 91.33 143.00 90.00
C 140.35 90.24 137.65 89.82 135.00 90.00
C 134.65 85.48 130.80 85.69 127.00 86.00
C 125.69 80.37 118.64 79.82 118.00 74.00
C 116.87 72.95 116.48 73.47 115.00 73.00
C 114.20 68.56 109.43 70.02 110.00 65.00
C 106.67 64.78 100.51 66.56 102.00 61.00
C 99.33 61.00 96.67 61.00 94.00 61.00
C 94.00 62.33 94.00 63.67 94.00 65.00
C 90.96 65.90 89.27 63.98 90.00 61.00
C 87.67 61.00 84.22 60.34 82.00 61.00
C 82.00 62.33 82.00 63.67 82.00 65.00
C 78.90 65.65 75.93 64.77 77.00 61.00
C 73.77 60.04 69.38 61.31 66.00 61.00
C 65.52 64.27 63.40 63.42 62.00 65.00
C 60.75 66.92 62.13 72.09 57.00 70.00
C 56.29 67.03 54.99 65.75 52.00 65.00
C 52.00 58.33 52.00 51.67 52.00 45.00
C 44.37 44.49 49.49 33.19 48.00 28.00
C 47.87 28.14 45.20 28.10 45.00 28.00
C 43.15 27.09 43.55 18.03 44.00 16.00
C 38.97 16.98 39.97 11.13 40.00 8.00
C 36.93 8.01 30.94 9.00 32.00 4.00
C 26.92 5.13 21.15 3.15 16.00 4.00
C 15.62 4.76 16.46 6.29 16.00 7.00
M 12.00 20.00 
C 12.37 21.22 11.72 22.75 12.00 24.00
C 10.67 24.00 9.33 24.00 8.00 24.00
C 5.11 21.19 9.20 17.12 12.00 20.00
M 21.00 24.00 
C 21.02 23.91 22.67 23.76 23.00 24.00
C 29.32 28.62 14.68 28.62 21.00 24.00
M 73.00 65.00 
C 74.72 66.72 71.53 70.85 69.33 68.67 C 67.13 66.49 71.33 63.33 73.00 65.00
M 86.00 69.00 
C 87.72 70.72 84.53 74.85 82.33 72.67 C 80.13 70.49 84.33 67.33 86.00 69.00
M 98.00 69.00 
C 99.72 70.72 96.53 74.85 94.33 72.67 C 92.13 70.49 96.33 67.33 98.00 69.00
M 110.00 74.00 
C 111.46 75.46 108.28 78.28 107.00 77.00
C 102.99 76.05 109.05 69.98 110.00 74.00 Z"/>
</g>
<g fill="None" fill-opacity="0.0" stroke="#040A03" stroke-opacity="1.00" stroke-width="0.3"><path d="
M 40.00 4.00 
C 38.37 3.22 35.71 4.63 34.00 4.00
C 32.53 4.27 33.11 6.00 33.00 7.00
C 35.51 6.64 41.10 8.43 40.00 4.00 Z"/>
</g>
<g fill="None" fill-opacity="0.0" stroke="#456251" stroke-opacity="0.92" stroke-width="0.3"><path d="
M 11.00 8.00 
C 10.56 10.86 10.92 10.55 8.00 11.00
C 7.65 11.05 7.05 11.65 7.00 12.00
C 6.56 14.86 6.92 14.55 4.00 15.00
C 3.65 15.05 3.05 15.65 3.00 16.00
C 2.06 22.53 3.71 29.43 3.00 36.00
C 2.00 36.00 1.00 36.00 0.00 36.00
L 0.00 37.00
C 1.60 36.39 2.64 37.70 4.00 38.00
C 4.65 38.14 8.35 35.91 7.00 40.00
C 6.00 40.00 5.00 40.00 4.00 40.00
C 4.48 41.08 6.87 41.45 8.00 42.00
C 12.23 42.38 23.18 42.07 28.00 41.00
C 27.93 40.95 28.65 40.11 29.00 40.00
C 29.30 37.71 28.78 35.30 29.00 33.00
C 33.43 31.90 31.64 37.49 32.00 40.00
C 31.95 40.50 32.00 41.00 32.00 41.00
C 32.03 41.35 32.95 41.77 33.00 42.00
C 33.74 41.67 34.67 40.36 36.00 41.00
C 36.00 47.33 36.00 53.67 36.00 60.00
C 35.00 60.00 34.00 60.00 33.00 60.00
C 33.41 60.74 36.01 61.89 37.00 62.00
C 37.00 61.50 37.00 61.00 37.00 61.00
C 35.10 54.69 41.25 40.74 33.00 40.00
C 33.22 36.75 31.50 30.37 37.00 32.00
C 36.29 29.95 38.34 25.15 36.00 24.00
C 36.00 26.33 36.00 28.67 36.00 31.00
C 31.57 32.10 33.36 26.51 33.00 24.00
C 30.81 25.70 32.56 29.48 32.00 32.00
C 26.44 30.51 28.22 36.67 28.00 40.00
C 21.67 40.00 15.33 40.00 9.00 40.00
C 7.45 38.17 8.01 34.57 4.00 36.00
C 4.00 29.33 4.00 22.67 4.00 16.00
C 8.14 15.37 11.39 12.02 12.00 8.00
C 13.52 7.90 15.12 8.38 16.00 7.00
C 15.58 7.51 12.69 6.79 12.00 7.00
C 11.65 7.11 11.05 7.65 11.00 8.00 Z"/>
</g>
<g fill="None" fill-opacity="0.0" stroke="#040D05" stroke-opacity="0.97" stroke-width="0.3"><path d="
M 8.00 11.00 
C 10.92 10.55 10.56 10.86 11.00 8.00
C 7.90 8.85 8.84 7.96 8.00 11.00 Z"/>
</g>
<g fill="None" fill-opacity="0.0" stroke="#010801" stroke-opacity="1.00" stroke-width="0.3"><path d="
M 44.00 8.00 
C 43.65 7.77 42.36 8.23 42.00 8.00
C 39.86 9.38 41.52 12.81 41.00 15.00
C 44.57 16.42 44.96 9.96 44.00 8.00 Z"/>
</g>
<g fill="None" fill-opacity="0.0" stroke="#050F04" stroke-opacity="0.97" stroke-width="0.3"><path d="
M 4.00 15.00 
C 6.92 14.55 6.56 14.86 7.00 12.00
C 3.90 12.85 4.84 11.96 4.00 15.00 Z"/>
</g>
<g fill="None" fill-opacity="0.0" stroke="#6E917D" stroke-opacity="1.00" stroke-width="0.3"><path d="
M 44.00 16.00 
C 43.55 18.03 43.15 27.09 45.00 28.00
C 44.68 23.88 44.98 19.39 46.00 16.00
C 45.74 15.89 45.03 15.21 45.00 15.00
C 44.93 15.35 44.05 15.77 44.00 16.00 Z"/>
</g>
<g fill="None" fill-opacity="0.0" stroke="#050A05" stroke-opacity="1.00" stroke-width="0.3"><path d="
M 0.00 36.00 
C 1.00 36.00 2.00 36.00 3.00 36.00
C 3.71 29.43 2.06 22.53 3.00 16.00
C 2.19 16.40 0.84 15.68 0.00 16.00
L 0.00 36.00 Z"/>
</g>
<g fill="None" fill-opacity="0.0" stroke="#132218" stroke-opacity="1.00" stroke-width="0.3"><path d="
M 45.00 28.00 
C 45.20 28.10 47.87 28.14 48.00 28.00
C 48.25 27.73 48.00 27.00 48.00 27.00
C 44.89 26.17 44.76 17.87 48.00 17.00
C 48.00 16.50 48.00 16.00 48.00 16.00
C 47.84 15.77 46.42 16.18 46.00 16.00
C 44.98 19.39 44.68 23.88 45.00 28.00 Z"/>
</g>
<g fill="None" fill-opacity="0.0" stroke="#444B40" stroke-opacity="1.00" stroke-width="0.3"><path d="
M 48.00 17.00 
C 48.00 20.33 48.00 23.67 48.00 27.00
C 48.00 27.00 48.25 27.73 48.00 28.00
C 48.05 27.77 48.95 27.35 49.00 27.00
C 49.38 24.34 49.83 17.76 48.00 16.00
C 48.00 16.00 48.00 16.50 48.00 17.00 Z"/>
</g>
<g fill="None" fill-opacity="0.0" stroke="#020502" stroke-opacity="1.00" stroke-width="0.3"><path d="
M 48.00 27.00 
C 48.00 23.67 48.00 20.33 48.00 17.00
C 44.76 17.87 44.89 26.17 48.00 27.00 Z"/>
</g>
<g fill="None" fill-opacity="0.0" stroke="#6D9C82" stroke-opacity="1.00" stroke-width="0.3"><path d="
M 8.00 24.00 
C 7.86 23.96 8.00 23.00 8.00 23.00
C 7.57 20.75 8.69 19.56 11.00 20.00
C 11.48 20.09 12.00 20.00 12.00 20.00
C 9.20 17.12 5.11 21.19 8.00 24.00 Z"/>
</g>
<g fill="None" fill-opacity="0.0" stroke="#051208" stroke-opacity="1.00" stroke-width="0.3"><path d="
M 8.00 23.00 
C 10.47 23.15 11.15 22.54 11.00 20.00
C 8.69 19.56 7.57 20.75 8.00 23.00 Z"/>
</g>
<g fill="None" fill-opacity="0.0" stroke="#214534" stroke-opacity="1.00" stroke-width="0.3"><path d="
M 8.00 23.00 
C 8.00 23.00 7.86 23.96 8.00 24.00
C 9.33 24.00 10.67 24.00 12.00 24.00
C 11.72 22.75 12.37 21.22 12.00 20.00
C 12.00 20.00 11.48 20.09 11.00 20.00
C 11.15 22.54 10.47 23.15 8.00 23.00 Z"/>
</g>
<g fill="None" fill-opacity="0.0" stroke="#1F382B" stroke-opacity="1.00" stroke-width="0.3"><path d="
M 23.00 24.00 
C 23.18 24.96 22.85 26.03 23.00 27.00
C 20.97 27.64 20.94 25.31 21.00 24.00
C 14.68 28.62 29.32 28.62 23.00 24.00 Z"/>
</g>
<g fill="None" fill-opacity="0.0" stroke="#040B06" stroke-opacity="1.00" stroke-width="0.3"><path d="
M 23.00 24.00 
C 22.67 23.76 21.02 23.91 21.00 24.00
C 20.94 25.31 20.97 27.64 23.00 27.00
C 22.85 26.03 23.18 24.96 23.00 24.00 Z"/>
</g>
<g fill="None" fill-opacity="0.0" stroke="#040904" stroke-opacity="1.00" stroke-width="0.3"><path d="
M 36.00 24.00 
C 35.69 23.85 33.31 23.85 33.00 24.00
C 33.36 26.51 31.57 32.10 36.00 31.00
C 36.00 28.67 36.00 26.33 36.00 24.00 Z"/>
</g>
<g fill="None" fill-opacity="0.0" stroke="#88AF9A" stroke-opacity="1.00" stroke-width="0.3"><path d="
M 48.00 28.00 
C 49.49 33.19 44.37 44.49 52.00 45.00
C 52.00 51.67 52.00 58.33 52.00 65.00
C 54.99 65.75 56.29 67.03 57.00 70.00
C 62.13 72.09 60.75 66.92 62.00 65.00
C 61.03 66.09 60.78 67.31 61.00 69.00
C 56.00 70.19 57.56 64.07 53.00 64.00
C 52.33 57.76 53.89 51.20 53.00 45.00
C 52.74 44.88 52.35 44.09 52.00 44.00
C 51.53 43.88 50.35 44.23 50.00 44.00
C 47.01 42.05 49.27 30.44 50.00 28.00
C 49.79 27.97 49.05 27.23 49.00 27.00
C 48.95 27.35 48.05 27.77 48.00 28.00 Z"/>
</g>
<g fill="None" fill-opacity="0.0" stroke="#202A20" stroke-opacity="1.00" stroke-width="0.3"><path d="
M 50.00 44.00 
C 48.31 40.20 50.43 32.23 51.00 29.00
C 53.24 33.09 51.40 39.16 52.00 44.00
C 52.35 44.09 52.74 44.88 53.00 45.00
C 53.41 45.19 54.00 45.00 54.00 45.00
C 51.84 39.82 53.54 33.61 53.00 28.00
C 52.02 27.88 50.98 28.15 50.00 28.00
C 49.27 30.44 47.01 42.05 50.00 44.00 Z"/>
</g>
<g fill="None" fill-opacity="0.0" stroke="#010301" stroke-opacity="1.00" stroke-width="0.3"><path d="
M 50.00 44.00 
C 50.35 44.23 51.53 43.88 52.00 44.00
C 51.40 39.16 53.24 33.09 51.00 29.00
C 50.43 32.23 48.31 40.20 50.00 44.00 Z"/>
</g>
<g fill="None" fill-opacity="0.0" stroke="#010805" stroke-opacity="1.00" stroke-width="0.3"><path d="
M 29.00 40.00 
C 29.26 39.92 31.84 39.83 32.00 40.00
C 31.64 37.49 33.43 31.90 29.00 33.00
C 28.78 35.30 29.30 37.71 29.00 40.00 Z"/>
</g>
<g fill="None" fill-opacity="0.0" stroke="#000000" stroke-opacity="0.00" stroke-width="0.3"><path d="
M 0.00 130.00 
L 57.00 130.00
C 57.00 128.67 57.00 127.33 57.00 126.00
C 51.67 126.00 46.33 126.00 41.00 126.00
C 41.00 115.33 41.00 104.67 41.00 94.00
C 39.50 93.71 40.06 93.64 39.00 93.00
C 34.16 90.07 37.00 68.47 37.00 62.00
C 36.01 61.89 33.41 60.74 33.00 60.00
C 30.63 55.70 34.08 46.88 33.00 42.00
C 32.95 41.77 32.03 41.35 32.00 41.00
C 28.35 41.16 30.46 43.07 28.00 44.00
C 22.50 46.09 11.45 43.69 8.00 42.00
C 6.87 41.45 4.48 41.08 4.00 40.00
C 3.81 39.58 4.18 38.42 4.00 38.00
C 2.64 37.70 1.60 36.39 0.00 37.00
L 0.00 130.00 Z"/>
</g>
<g fill="None" fill-opacity="0.0" stroke="#08140A" stroke-opacity="1.00" stroke-width="0.3"><path d="
M 4.00 38.00 
C 4.18 38.42 3.81 39.58 4.00 40.00
C 5.00 40.00 6.00 40.00 7.00 40.00
C 8.35 35.91 4.65 38.14 4.00 38.00 Z"/>
</g>
<g fill="None" fill-opacity="0.0" stroke="#899F89" stroke-opacity="0.74" stroke-width="0.3"><path d="
M 28.00 41.00 
C 28.49 41.40 27.61 43.48 28.00 44.00
C 30.46 43.07 28.35 41.16 32.00 41.00
C 32.00 41.00 31.95 40.50 32.00 40.00
C 31.84 39.83 29.26 39.92 29.00 40.00
C 28.65 40.11 27.93 40.95 28.00 41.00 Z"/>
</g>
<g fill="None" fill-opacity="0.0" stroke="#000600" stroke-opacity="1.00" stroke-width="0.3"><path d="
M 8.00 42.00 
C 11.45 43.69 22.50 46.09 28.00 44.00
C 27.61 43.48 28.49 41.40 28.00 41.00
C 23.18 42.07 12.23 42.38 8.00 42.00 Z"/>
</g>
<g fill="None" fill-opacity="0.0" stroke="#030702" stroke-opacity="1.00" stroke-width="0.3"><path d="
M 33.00 42.00 
C 34.08 46.88 30.63 55.70 33.00 60.00
C 34.00 60.00 35.00 60.00 36.00 60.00
C 36.00 53.67 36.00 47.33 36.00 41.00
C 34.67 40.36 33.74 41.67 33.00 42.00 Z"/>
</g>
<g fill="None" fill-opacity="0.0" stroke="#020603" stroke-opacity="1.00" stroke-width="0.3"><path d="
M 53.00 64.00 
C 54.33 63.93 55.67 64.09 57.00 64.00
C 57.80 62.17 55.94 58.66 57.00 57.00
C 58.43 54.75 62.74 56.64 65.00 56.00
C 65.00 55.00 65.00 54.00 65.00 53.00
C 62.33 53.00 59.67 53.00 57.00 53.00
C 56.41 49.97 58.82 44.43 54.00 45.00
C 54.00 45.00 53.41 45.19 53.00 45.00
C 53.89 51.20 52.33 57.76 53.00 64.00 Z"/>
</g>
<g fill="None" fill-opacity="0.0" stroke="#000201" stroke-opacity="0.97" stroke-width="0.3"><path d="
M 66.00 52.00 
C 68.26 51.58 70.72 52.31 73.00 52.00
C 73.40 51.20 72.68 49.84 73.00 49.00
C 70.67 49.00 68.33 49.00 66.00 49.00
C 65.88 49.98 66.15 51.02 66.00 52.00 Z"/>
</g>
<g fill="None" fill-opacity="0.0" stroke="#39675A" stroke-opacity="1.00" stroke-width="0.3"><path d="
M 73.00 52.00 
C 71.94 54.15 67.90 52.42 66.00 53.00
C 64.97 57.57 72.78 56.75 74.00 54.00
C 74.07 53.65 74.65 53.09 75.00 53.00
C 75.15 52.28 73.50 49.27 73.00 49.00
C 72.68 49.84 73.40 51.20 73.00 52.00 Z"/>
</g>
<g fill="None" fill-opacity="0.0" stroke="#020502" stroke-opacity="0.97" stroke-width="0.3"><path d="
M 78.00 52.00 
C 80.32 51.85 82.67 52.11 85.00 52.00
C 85.00 51.00 85.00 50.00 85.00 49.00
C 82.67 49.00 80.33 49.00 78.00 49.00
C 77.88 49.98 78.15 51.02 78.00 52.00 Z"/>
</g>
<g fill="None" fill-opacity="0.0" stroke="#243F35" stroke-opacity="0.99" stroke-width="0.3"><path d="
M 78.00 52.00 
C 77.66 52.02 77.26 52.89 77.00 53.00
C 75.85 58.43 82.87 56.81 86.00 57.00
C 86.28 55.72 85.24 53.50 87.00 53.00
C 85.70 52.18 86.39 49.76 85.00 49.00
C 85.00 50.00 85.00 51.00 85.00 52.00
C 82.67 52.11 80.32 51.85 78.00 52.00
M 85.00 53.00 
C 86.10 57.43 80.51 55.64 78.00 56.00
C 76.90 51.57 82.49 53.36 85.00 53.00 Z"/>
</g>
<g fill="None" fill-opacity="0.0" stroke="#1C352E" stroke-opacity="0.99" stroke-width="0.3"><path d="
M 89.00 53.00 
C 89.88 55.92 95.11 60.31 98.00 56.00
C 95.33 56.00 92.67 56.00 90.00 56.00
C 88.78 50.51 96.31 54.86 98.00 52.00
C 95.67 52.00 93.33 52.00 91.00 52.00
C 91.00 51.00 91.00 50.00 91.00 49.00
C 89.36 49.89 90.50 52.06 89.00 53.00 Z"/>
</g>
<g fill="None" fill-opacity="0.0" stroke="#000502" stroke-opacity="0.97" stroke-width="0.3"><path d="
M 98.00 52.00 
C 98.00 51.00 98.00 50.00 98.00 49.00
C 96.07 49.74 92.80 48.02 91.00 49.00
C 91.00 50.00 91.00 51.00 91.00 52.00
C 93.33 52.00 95.67 52.00 98.00 52.00 Z"/>
</g>
<g fill="None" fill-opacity="0.0" stroke="#2D5242" stroke-opacity="1.00" stroke-width="0.3"><path d="
M 101.00 53.00 
C 100.89 54.27 103.15 57.95 102.00 60.00
C 90.00 60.00 78.00 60.00 66.00 60.00
C 66.06 60.49 66.00 61.00 66.00 61.00
C 69.38 61.31 73.77 60.04 77.00 61.00
C 78.34 61.40 77.82 62.94 78.00 64.00
C 81.07 65.18 80.36 61.98 82.00 61.00
C 84.22 60.34 87.67 61.00 90.00 61.00
C 91.33 61.00 92.67 61.00 94.00 61.00
C 96.67 61.00 99.33 61.00 102.00 61.00
C 100.51 66.56 106.67 64.78 110.00 65.00
C 109.43 70.02 114.20 68.56 115.00 73.00
C 114.86 72.95 115.00 72.00 115.00 72.00
C 115.35 69.41 113.79 67.40 111.00 68.00
C 110.29 65.79 111.90 64.54 114.00 65.00
C 114.00 63.67 114.00 62.33 114.00 61.00
C 112.44 60.59 111.31 61.46 110.00 62.00
C 108.73 62.63 106.24 65.65 103.00 64.00
C 102.29 61.79 103.90 60.54 106.00 61.00
C 106.00 58.33 106.00 55.67 106.00 53.00
C 105.00 52.89 103.27 53.47 103.00 52.00
C 102.58 51.23 103.34 49.81 103.00 49.00
C 101.17 49.54 102.48 52.07 101.00 53.00 Z"/>
</g>
<g fill="None" fill-opacity="0.0" stroke="#070D06" stroke-opacity="0.97" stroke-width="0.3"><path d="
M 103.00 52.00 
C 103.33 52.33 105.51 51.92 106.00 52.00
C 105.49 50.14 105.98 48.11 103.00 49.00
C 103.34 49.81 102.58 51.23 103.00 52.00 Z"/>
</g>
<g fill="None" fill-opacity="0.0" stroke="#19362B" stroke-opacity="1.00" stroke-width="0.3"><path d="
M 65.00 53.00 
C 65.00 54.00 65.00 55.00 65.00 56.00
C 62.74 56.64 58.43 54.75 57.00 57.00
C 59.67 57.00 62.33 57.00 65.00 57.00
C 63.82 59.94 61.00 64.13 57.00 64.00
C 55.67 64.09 54.33 63.93 53.00 64.00
C 57.56 64.07 56.00 70.19 61.00 69.00
C 60.78 67.31 61.03 66.09 62.00 65.00
C 63.40 63.42 65.52 64.27 66.00 61.00
C 66.00 61.00 66.06 60.49 66.00 60.00
C 65.88 59.01 66.09 57.99 66.00 57.00
C 68.74 56.71 74.11 58.35 74.00 54.00
C 72.78 56.75 64.97 57.57 66.00 53.00
C 67.90 52.42 71.94 54.15 73.00 52.00
C 70.72 52.31 68.26 51.58 66.00 52.00
C 65.65 52.07 65.03 52.65 65.00 53.00
M 64.00 61.00 
C 64.81 61.81 63.69 64.77 62.29 63.63 C 60.90 62.50 63.10 60.10 64.00 61.00
M 60.00 65.00 
C 60.81 65.81 59.69 68.77 58.29 67.63 C 56.90 66.50 59.10 64.10 60.00 65.00 Z"/>
</g>
<g fill="None" fill-opacity="0.0" stroke="#2F6256" stroke-opacity="1.00" stroke-width="0.3"><path d="
M 98.00 56.00 
C 97.73 56.40 98.96 52.24 99.00 53.00
C 98.74 52.89 98.03 52.21 98.00 52.00
C 96.31 54.86 88.78 50.51 90.00 56.00
C 92.67 56.00 95.33 56.00 98.00 56.00 Z"/>
</g>
<g fill="None" fill-opacity="0.0" stroke="#153026" stroke-opacity="1.00" stroke-width="0.3"><path d="
M 106.00 61.00 
C 107.02 58.86 107.40 55.79 107.00 53.00
C 106.95 52.65 106.35 52.06 106.00 52.00
C 105.51 51.92 103.33 52.33 103.00 52.00
C 103.27 53.47 105.00 52.89 106.00 53.00
C 106.00 55.67 106.00 58.33 106.00 61.00 Z"/>
</g>
<g fill="None" fill-opacity="0.0" stroke="#000401" stroke-opacity="1.00" stroke-width="0.3"><path d="
M 74.00 54.00 
C 74.11 58.35 68.74 56.71 66.00 57.00
C 66.09 57.99 65.88 59.01 66.00 60.00
C 78.00 60.00 90.00 60.00 102.00 60.00
C 103.15 57.95 100.89 54.27 101.00 53.00
C 100.64 53.23 99.42 53.18 99.00 53.00
C 98.96 52.24 97.73 56.40 98.00 56.00
C 95.11 60.31 89.88 55.92 89.00 53.00
C 88.64 53.23 87.18 52.76 87.00 53.00
C 85.24 53.50 86.28 55.72 86.00 57.00
C 82.87 56.81 75.85 58.43 77.00 53.00
C 76.58 53.18 75.47 52.88 75.00 53.00
C 74.65 53.09 74.07 53.65 74.00 54.00 Z"/>
</g>
<g fill="None" fill-opacity="0.0" stroke="#2A6556" stroke-opacity="1.00" stroke-width="0.3"><path d="
M 85.00 53.00 
C 82.49 53.36 76.90 51.57 78.00 56.00
C 80.51 55.64 86.10 57.43 85.00 53.00 Z"/>
</g>
<g fill="None" fill-opacity="0.0" stroke="#010402" stroke-opacity="1.00" stroke-width="0.3"><path d="
M 106.00 61.00 
C 103.90 60.54 102.29 61.79 103.00 64.00
C 106.24 65.65 108.73 62.63 110.00 62.00
C 113.35 60.34 116.06 59.95 114.00 65.00
C 111.90 64.54 110.29 65.79 111.00 68.00
C 113.79 67.40 115.35 69.41 115.00 72.00
C 118.05 71.77 117.92 70.70 119.00 68.00
C 122.88 66.99 123.46 71.21 123.00 74.00
C 121.67 74.00 120.33 74.00 119.00 74.00
C 119.11 75.87 121.84 78.91 123.00 80.00
C 125.21 80.71 126.46 79.10 126.00 77.00
C 128.83 76.48 132.95 77.12 132.00 81.00
C 130.15 82.18 127.11 81.73 128.00 85.00
C 129.64 85.64 132.47 84.15 134.00 85.00
C 133.97 82.45 134.95 80.36 138.00 81.00
C 138.71 78.79 137.10 77.54 135.00 78.00
C 134.16 76.79 134.71 75.08 134.00 74.00
C 132.17 73.20 128.66 75.06 127.00 74.00
C 126.18 68.71 125.50 63.77 118.00 66.00
C 118.00 63.00 118.00 60.00 118.00 57.00
C 111.66 59.33 110.79 53.94 107.00 53.00
C 107.40 55.79 107.02 58.86 106.00 61.00 Z"/>
</g>
<g fill="None" fill-opacity="0.0" stroke="#275E51" stroke-opacity="1.00" stroke-width="0.3"><path d="
M 57.00 64.00 
C 61.00 64.13 63.82 59.94 65.00 57.00
C 62.33 57.00 59.67 57.00 57.00 57.00
C 55.94 58.66 57.80 62.17 57.00 64.00 Z"/>
</g>
<g fill="None" fill-opacity="0.0" stroke="#142B23" stroke-opacity="1.00" stroke-width="0.3"><path d="
M 110.00 62.00 
C 111.31 61.46 112.44 60.59 114.00 61.00
C 114.00 62.33 114.00 63.67 114.00 65.00
C 116.06 59.95 113.35 60.34 110.00 62.00 Z"/>
</g>
<g fill="None" fill-opacity="0.0" stroke="#010501" stroke-opacity="1.00" stroke-width="0.3"><path d="
M 37.00 62.00 
C 37.00 68.47 34.16 90.07 39.00 93.00
C 37.24 84.04 42.40 70.91 40.00 61.00
C 39.80 60.90 37.13 60.86 37.00 61.00
C 37.00 61.00 37.00 61.50 37.00 62.00 Z"/>
</g>
<g fill="None" fill-opacity="0.0" stroke="#3B5A48" stroke-opacity="0.99" stroke-width="0.3"><path d="
M 39.00 93.00 
C 40.06 93.64 39.50 93.71 41.00 94.00
C 41.96 94.18 43.03 93.85 44.00 94.00
C 43.97 97.13 42.97 102.98 48.00 102.00
C 43.51 106.32 44.78 109.63 44.00 117.00 C 43.22 124.37 51.82 124.29 57.00 122.00
C 54.42 121.60 51.56 122.53 49.00 122.00
C 47.72 121.74 46.29 122.20 45.00 122.00
C 45.00 116.67 45.00 111.33 45.00 106.00
C 46.00 106.00 47.00 106.00 48.00 106.00
C 47.81 104.68 50.16 99.51 45.00 101.00
C 45.03 97.87 46.03 92.02 41.00 93.00
C 41.00 90.33 41.00 87.67 41.00 85.00
C 41.00 81.59 41.39 75.11 41.00 72.00 C 40.61 68.89 42.62 62.29 40.00 61.00
C 42.40 70.91 37.24 84.04 39.00 93.00 Z"/>
</g>
<g fill="None" fill-opacity="0.0" stroke="#010B03" stroke-opacity="1.00" stroke-width="0.3"><path d="
M 64.00 61.00 
C 63.10 60.10 60.90 62.50 62.29 63.63 C 63.69 64.77 64.81 61.81 64.00 61.00 Z"/>
</g>
<g fill="None" fill-opacity="0.0" stroke="#509571" stroke-opacity="1.00" stroke-width="0.3"><path d="
M 82.00 61.00 
C 80.36 61.98 81.07 65.18 78.00 64.00
C 77.82 62.94 78.34 61.40 77.00 61.00
C 75.93 64.77 78.90 65.65 82.00 65.00
C 82.00 63.67 82.00 62.33 82.00 61.00 Z"/>
</g>
<g fill="None" fill-opacity="0.0" stroke="#307450" stroke-opacity="1.00" stroke-width="0.3"><path d="
M 94.00 61.00 
C 92.67 61.00 91.33 61.00 90.00 61.00
C 89.27 63.98 90.96 65.90 94.00 65.00
C 94.00 63.67 94.00 62.33 94.00 61.00 Z"/>
</g>
<g fill="None" fill-opacity="0.0" stroke="#010B02" stroke-opacity="1.00" stroke-width="0.3"><path d="
M 60.00 65.00 
C 59.10 64.10 56.90 66.50 58.29 67.63 C 59.69 68.77 60.81 65.81 60.00 65.00 Z"/>
</g>
<g fill="None" fill-opacity="0.0" stroke="#2D7950" stroke-opacity="1.00" stroke-width="0.3"><path d="
M 73.00 65.00 
C 71.33 63.33 67.13 66.49 69.33 68.67 C 71.53 70.85 74.72 66.72 73.00 65.00 Z"/>
</g>
<g fill="None" fill-opacity="0.0" stroke="#122A20" stroke-opacity="1.00" stroke-width="0.3"><path d="
M 115.00 72.00 
C 115.00 72.00 114.86 72.95 115.00 73.00
C 116.48 73.47 116.87 72.95 118.00 74.00
C 118.27 74.25 119.00 74.00 119.00 74.00
C 120.33 74.00 121.67 74.00 123.00 74.00
C 123.46 71.21 122.88 66.99 119.00 68.00
C 117.92 70.70 118.05 71.77 115.00 72.00
M 122.00 69.00 
C 123.31 70.31 121.29 74.40 119.32 72.66 C 117.34 70.91 120.53 67.53 122.00 69.00 Z"/>
</g>
<g fill="None" fill-opacity="0.0" stroke="#2A744D" stroke-opacity="1.00" stroke-width="0.3"><path d="
M 86.00 69.00 
C 84.33 67.33 80.13 70.49 82.33 72.67 C 84.53 74.85 87.72 70.72 86.00 69.00 Z"/>
</g>
<g fill="None" fill-opacity="0.0" stroke="#27734B" stroke-opacity="1.00" stroke-width="0.3"><path d="
M 98.00 69.00 
C 96.33 67.33 92.13 70.49 94.33 72.67 C 96.53 74.85 99.72 70.72 98.00 69.00 Z"/>
</g>
<g fill="None" fill-opacity="0.0" stroke="#2F604F" stroke-opacity="1.00" stroke-width="0.3"><path d="
M 122.00 69.00 
C 120.53 67.53 117.34 70.91 119.32 72.66 C 121.29 74.40 123.31 70.31 122.00 69.00 Z"/>
</g>
<g fill="None" fill-opacity="0.0" stroke="#51936E" stroke-opacity="1.00" stroke-width="0.3"><path d="
M 107.00 77.00 
C 105.54 75.54 108.72 72.72 110.00 74.00
C 109.05 69.98 102.99 76.05 107.00 77.00 Z"/>
</g>
<g fill="None" fill-opacity="0.0" stroke="#2B3429" stroke-opacity="0.08" stroke-width="0.3"><path d="
M 127.00 74.00 
C 128.66 75.06 132.17 73.20 134.00 74.00
C 132.84 72.22 128.26 72.58 127.00 74.00 Z"/>
</g>
<g fill="None" fill-opacity="0.0" stroke="#236C46" stroke-opacity="1.00" stroke-width="0.3"><path d="
M 107.00 77.00 
C 108.28 78.28 111.46 75.46 110.00 74.00
C 108.72 72.72 105.54 75.54 107.00 77.00 Z"/>
</g>
<g fill="None" fill-opacity="0.0" stroke="#658C77" stroke-opacity="1.00" stroke-width="0.3"><path d="
M 143.00 90.00 
C 143.10 89.52 143.00 89.00 143.00 89.00
C 141.14 88.75 137.63 89.85 136.00 89.00
C 135.35 88.66 134.01 85.89 134.00 85.00
C 132.47 84.15 129.64 85.64 128.00 85.00
C 127.58 82.09 124.73 81.61 123.00 80.00
C 121.84 78.91 119.11 75.87 119.00 74.00
C 119.00 74.00 118.27 74.25 118.00 74.00
C 118.64 79.82 125.69 80.37 127.00 86.00
C 130.80 85.69 134.65 85.48 135.00 90.00
C 137.65 89.82 140.35 90.24 143.00 90.00 Z"/>
</g>
<g fill="None" fill-opacity="0.0" stroke="#485A4B" stroke-opacity="1.00" stroke-width="0.3"><path d="
M 170.00 82.00 
C 170.84 82.24 171.50 84.25 171.00 85.00
C 172.54 84.21 171.28 83.15 172.00 82.00
C 172.87 80.61 174.49 81.11 176.00 81.00
C 176.28 79.72 175.24 77.50 177.00 77.00
C 177.13 76.02 176.89 74.99 177.00 74.00
C 173.64 73.77 175.45 78.01 175.00 80.00
C 171.12 77.52 172.20 78.64 170.00 82.00 Z"/>
</g>
<g fill="None" fill-opacity="0.0" stroke="#020701" stroke-opacity="1.00" stroke-width="0.3"><path d="
M 177.00 77.00 
C 177.25 76.84 179.73 76.87 180.00 77.00
C 181.63 77.80 181.32 83.31 181.00 85.00
C 181.86 84.65 183.11 85.28 184.00 85.00
L 184.00 74.00
C 181.95 74.65 178.95 73.14 177.00 74.00
C 176.89 74.99 177.13 76.02 177.00 77.00 Z"/>
</g>
<g fill="None" fill-opacity="0.0" stroke="#132B22" stroke-opacity="1.00" stroke-width="0.3"><path d="
M 123.00 80.00 
C 124.73 81.61 127.58 82.09 128.00 85.00
C 127.11 81.73 130.15 82.18 132.00 81.00
C 132.95 77.12 128.83 76.48 126.00 77.00
C 126.46 79.10 125.21 80.71 123.00 80.00
M 131.00 78.00 
C 130.09 84.82 123.37 76.66 131.00 78.00 Z"/>
</g>
<g fill="None" fill-opacity="0.0" stroke="#20322A" stroke-opacity="0.85" stroke-width="0.3"><path d="
M 135.00 78.00 
C 137.10 77.54 138.71 78.79 138.00 81.00
C 134.95 80.36 133.97 82.45 134.00 85.00
C 134.01 85.89 135.35 88.66 136.00 89.00
C 134.89 84.90 141.34 86.65 140.00 82.00
C 139.65 81.93 138.99 81.33 139.00 81.00
C 139.00 79.67 139.00 78.33 139.00 77.00
C 138.56 76.35 134.51 77.57 135.00 78.00
M 139.00 82.00 
C 140.53 83.52 137.06 86.61 135.33 84.67 C 133.59 82.72 137.76 80.76 139.00 82.00 Z"/>
</g>
<g fill="None" fill-opacity="0.0" stroke="#5D8F74" stroke-opacity="1.00" stroke-width="0.3"><path d="
M 172.00 82.00 
C 173.19 80.72 178.61 80.77 179.00 78.00
C 179.00 80.33 179.00 82.67 179.00 85.00
C 180.26 82.79 180.11 79.86 180.00 77.00
C 179.73 76.87 177.25 76.84 177.00 77.00
C 175.24 77.50 176.28 79.72 176.00 81.00
C 174.49 81.11 172.87 80.61 172.00 82.00 Z"/>
</g>
<g fill="None" fill-opacity="0.0" stroke="#1B3223" stroke-opacity="0.98" stroke-width="0.3"><path d="
M 179.00 85.00 
C 178.71 85.51 173.63 85.67 176.00 89.00
C 174.72 89.28 172.50 88.24 172.00 90.00
C 171.91 90.14 171.95 92.98 172.00 93.00
C 173.33 92.97 174.67 93.03 176.00 93.00
C 176.28 91.72 175.24 89.50 177.00 89.00
C 177.48 88.35 176.62 86.72 177.00 86.00
C 179.03 85.36 179.06 87.69 179.00 89.00
C 179.61 88.70 180.91 85.48 181.00 85.00
C 181.32 83.31 181.63 77.80 180.00 77.00
C 180.11 79.86 180.26 82.79 179.00 85.00 Z"/>
</g>
<g fill="None" fill-opacity="0.0" stroke="#2B5D4C" stroke-opacity="1.00" stroke-width="0.3"><path d="
M 131.00 78.00 
C 123.37 76.66 130.09 84.82 131.00 78.00 Z"/>
</g>
<g fill="None" fill-opacity="0.0" stroke="#76C39A" stroke-opacity="1.00" stroke-width="0.3"><path d="
M 172.00 82.00 
C 171.28 83.15 172.54 84.21 171.00 85.00
C 169.37 85.84 166.62 83.60 168.00 82.00
C 166.46 82.46 167.20 84.41 166.00 85.00
C 167.88 85.14 168.76 87.05 168.00 89.00
C 168.05 90.32 164.77 90.10 164.00 90.00
C 164.37 91.22 163.72 92.75 164.00 94.00
C 162.67 94.00 161.33 94.00 160.00 94.00
C 161.03 101.08 150.51 95.04 151.00 102.00
C 145.43 103.35 135.37 98.58 134.00 106.00
C 130.33 106.00 126.67 106.00 123.00 106.00
C 123.00 106.39 123.26 108.76 123.00 109.00
C 126.67 109.00 130.33 109.00 134.00 109.00
C 134.51 101.37 145.81 106.49 151.00 105.00
C 149.97 99.99 155.90 100.99 159.00 101.00
C 157.97 95.99 163.90 96.99 167.00 97.00
C 166.13 92.67 171.41 93.39 172.00 90.00
C 172.50 88.24 174.72 89.28 176.00 89.00
C 173.63 85.67 178.71 85.51 179.00 85.00
C 179.00 82.67 179.00 80.33 179.00 78.00
C 178.61 80.77 173.19 80.72 172.00 82.00 Z"/>
</g>
<g fill="None" fill-opacity="0.0" stroke="#576157" stroke-opacity="0.08" stroke-width="0.3"><path d="
M 140.00 82.00 
C 142.26 82.42 144.72 81.69 147.00 82.00
C 146.24 80.46 140.62 80.48 139.00 81.00
C 138.99 81.33 139.65 81.93 140.00 82.00 Z"/>
</g>
<g fill="None" fill-opacity="0.0" stroke="#2D594D" stroke-opacity="1.00" stroke-width="0.3"><path d="
M 139.00 82.00 
C 137.76 80.76 133.59 82.72 135.33 84.67 C 137.06 86.61 140.53 83.52 139.00 82.00 Z"/>
</g>
<g fill="None" fill-opacity="0.0" stroke="#010501" stroke-opacity="1.00" stroke-width="0.3"><path d="
M 136.00 89.00 
C 137.63 89.85 141.14 88.75 143.00 89.00
C 142.73 87.73 143.21 86.29 143.00 85.00
C 144.33 85.00 145.67 85.00 147.00 85.00
C 147.13 84.89 147.09 82.19 147.00 82.00
C 144.72 81.69 142.26 82.42 140.00 82.00
C 141.34 86.65 134.89 84.90 136.00 89.00 Z"/>
</g>
<g fill="None" fill-opacity="0.0" stroke="#556258" stroke-opacity="0.47" stroke-width="0.3"><path d="
M 147.00 85.00 
C 147.25 85.09 148.01 85.98 148.00 86.00
C 148.11 85.74 150.69 86.15 151.00 86.00
C 151.27 85.87 151.65 85.11 152.00 85.00
C 152.48 84.65 151.62 82.48 152.00 82.00
C 150.98 82.05 149.57 84.64 147.00 85.00 Z"/>
</g>
<g fill="None" fill-opacity="0.0" stroke="#030A04" stroke-opacity="1.00" stroke-width="0.3"><path d="
M 152.00 85.00 
C 152.92 84.72 154.07 85.22 155.00 85.00
C 153.21 83.98 156.05 81.79 152.00 82.00
C 151.62 82.48 152.48 84.65 152.00 85.00 Z"/>
</g>
<g fill="None" fill-opacity="0.0" stroke="#010C03" stroke-opacity="1.00" stroke-width="0.3"><path d="
M 171.00 85.00 
C 171.50 84.25 170.84 82.24 170.00 82.00
C 169.54 81.87 168.46 81.86 168.00 82.00
C 166.62 83.60 169.37 85.84 171.00 85.00 Z"/>
</g>
<g fill="None" fill-opacity="0.0" stroke="#70BA93" stroke-opacity="1.00" stroke-width="0.3"><path d="
M 48.00 106.00 
C 48.78 111.46 53.53 111.69 53.00 118.00
C 49.96 117.10 48.27 119.02 49.00 122.00
C 51.56 122.53 54.42 121.60 57.00 122.00
C 57.00 119.33 57.00 116.67 57.00 114.00
C 52.14 116.01 53.77 108.64 49.00 110.00
C 49.61 100.91 52.87 111.03 57.00 110.00
C 57.65 104.84 55.69 98.34 58.00 94.00
C 58.35 93.77 59.65 93.77 60.00 94.00
C 63.01 95.96 60.42 104.27 61.00 108.00 C 61.58 111.73 61.00 118.95 61.00 123.00
C 61.23 123.67 62.71 124.72 62.00 126.00
C 65.67 126.00 69.33 126.00 73.00 126.00
C 73.00 118.00 73.00 110.00 73.00 102.00
C 71.67 102.00 70.33 102.00 69.00 102.00
C 67.29 108.90 73.97 124.77 62.00 122.00
C 61.22 112.45 63.04 108.07 62.00 98.00 C 60.95 87.93 52.09 98.13 56.00 106.00
C 52.09 103.28 47.83 99.82 49.00 93.00
C 43.44 94.49 45.22 88.33 45.00 85.00
C 43.67 85.00 42.33 85.00 41.00 85.00
C 41.00 87.67 41.00 90.33 41.00 93.00
C 46.03 92.02 45.03 97.87 45.00 101.00
C 50.16 99.51 47.81 104.68 48.00 106.00 Z"/>
</g>
<g fill="None" fill-opacity="0.0" stroke="#2B4F3D" stroke-opacity="1.00" stroke-width="0.3"><path d="
M 143.00 89.00 
C 143.00 89.00 143.10 89.52 143.00 90.00
C 143.00 91.33 143.00 92.67 143.00 94.00
C 148.49 93.16 154.57 95.13 160.00 94.00
C 161.33 94.00 162.67 94.00 164.00 94.00
C 163.72 92.75 164.37 91.22 164.00 90.00
C 163.51 89.94 163.00 90.00 163.00 90.00
C 163.05 91.00 162.96 92.00 163.00 93.00
C 156.67 93.00 150.33 93.00 144.00 93.00
C 142.67 88.96 149.62 90.56 148.00 86.00
C 148.01 85.98 147.25 85.09 147.00 85.00
C 145.67 85.00 144.33 85.00 143.00 85.00
C 143.21 86.29 142.73 87.73 143.00 89.00 Z"/>
</g>
<g fill="None" fill-opacity="0.0" stroke="#1D3930" stroke-opacity="1.00" stroke-width="0.3"><path d="
M 151.00 86.00 
C 149.61 92.56 154.80 88.09 156.00 87.00
C 154.74 87.77 154.26 89.86 152.00 89.00
C 150.82 85.93 154.02 86.64 155.00 85.00
C 154.07 85.22 152.92 84.72 152.00 85.00
C 151.65 85.11 151.27 85.87 151.00 86.00 Z"/>
</g>
<g fill="None" fill-opacity="0.0" stroke="#365B4E" stroke-opacity="0.74" stroke-width="0.3"><path d="
M 156.00 87.00 
C 156.81 86.51 157.61 85.50 159.00 86.00
C 157.77 84.22 156.52 85.87 155.00 85.00
C 154.02 86.64 150.82 85.93 152.00 89.00
C 154.26 89.86 154.74 87.77 156.00 87.00 Z"/>
</g>
<g fill="None" fill-opacity="0.0" stroke="#A6BAA7" stroke-opacity="0.63" stroke-width="0.3"><path d="
M 162.00 89.00 
C 162.40 89.20 163.50 89.00 164.00 89.00
C 163.94 88.99 164.00 86.21 164.00 86.00
C 164.00 85.50 164.00 85.00 164.00 85.00
C 162.57 86.06 163.38 87.92 162.00 89.00 Z"/>
</g>
<g fill="None" fill-opacity="0.0" stroke="#3C4E3E" stroke-opacity="0.74" stroke-width="0.3"><path d="
M 164.00 86.00 
C 166.47 85.85 167.15 86.46 167.00 89.00
C 167.50 89.00 168.00 89.00 168.00 89.00
C 168.76 87.05 167.88 85.14 166.00 85.00
C 165.60 85.20 164.16 84.77 164.00 85.00
C 164.00 85.00 164.00 85.50 164.00 86.00 Z"/>
</g>
<g fill="None" fill-opacity="0.0" stroke="#000000" stroke-opacity="0.00" stroke-width="0.3"><path d="
M 179.00 89.00 
C 178.60 89.20 177.18 88.76 177.00 89.00
C 175.24 89.50 176.28 91.72 176.00 93.00
C 174.67 93.03 173.33 92.97 172.00 93.00
C 171.97 92.99 171.35 93.95 171.00 94.00
C 170.16 97.04 171.10 96.15 168.00 97.00
C 167.95 97.35 167.34 97.98 167.00 98.00
C 166.85 98.98 167.12 100.02 167.00 101.00
C 164.67 101.00 162.33 101.00 160.00 101.00
C 159.97 101.35 159.12 101.74 159.00 102.00
C 158.81 102.41 159.00 103.00 159.00 103.00
C 158.52 106.28 154.64 104.66 152.00 105.00
C 151.91 105.35 151.12 105.74 151.00 106.00
C 150.81 106.41 151.00 107.00 151.00 107.00
C 150.47 110.63 139.34 109.00 136.00 109.00
C 135.50 109.00 135.00 109.00 135.00 109.00
C 134.75 109.25 135.00 110.00 135.00 110.00
C 135.21 111.58 135.29 113.09 134.00 114.00
C 131.34 115.89 125.00 112.58 122.00 114.00
C 122.00 118.00 122.00 122.00 122.00 126.00
C 121.00 126.00 120.00 126.00 119.00 126.00
C 118.95 126.35 118.35 126.95 118.00 127.00
C 118.50 127.52 117.60 129.39 118.00 130.00
L 184.00 130.00
L 184.00 85.00
C 183.11 85.28 181.86 84.65 181.00 85.00
C 180.91 85.48 179.61 88.70 179.00 89.00 Z"/>
</g>
<g fill="None" fill-opacity="0.0" stroke="#000502" stroke-opacity="1.00" stroke-width="0.3"><path d="
M 163.00 90.00 
C 162.24 90.00 160.70 90.28 160.00 90.00
C 157.98 89.80 159.64 86.93 159.00 86.00
C 157.61 85.50 156.81 86.51 156.00 87.00
C 154.80 88.09 149.61 92.56 151.00 86.00
C 150.69 86.15 148.11 85.74 148.00 86.00
C 149.62 90.56 142.67 88.96 144.00 93.00
C 150.33 93.00 156.67 93.00 163.00 93.00
C 162.96 92.00 163.05 91.00 163.00 90.00 Z"/>
</g>
<g fill="None" fill-opacity="0.0" stroke="#040A03" stroke-opacity="1.00" stroke-width="0.3"><path d="
M 164.00 89.00 
C 165.00 89.00 166.00 89.00 167.00 89.00
C 167.15 86.46 166.47 85.85 164.00 86.00
C 164.00 86.21 163.94 88.99 164.00 89.00 Z"/>
</g>
<g fill="None" fill-opacity="0.0" stroke="#000802" stroke-opacity="0.97" stroke-width="0.3"><path d="
M 177.00 89.00 
C 177.18 88.76 178.60 89.20 179.00 89.00
C 179.06 87.69 179.03 85.36 177.00 86.00
C 176.62 86.72 177.48 88.35 177.00 89.00 Z"/>
</g>
<g fill="None" fill-opacity="0.0" stroke="#5B7666" stroke-opacity="0.77" stroke-width="0.3"><path d="
M 160.00 90.00 
C 160.70 90.28 162.24 90.00 163.00 90.00
C 163.00 90.00 163.51 89.94 164.00 90.00
C 164.77 90.10 168.05 90.32 168.00 89.00
C 168.00 89.00 167.50 89.00 167.00 89.00
C 166.00 89.00 165.00 89.00 164.00 89.00
C 163.50 89.00 162.40 89.20 162.00 89.00
C 161.81 88.90 159.40 89.40 160.00 90.00 Z"/>
</g>
<g fill="None" fill-opacity="0.0" stroke="#53886B" stroke-opacity="1.00" stroke-width="0.3"><path d="
M 123.00 109.00 
C 125.50 110.85 131.66 110.30 135.00 110.00
C 135.00 110.00 134.75 109.25 135.00 109.00
C 134.88 108.01 135.09 106.99 135.00 106.00
C 140.33 106.00 145.67 106.00 151.00 106.00
C 151.12 105.74 151.91 105.35 152.00 105.00
C 152.12 104.53 151.77 103.35 152.00 103.00
C 153.19 101.18 156.99 102.13 159.00 102.00
C 159.12 101.74 159.97 101.35 160.00 101.00
C 160.08 100.01 159.94 98.99 160.00 98.00
C 162.33 98.00 164.67 98.00 167.00 98.00
C 167.34 97.98 167.95 97.35 168.00 97.00
C 168.44 94.14 168.08 94.45 171.00 94.00
C 171.35 93.95 171.97 92.99 172.00 93.00
C 171.95 92.98 171.91 90.14 172.00 90.00
C 171.41 93.39 166.13 92.67 167.00 97.00
C 163.90 96.99 157.97 95.99 159.00 101.00
C 155.90 100.99 149.97 99.99 151.00 105.00
C 145.81 106.49 134.51 101.37 134.00 109.00
C 130.33 109.00 126.67 109.00 123.00 109.00 Z"/>
</g>
<g fill="None" fill-opacity="0.0" stroke="#3C654D" stroke-opacity="1.00" stroke-width="0.3"><path d="
M 114.00 98.00 
C 115.33 98.00 116.67 98.00 118.00 98.00
C 118.00 107.33 118.00 116.67 118.00 126.00
C 114.33 126.00 110.67 126.00 107.00 126.00
C 107.00 124.67 107.00 123.33 107.00 122.00
C 106.99 122.08 106.00 122.00 106.00 122.00
C 105.52 123.52 106.36 125.45 106.00 127.00
C 110.00 127.00 114.00 127.00 118.00 127.00
C 118.35 126.95 118.95 126.35 119.00 126.00
C 120.18 117.80 120.12 106.21 119.00 98.00
C 118.16 91.88 114.83 91.92 114.00 98.00
M 118.00 94.00 
C 119.21 95.21 116.94 98.27 115.32 96.66 C 113.70 95.05 116.88 92.88 118.00 94.00 Z"/>
</g>
<g fill="None" fill-opacity="0.0" stroke="#010601" stroke-opacity="1.00" stroke-width="0.3"><path d="
M 57.00 130.00 
L 73.00 130.00
C 73.00 129.00 73.00 128.00 73.00 127.00
C 69.17 126.37 64.01 128.28 61.00 126.00
C 57.62 122.62 61.47 115.55 60.00 111.00 C 58.53 106.45 61.97 98.44 60.00 94.00
C 59.65 93.77 58.35 93.77 58.00 94.00
C 55.82 98.91 62.15 110.68 54.00 111.00
C 56.64 113.00 60.37 117.97 57.00 122.00
C 51.82 124.29 43.22 124.37 44.00 117.00 C 44.78 109.63 43.51 106.32 48.00 102.00
C 42.97 102.98 43.97 97.13 44.00 94.00
C 43.03 93.85 41.96 94.18 41.00 94.00
C 41.00 104.67 41.00 115.33 41.00 126.00
C 46.33 126.00 51.67 126.00 57.00 126.00
C 57.00 127.33 57.00 128.67 57.00 130.00 Z"/>
</g>
<g fill="None" fill-opacity="0.0" stroke="#0F2618" stroke-opacity="1.00" stroke-width="0.3"><path d="
M 57.00 122.00 
C 60.37 117.97 56.64 113.00 54.00 111.00
C 62.15 110.68 55.82 98.91 58.00 94.00
C 55.69 98.34 57.65 104.84 57.00 110.00
C 52.87 111.03 49.61 100.91 49.00 110.00
C 53.77 108.64 52.14 116.01 57.00 114.00
C 57.00 116.67 57.00 119.33 57.00 122.00 Z"/>
</g>
<g fill="None" fill-opacity="0.0" stroke="#17251C" stroke-opacity="1.00" stroke-width="0.3"><path d="
M 61.00 126.00 
C 60.71 125.40 61.00 123.68 61.00 123.00
C 61.00 118.95 61.58 111.73 61.00 108.00 C 60.42 104.27 63.01 95.96 60.00 94.00
C 61.97 98.44 58.53 106.45 60.00 111.00 C 61.47 115.55 57.62 122.62 61.00 126.00 Z"/>
</g>
<g fill="None" fill-opacity="0.0" stroke="#011002" stroke-opacity="1.00" stroke-width="0.3"><path d="
M 118.00 94.00 
C 116.88 92.88 113.70 95.05 115.32 96.66 C 116.94 98.27 119.21 95.21 118.00 94.00 Z"/>
</g>
<g fill="None" fill-opacity="0.0" stroke="#000B01" stroke-opacity="0.97" stroke-width="0.3"><path d="
M 168.00 97.00 
C 171.10 96.15 170.16 97.04 171.00 94.00
C 168.08 94.45 168.44 94.14 168.00 97.00 Z"/>
</g>
<g fill="None" fill-opacity="0.0" stroke="#7BA590" stroke-opacity="1.00" stroke-width="0.3"><path d="
M 73.00 98.00 
C 73.13 97.78 74.00 98.00 74.00 98.00
C 75.00 98.00 76.00 98.00 77.00 98.00
C 77.50 98.00 78.00 98.00 78.00 98.00
C 76.92 96.53 74.08 96.52 73.00 98.00 Z"/>
</g>
<g fill="None" fill-opacity="0.0" stroke="#315C45" stroke-opacity="1.00" stroke-width="0.3"><path d="
M 73.00 102.00 
C 73.00 110.00 73.00 118.00 73.00 126.00
C 69.33 126.00 65.67 126.00 62.00 126.00
C 62.71 124.72 61.23 123.67 61.00 123.00
C 61.00 123.68 60.71 125.40 61.00 126.00
C 64.01 128.28 69.17 126.37 73.00 127.00
C 73.00 128.00 73.00 129.00 73.00 130.00
L 74.00 130.00
C 73.20 128.42 74.92 127.34 75.00 126.00
C 75.45 118.29 74.76 106.44 74.00 98.00
C 74.00 98.00 73.13 97.78 73.00 98.00
C 72.57 98.71 73.00 101.15 73.00 102.00 Z"/>
</g>
<g fill="None" fill-opacity="0.0" stroke="#020702" stroke-opacity="1.00" stroke-width="0.3"><path d="
M 75.00 126.00 
C 75.42 125.82 76.65 126.23 77.00 126.00
C 78.07 123.58 75.52 119.74 78.00 118.00
C 80.68 116.12 86.99 119.41 90.00 118.00
C 87.04 127.27 95.42 126.51 102.00 126.00
C 102.00 127.33 102.00 128.67 102.00 130.00
L 118.00 130.00
C 117.60 129.39 118.50 127.52 118.00 127.00
C 114.00 127.00 110.00 127.00 106.00 127.00
C 106.36 125.45 105.52 123.52 106.00 122.00
C 105.62 117.85 108.31 106.25 106.00 103.00
C 105.00 103.00 104.00 103.00 103.00 103.00
C 108.44 119.92 87.21 115.16 78.00 114.00
C 75.61 111.61 76.68 101.55 77.00 98.00
C 76.00 98.00 75.00 98.00 74.00 98.00
C 74.76 106.44 75.45 118.29 75.00 126.00
M 94.00 118.00 
C 96.52 117.77 99.48 117.77 102.00 118.00
C 108.91 124.72 87.05 124.76 94.00 118.00 Z"/>
</g>
<g fill="None" fill-opacity="0.0" stroke="#3F604F" stroke-opacity="1.00" stroke-width="0.3"><path d="
M 78.00 114.00 
C 78.00 112.67 78.00 111.33 78.00 110.00
C 78.00 106.05 78.35 101.93 78.00 98.00
C 78.00 98.00 77.50 98.00 77.00 98.00
C 76.68 101.55 75.61 111.61 78.00 114.00 Z"/>
</g>
<g fill="None" fill-opacity="0.0" stroke="#6EC498" stroke-opacity="1.00" stroke-width="0.3"><path d="
M 107.00 122.00 
C 107.00 123.33 107.00 124.67 107.00 126.00
C 110.67 126.00 114.33 126.00 118.00 126.00
C 118.00 116.67 118.00 107.33 118.00 98.00
C 116.67 98.00 115.33 98.00 114.00 98.00
C 114.00 106.00 114.00 114.00 114.00 122.00
C 111.67 122.00 109.33 122.00 107.00 122.00 Z"/>
</g>
<g fill="None" fill-opacity="0.0" stroke="#010601" stroke-opacity="0.99" stroke-width="0.3"><path d="
M 119.00 126.00 
C 120.00 126.00 121.00 126.00 122.00 126.00
C 122.00 122.00 122.00 118.00 122.00 114.00
C 125.00 112.58 131.34 115.89 134.00 114.00
C 134.00 113.00 134.00 112.00 134.00 111.00
C 130.19 110.15 124.27 112.98 122.00 109.00
C 121.67 105.36 122.25 101.64 122.00 98.00
C 121.45 97.73 119.39 98.44 119.00 98.00
C 120.12 106.21 120.18 117.80 119.00 126.00 Z"/>
</g>
<g fill="None" fill-opacity="0.0" stroke="#2B5240" stroke-opacity="1.00" stroke-width="0.3"><path d="
M 122.00 109.00 
C 122.00 109.04 123.00 109.00 123.00 109.00
C 123.26 108.76 123.00 106.39 123.00 106.00
C 123.00 104.12 123.87 98.92 122.00 98.00
C 122.25 101.64 121.67 105.36 122.00 109.00 Z"/>
</g>
<g fill="None" fill-opacity="0.0" stroke="#000802" stroke-opacity="0.97" stroke-width="0.3"><path d="
M 160.00 101.00 
C 162.33 101.00 164.67 101.00 167.00 101.00
C 167.12 100.02 166.85 98.98 167.00 98.00
C 164.67 98.00 162.33 98.00 160.00 98.00
C 159.94 98.99 160.08 100.01 160.00 101.00 Z"/>
</g>
<g fill="None" fill-opacity="0.0" stroke="#678F7B" stroke-opacity="1.00" stroke-width="0.3"><path d="
M 102.00 102.00 
C 103.67 102.00 105.00 101.59 106.00 103.00
C 108.31 106.25 105.62 117.85 106.00 122.00
C 106.00 122.00 106.99 122.08 107.00 122.00
C 107.35 118.15 105.97 111.53 107.00 108.00 C 108.03 104.47 104.80 97.74 102.00 102.00 Z"/>
</g>
<g fill="None" fill-opacity="0.0" stroke="#143121" stroke-opacity="1.00" stroke-width="0.3"><path d="
M 102.00 110.00 
C 101.74 111.28 102.20 112.71 102.00 114.00
C 94.00 114.00 86.00 114.00 78.00 114.00
C 87.21 115.16 108.44 119.92 103.00 103.00
C 104.00 103.00 105.00 103.00 106.00 103.00
C 105.00 101.59 103.67 102.00 102.00 102.00
C 100.92 103.64 102.41 108.02 102.00 110.00 Z"/>
</g>
<g fill="None" fill-opacity="0.0" stroke="#0B2315" stroke-opacity="1.00" stroke-width="0.3"><path d="
M 152.00 103.00 
C 153.43 102.12 157.29 103.23 159.00 103.00
C 159.00 103.00 158.81 102.41 159.00 102.00
C 156.99 102.13 153.19 101.18 152.00 103.00 Z"/>
</g>
<g fill="None" fill-opacity="0.0" stroke="#000401" stroke-opacity="0.96" stroke-width="0.3"><path d="
M 152.00 105.00 
C 154.64 104.66 158.52 106.28 159.00 103.00
C 157.29 103.23 153.43 102.12 152.00 103.00
C 151.77 103.35 152.12 104.53 152.00 105.00 Z"/>
</g>
<g fill="None" fill-opacity="0.0" stroke="#99DAB8" stroke-opacity="1.00" stroke-width="0.3"><path d="
M 49.00 122.00 
C 48.27 119.02 49.96 117.10 53.00 118.00
C 53.53 111.69 48.78 111.46 48.00 106.00
C 47.00 106.00 46.00 106.00 45.00 106.00
C 45.00 111.33 45.00 116.67 45.00 122.00
C 46.29 122.20 47.72 121.74 49.00 122.00 Z"/>
</g>
<g fill="None" fill-opacity="0.0" stroke="#152D1E" stroke-opacity="1.00" stroke-width="0.3"><path d="
M 135.00 109.00 
C 135.00 109.00 135.50 109.00 136.00 109.00
C 137.05 105.09 147.24 107.34 151.00 107.00
C 151.00 107.00 150.81 106.41 151.00 106.00
C 145.67 106.00 140.33 106.00 135.00 106.00
C 135.09 106.99 134.88 108.01 135.00 109.00 Z"/>
</g>
<g fill="None" fill-opacity="0.0" stroke="#010400" stroke-opacity="0.96" stroke-width="0.3"><path d="
M 136.00 109.00 
C 139.34 109.00 150.47 110.63 151.00 107.00
C 147.24 107.34 137.05 105.09 136.00 109.00 Z"/>
</g>
<g fill="None" fill-opacity="0.0" stroke="#1A2E1E" stroke-opacity="1.00" stroke-width="0.3"><path d="
M 134.00 114.00 
C 135.29 113.09 135.21 111.58 135.00 110.00
C 131.66 110.30 125.50 110.85 123.00 109.00
C 123.00 109.00 122.00 109.04 122.00 109.00
C 124.27 112.98 130.19 110.15 134.00 111.00
C 134.00 112.00 134.00 113.00 134.00 114.00 Z"/>
</g>
<g fill="None" fill-opacity="0.0" stroke="#6CBE94" stroke-opacity="1.00" stroke-width="0.3"><path d="
M 78.00 114.00 
C 86.00 114.00 94.00 114.00 102.00 114.00
C 102.20 112.71 101.74 111.28 102.00 110.00
C 94.00 110.00 86.00 110.00 78.00 110.00
C 78.00 111.33 78.00 112.67 78.00 114.00 Z"/>
</g>
<g fill="None" fill-opacity="0.0" stroke="#465545" stroke-opacity="0.99" stroke-width="0.3"><path d="
M 77.00 126.00 
C 79.24 124.54 77.37 120.28 78.00 118.00
C 75.52 119.74 78.07 123.58 77.00 126.00 Z"/>
</g>
<g fill="None" fill-opacity="0.0" stroke="#000000" stroke-opacity="0.00" stroke-width="0.3"><path d="
M 77.00 126.00 
C 76.65 126.23 75.42 125.82 75.00 126.00
C 74.92 127.34 73.20 128.42 74.00 130.00
L 102.00 130.00
C 102.00 128.67 102.00 127.33 102.00 126.00
C 95.42 126.51 87.04 127.27 90.00 118.00
C 86.99 119.41 80.68 116.12 78.00 118.00
C 77.37 120.28 79.24 124.54 77.00 126.00 Z"/>
</g>
<g fill="None" fill-opacity="0.0" stroke="#2A4436" stroke-opacity="1.00" stroke-width="0.3"><path d="
M 102.00 118.00 
C 102.04 118.00 102.00 119.00 102.00 119.00
C 102.12 119.99 101.91 121.01 102.00 122.00
C 99.21 121.43 93.13 123.87 94.00 119.00
C 94.06 118.51 94.00 118.00 94.00 118.00
C 87.05 124.76 108.91 124.72 102.00 118.00 Z"/>
</g>
<g fill="None" fill-opacity="0.0" stroke="#59856D" stroke-opacity="1.00" stroke-width="0.3"><path d="
M 94.00 119.00 
C 96.52 119.23 99.48 119.23 102.00 119.00
C 102.00 119.00 102.04 118.00 102.00 118.00
C 99.48 117.77 96.52 117.77 94.00 118.00
C 94.00 118.00 94.06 118.51 94.00 119.00 Z"/>
</g>
<g fill="None" fill-opacity="0.0" stroke="#87C5A5" stroke-opacity="1.00" stroke-width="0.3"><path d="
M 102.00 119.00 
C 99.48 119.23 96.52 119.23 94.00 119.00
C 93.13 123.87 99.21 121.43 102.00 122.00
C 101.91 121.01 102.12 119.99 102.00 119.00 Z"/>
</g>
<g fill="#000000" fill-opacity="0.00" stroke="None">
<path d="
M 0.00 16.00 
C 0.84 15.68 2.19 16.40 3.00 16.00
C 3.05 15.65 3.65 15.05 4.00 15.00
C 4.84 11.96 3.90 12.85 7.00 12.00
C 7.05 11.65 7.65 11.05 8.00 11.00
C 8.84 7.96 7.90 8.85 11.00 8.00
C 11.05 7.65 11.65 7.11 12.00 7.00
C 12.90 3.54 15.95 4.13 16.00 0.00
L 0.00 0.00
L 0.00 16.00 Z"/>
</g>
<g fill="#030903" fill-opacity="0.95" stroke="None">
<path d="
M 12.00 7.00 
C 12.69 6.79 15.58 7.51 16.00 7.00
C 16.46 6.29 15.62 4.76 16.00 4.00
C 17.76 0.44 28.83 4.60 32.00 3.00
C 32.00 2.00 32.00 1.00 32.00 0.00
L 16.00 0.00
C 15.95 4.13 12.90 3.54 12.00 7.00 Z"/>
</g>
<g fill="#779781" fill-opacity="1.00" stroke="None">
<path d="
M 16.00 4.00 
C 21.15 3.15 26.92 5.13 32.00 4.00
C 32.23 3.95 32.65 3.08 33.00 3.00
C 32.60 2.19 33.32 0.84 33.00 0.00
L 32.00 0.00
C 32.00 1.00 32.00 2.00 32.00 3.00
C 28.83 4.60 17.76 0.44 16.00 4.00 Z"/>
</g>
<g fill="#000000" fill-opacity="0.00" stroke="None">
<path d="
M 33.00 3.00 
C 33.13 3.27 33.75 3.91 34.00 4.00
C 35.71 4.63 38.37 3.22 40.00 4.00
C 41.45 4.70 40.69 7.18 42.00 8.00
C 42.36 8.23 43.65 7.77 44.00 8.00
C 45.91 9.24 44.73 12.95 45.00 15.00
C 45.03 15.21 45.74 15.89 46.00 16.00
C 46.42 16.18 47.84 15.77 48.00 16.00
C 49.83 17.76 49.38 24.34 49.00 27.00
C 49.05 27.23 49.79 27.97 50.00 28.00
C 50.98 28.15 52.02 27.88 53.00 28.00
C 53.54 33.61 51.84 39.82 54.00 45.00
C 58.82 44.43 56.41 49.97 57.00 53.00
C 59.67 53.00 62.33 53.00 65.00 53.00
C 65.03 52.65 65.65 52.07 66.00 52.00
C 66.15 51.02 65.88 49.98 66.00 49.00
C 68.33 49.00 70.67 49.00 73.00 49.00
C 73.50 49.27 75.15 52.28 75.00 53.00
C 75.47 52.88 76.58 53.18 77.00 53.00
C 77.26 52.89 77.66 52.02 78.00 52.00
C 78.15 51.02 77.88 49.98 78.00 49.00
C 80.33 49.00 82.67 49.00 85.00 49.00
C 86.39 49.76 85.70 52.18 87.00 53.00
C 87.18 52.76 88.64 53.23 89.00 53.00
C 90.50 52.06 89.36 49.89 91.00 49.00
C 92.80 48.02 96.07 49.74 98.00 49.00
C 98.00 50.00 98.00 51.00 98.00 52.00
C 98.03 52.21 98.74 52.89 99.00 53.00
C 99.42 53.18 100.64 53.23 101.00 53.00
C 102.48 52.07 101.17 49.54 103.00 49.00
C 105.98 48.11 105.49 50.14 106.00 52.00
C 106.35 52.06 106.95 52.65 107.00 53.00
C 110.79 53.94 111.66 59.33 118.00 57.00
C 118.00 60.00 118.00 63.00 118.00 66.00
C 125.50 63.77 126.18 68.71 127.00 74.00
C 128.26 72.58 132.84 72.22 134.00 74.00
C 134.71 75.08 134.16 76.79 135.00 78.00
C 134.51 77.57 138.56 76.35 139.00 77.00
C 139.00 78.33 139.00 79.67 139.00 81.00
C 140.62 80.48 146.24 80.46 147.00 82.00
C 147.09 82.19 147.13 84.89 147.00 85.00
C 149.57 84.64 150.98 82.05 152.00 82.00
C 156.05 81.79 153.21 83.98 155.00 85.00
C 156.52 85.87 157.77 84.22 159.00 86.00
C 159.64 86.93 157.98 89.80 160.00 90.00
C 159.40 89.40 161.81 88.90 162.00 89.00
C 163.38 87.92 162.57 86.06 164.00 85.00
C 164.16 84.77 165.60 85.20 166.00 85.00
C 167.20 84.41 166.46 82.46 168.00 82.00
C 168.46 81.86 169.54 81.87 170.00 82.00
C 172.20 78.64 171.12 77.52 175.00 80.00
C 175.45 78.01 173.64 73.77 177.00 74.00
C 178.95 73.14 181.95 74.65 184.00 74.00
L 184.00 0.00
L 33.00 0.00
C 33.32 0.84 32.60 2.19 33.00 3.00 Z"/>
</g>
<g fill="#576D5D" fill-opacity="1.00" stroke="None">
<path d="
M 32.00 4.00 
C 30.94 9.00 36.93 8.01 40.00 8.00
C 39.97 11.13 38.97 16.98 44.00 16.00
C 44.05 15.77 44.93 15.35 45.00 15.00
C 44.73 12.95 45.91 9.24 44.00 8.00
C 44.96 9.96 44.57 16.42 41.00 15.00
C 41.52 12.81 39.86 9.38 42.00 8.00
C 40.69 7.18 41.45 4.70 40.00 4.00
C 41.10 8.43 35.51 6.64 33.00 7.00
C 33.11 6.00 32.53 4.27 34.00 4.00
C 33.75 3.91 33.13 3.27 33.00 3.00
C 32.65 3.08 32.23 3.95 32.00 4.00 Z"/>
</g>
<g fill="#9BE1BC" fill-opacity="1.00" stroke="None">
<path d="
M 16.00 7.00 
C 15.12 8.38 13.52 7.90 12.00 8.00
C 11.39 12.02 8.14 15.37 4.00 16.00
C 4.00 22.67 4.00 29.33 4.00 36.00
C 8.01 34.57 7.45 38.17 9.00 40.00
C 15.33 40.00 21.67 40.00 28.00 40.00
C 28.22 36.67 26.44 30.51 32.00 32.00
C 32.56 29.48 30.81 25.70 33.00 24.00
C 33.31 23.85 35.69 23.85 36.00 24.00
C 38.34 25.15 36.29 29.95 37.00 32.00
C 31.50 30.37 33.22 36.75 33.00 40.00
C 41.25 40.74 35.10 54.69 37.00 61.00
C 37.13 60.86 39.80 60.90 40.00 61.00
C 42.62 62.29 40.61 68.89 41.00 72.00 C 41.39 75.11 41.00 81.59 41.00 85.00
C 42.33 85.00 43.67 85.00 45.00 85.00
C 45.22 88.33 43.44 94.49 49.00 93.00
C 47.83 99.82 52.09 103.28 56.00 106.00
C 52.09 98.13 60.95 87.93 62.00 98.00 C 63.04 108.07 61.22 112.45 62.00 122.00
C 73.97 124.77 67.29 108.90 69.00 102.00
C 70.33 102.00 71.67 102.00 73.00 102.00
C 73.00 101.15 72.57 98.71 73.00 98.00
C 74.08 96.52 76.92 96.53 78.00 98.00
C 78.35 101.93 78.00 106.05 78.00 110.00
C 86.00 110.00 94.00 110.00 102.00 110.00
C 102.41 108.02 100.92 103.64 102.00 102.00
C 104.80 97.74 108.03 104.47 107.00 108.00 C 105.97 111.53 107.35 118.15 107.00 122.00
C 109.33 122.00 111.67 122.00 114.00 122.00
C 114.00 114.00 114.00 106.00 114.00 98.00
C 114.83 91.92 118.16 91.88 119.00 98.00
C 119.39 98.44 121.45 97.73 122.00 98.00
C 123.87 98.92 123.00 104.12 123.00 106.00
C 126.67 106.00 130.33 106.00 134.00 106.00
C 135.37 98.58 145.43 103.35 151.00 102.00
C 150.51 95.04 161.03 101.08 160.00 94.00
C 154.57 95.13 148.49 93.16 143.00 94.00
C 143.00 92.67 143.00 91.33 143.00 90.00
C 140.35 90.24 137.65 89.82 135.00 90.00
C 134.65 85.48 130.80 85.69 127.00 86.00
C 125.69 80.37 118.64 79.82 118.00 74.00
C 116.87 72.95 116.48 73.47 115.00 73.00
C 114.20 68.56 109.43 70.02 110.00 65.00
C 106.67 64.78 100.51 66.56 102.00 61.00
C 99.33 61.00 96.67 61.00 94.00 61.00
C 94.00 62.33 94.00 63.67 94.00 65.00
C 90.96 65.90 89.27 63.98 90.00 61.00
C 87.67 61.00 84.22 60.34 82.00 61.00
C 82.00 62.33 82.00 63.67 82.00 65.00
C 78.90 65.65 75.93 64.77 77.00 61.00
C 73.77 60.04 69.38 61.31 66.00 61.00
C 65.52 64.27 63.40 63.42 62.00 65.00
C 60.75 66.92 62.13 72.09 57.00 70.00
C 56.29 67.03 54.99 65.75 52.00 65.00
C 52.00 58.33 52.00 51.67 52.00 45.00
C 44.37 44.49 49.49 33.19 48.00 28.00
C 47.87 28.14 45.20 28.10 45.00 28.00
C 43.15 27.09 43.55 18.03 44.00 16.00
C 38.97 16.98 39.97 11.13 40.00 8.00
C 36.93 8.01 30.94 9.00 32.00 4.00
C 26.92 5.13 21.15 3.15 16.00 4.00
C 15.62 4.76 16.46 6.29 16.00 7.00
M 12.00 20.00 
C 12.37 21.22 11.72 22.75 12.00 24.00
C 10.67 24.00 9.33 24.00 8.00 24.00
C 5.11 21.19 9.20 17.12 12.00 20.00
M 21.00 24.00 
C 21.02 23.91 22.67 23.76 23.00 24.00
C 29.32 28.62 14.68 28.62 21.00 24.00
M 73.00 65.00 
C 74.72 66.72 71.53 70.85 69.33 68.67 C 67.13 66.49 71.33 63.33 73.00 65.00
M 86.00 69.00 
C 87.72 70.72 84.53 74.85 82.33 72.67 C 80.13 70.49 84.33 67.33 86.00 69.00
M 98.00 69.00 
C 99.72 70.72 96.53 74.85 94.33 72.67 C 92.13 70.49 96.33 67.33 98.00 69.00
M 110.00 74.00 
C 111.46 75.46 108.28 78.28 107.00 77.00
C 102.99 76.05 109.05 69.98 110.00 74.00 Z"/>
</g>
<g fill="#040A03" fill-opacity="1.00" stroke="None">
<path d="
M 40.00 4.00 
C 38.37 3.22 35.71 4.63 34.00 4.00
C 32.53 4.27 33.11 6.00 33.00 7.00
C 35.51 6.64 41.10 8.43 40.00 4.00 Z"/>
</g>
<g fill="#456251" fill-opacity="0.92" stroke="None">
<path d="
M 11.00 8.00 
C 10.56 10.86 10.92 10.55 8.00 11.00
C 7.65 11.05 7.05 11.65 7.00 12.00
C 6.56 14.86 6.92 14.55 4.00 15.00
C 3.65 15.05 3.05 15.65 3.00 16.00
C 2.06 22.53 3.71 29.43 3.00 36.00
C 2.00 36.00 1.00 36.00 0.00 36.00
L 0.00 37.00
C 1.60 36.39 2.64 37.70 4.00 38.00
C 4.65 38.14 8.35 35.91 7.00 40.00
C 6.00 40.00 5.00 40.00 4.00 40.00
C 4.48 41.08 6.87 41.45 8.00 42.00
C 12.23 42.38 23.18 42.07 28.00 41.00
C 27.93 40.95 28.65 40.11 29.00 40.00
C 29.30 37.71 28.78 35.30 29.00 33.00
C 33.43 31.90 31.64 37.49 32.00 40.00
C 31.95 40.50 32.00 41.00 32.00 41.00
C 32.03 41.35 32.95 41.77 33.00 42.00
C 33.74 41.67 34.67 40.36 36.00 41.00
C 36.00 47.33 36.00 53.67 36.00 60.00
C 35.00 60.00 34.00 60.00 33.00 60.00
C 33.41 60.74 36.01 61.89 37.00 62.00
C 37.00 61.50 37.00 61.00 37.00 61.00
C 35.10 54.69 41.25 40.74 33.00 40.00
C 33.22 36.75 31.50 30.37 37.00 32.00
C 36.29 29.95 38.34 25.15 36.00 24.00
C 36.00 26.33 36.00 28.67 36.00 31.00
C 31.57 32.10 33.36 26.51 33.00 24.00
C 30.81 25.70 32.56 29.48 32.00 32.00
C 26.44 30.51 28.22 36.67 28.00 40.00
C 21.67 40.00 15.33 40.00 9.00 40.00
C 7.45 38.17 8.01 34.57 4.00 36.00
C 4.00 29.33 4.00 22.67 4.00 16.00
C 8.14 15.37 11.39 12.02 12.00 8.00
C 13.52 7.90 15.12 8.38 16.00 7.00
C 15.58 7.51 12.69 6.79 12.00 7.00
C 11.65 7.11 11.05 7.65 11.00 8.00 Z"/>
</g>
<g fill="#040D05" fill-opacity="0.97" stroke="None">
<path d="
M 8.00 11.00 
C 10.92 10.55 10.56 10.86 11.00 8.00
C 7.90 8.85 8.84 7.96 8.00 11.00 Z"/>
</g>
<g fill="#010801" fill-opacity="1.00" stroke="None">
<path d="
M 44.00 8.00 
C 43.65 7.77 42.36 8.23 42.00 8.00
C 39.86 9.38 41.52 12.81 41.00 15.00
C 44.57 16.42 44.96 9.96 44.00 8.00 Z"/>
</g>
<g fill="#050F04" fill-opacity="0.97" stroke="None">
<path d="
M 4.00 15.00 
C 6.92 14.55 6.56 14.86 7.00 12.00
C 3.90 12.85 4.84 11.96 4.00 15.00 Z"/>
</g>
<g fill="#6E917D" fill-opacity="1.00" stroke="None">
<path d="
M 44.00 16.00 
C 43.55 18.03 43.15 27.09 45.00 28.00
C 44.68 23.88 44.98 19.39 46.00 16.00
C 45.74 15.89 45.03 15.21 45.00 15.00
C 44.93 15.35 44.05 15.77 44.00 16.00 Z"/>
</g>
<g fill="#050A05" fill-opacity="1.00" stroke="None">
<path d="
M 0.00 36.00 
C 1.00 36.00 2.00 36.00 3.00 36.00
C 3.71 29.43 2.06 22.53 3.00 16.00
C 2.19 16.40 0.84 15.68 0.00 16.00
L 0.00 36.00 Z"/>
</g>
<g fill="#132218" fill-opacity="1.00" stroke="None">
<path d="
M 45.00 28.00 
C 45.20 28.10 47.87 28.14 48.00 28.00
C 48.25 27.73 48.00 27.00 48.00 27.00
C 44.89 26.17 44.76 17.87 48.00 17.00
C 48.00 16.50 48.00 16.00 48.00 16.00
C 47.84 15.77 46.42 16.18 46.00 16.00
C 44.98 19.39 44.68 23.88 45.00 28.00 Z"/>
</g>
<g fill="#444B40" fill-opacity="1.00" stroke="None">
<path d="
M 48.00 17.00 
C 48.00 20.33 48.00 23.67 48.00 27.00
C 48.00 27.00 48.25 27.73 48.00 28.00
C 48.05 27.77 48.95 27.35 49.00 27.00
C 49.38 24.34 49.83 17.76 48.00 16.00
C 48.00 16.00 48.00 16.50 48.00 17.00 Z"/>
</g>
<g fill="#020502" fill-opacity="1.00" stroke="None">
<path d="
M 48.00 27.00 
C 48.00 23.67 48.00 20.33 48.00 17.00
C 44.76 17.87 44.89 26.17 48.00 27.00 Z"/>
</g>
<g fill="#6D9C82" fill-opacity="1.00" stroke="None">
<path d="
M 8.00 24.00 
C 7.86 23.96 8.00 23.00 8.00 23.00
C 7.57 20.75 8.69 19.56 11.00 20.00
C 11.48 20.09 12.00 20.00 12.00 20.00
C 9.20 17.12 5.11 21.19 8.00 24.00 Z"/>
</g>
<g fill="#051208" fill-opacity="1.00" stroke="None">
<path d="
M 8.00 23.00 
C 10.47 23.15 11.15 22.54 11.00 20.00
C 8.69 19.56 7.57 20.75 8.00 23.00 Z"/>
</g>
<g fill="#214534" fill-opacity="1.00" stroke="None">
<path d="
M 8.00 23.00 
C 8.00 23.00 7.86 23.96 8.00 24.00
C 9.33 24.00 10.67 24.00 12.00 24.00
C 11.72 22.75 12.37 21.22 12.00 20.00
C 12.00 20.00 11.48 20.09 11.00 20.00
C 11.15 22.54 10.47 23.15 8.00 23.00 Z"/>
</g>
<g fill="#1F382B" fill-opacity="1.00" stroke="None">
<path d="
M 23.00 24.00 
C 23.18 24.96 22.85 26.03 23.00 27.00
C 20.97 27.64 20.94 25.31 21.00 24.00
C 14.68 28.62 29.32 28.62 23.00 24.00 Z"/>
</g>
<g fill="#040B06" fill-opacity="1.00" stroke="None">
<path d="
M 23.00 24.00 
C 22.67 23.76 21.02 23.91 21.00 24.00
C 20.94 25.31 20.97 27.64 23.00 27.00
C 22.85 26.03 23.18 24.96 23.00 24.00 Z"/>
</g>
<g fill="#040904" fill-opacity="1.00" stroke="None">
<path d="
M 36.00 24.00 
C 35.69 23.85 33.31 23.85 33.00 24.00
C 33.36 26.51 31.57 32.10 36.00 31.00
C 36.00 28.67 36.00 26.33 36.00 24.00 Z"/>
</g>
<g fill="#88AF9A" fill-opacity="1.00" stroke="None">
<path d="
M 48.00 28.00 
C 49.49 33.19 44.37 44.49 52.00 45.00
C 52.00 51.67 52.00 58.33 52.00 65.00
C 54.99 65.75 56.29 67.03 57.00 70.00
C 62.13 72.09 60.75 66.92 62.00 65.00
C 61.03 66.09 60.78 67.31 61.00 69.00
C 56.00 70.19 57.56 64.07 53.00 64.00
C 52.33 57.76 53.89 51.20 53.00 45.00
C 52.74 44.88 52.35 44.09 52.00 44.00
C 51.53 43.88 50.35 44.23 50.00 44.00
C 47.01 42.05 49.27 30.44 50.00 28.00
C 49.79 27.97 49.05 27.23 49.00 27.00
C 48.95 27.35 48.05 27.77 48.00 28.00 Z"/>
</g>
<g fill="#202A20" fill-opacity="1.00" stroke="None">
<path d="
M 50.00 44.00 
C 48.31 40.20 50.43 32.23 51.00 29.00
C 53.24 33.09 51.40 39.16 52.00 44.00
C 52.35 44.09 52.74 44.88 53.00 45.00
C 53.41 45.19 54.00 45.00 54.00 45.00
C 51.84 39.82 53.54 33.61 53.00 28.00
C 52.02 27.88 50.98 28.15 50.00 28.00
C 49.27 30.44 47.01 42.05 50.00 44.00 Z"/>
</g>
<g fill="#010301" fill-opacity="1.00" stroke="None">
<path d="
M 50.00 44.00 
C 50.35 44.23 51.53 43.88 52.00 44.00
C 51.40 39.16 53.24 33.09 51.00 29.00
C 50.43 32.23 48.31 40.20 50.00 44.00 Z"/>
</g>
<g fill="#010805" fill-opacity="1.00" stroke="None">
<path d="
M 29.00 40.00 
C 29.26 39.92 31.84 39.83 32.00 40.00
C 31.64 37.49 33.43 31.90 29.00 33.00
C 28.78 35.30 29.30 37.71 29.00 40.00 Z"/>
</g>
<g fill="#000000" fill-opacity="0.00" stroke="None">
<path d="
M 0.00 130.00 
L 57.00 130.00
C 57.00 128.67 57.00 127.33 57.00 126.00
C 51.67 126.00 46.33 126.00 41.00 126.00
C 41.00 115.33 41.00 104.67 41.00 94.00
C 39.50 93.71 40.06 93.64 39.00 93.00
C 34.16 90.07 37.00 68.47 37.00 62.00
C 36.01 61.89 33.41 60.74 33.00 60.00
C 30.63 55.70 34.08 46.88 33.00 42.00
C 32.95 41.77 32.03 41.35 32.00 41.00
C 28.35 41.16 30.46 43.07 28.00 44.00
C 22.50 46.09 11.45 43.69 8.00 42.00
C 6.87 41.45 4.48 41.08 4.00 40.00
C 3.81 39.58 4.18 38.42 4.00 38.00
C 2.64 37.70 1.60 36.39 0.00 37.00
L 0.00 130.00 Z"/>
</g>
<g fill="#08140A" fill-opacity="1.00" stroke="None">
<path d="
M 4.00 38.00 
C 4.18 38.42 3.81 39.58 4.00 40.00
C 5.00 40.00 6.00 40.00 7.00 40.00
C 8.35 35.91 4.65 38.14 4.00 38.00 Z"/>
</g>
<g fill="#899F89" fill-opacity="0.74" stroke="None">
<path d="
M 28.00 41.00 
C 28.49 41.40 27.61 43.48 28.00 44.00
C 30.46 43.07 28.35 41.16 32.00 41.00
C 32.00 41.00 31.95 40.50 32.00 40.00
C 31.84 39.83 29.26 39.92 29.00 40.00
C 28.65 40.11 27.93 40.95 28.00 41.00 Z"/>
</g>
<g fill="#000600" fill-opacity="1.00" stroke="None">
<path d="
M 8.00 42.00 
C 11.45 43.69 22.50 46.09 28.00 44.00
C 27.61 43.48 28.49 41.40 28.00 41.00
C 23.18 42.07 12.23 42.38 8.00 42.00 Z"/>
</g>
<g fill="#030702" fill-opacity="1.00" stroke="None">
<path d="
M 33.00 42.00 
C 34.08 46.88 30.63 55.70 33.00 60.00
C 34.00 60.00 35.00 60.00 36.00 60.00
C 36.00 53.67 36.00 47.33 36.00 41.00
C 34.67 40.36 33.74 41.67 33.00 42.00 Z"/>
</g>
<g fill="#020603" fill-opacity="1.00" stroke="None">
<path d="
M 53.00 64.00 
C 54.33 63.93 55.67 64.09 57.00 64.00
C 57.80 62.17 55.94 58.66 57.00 57.00
C 58.43 54.75 62.74 56.64 65.00 56.00
C 65.00 55.00 65.00 54.00 65.00 53.00
C 62.33 53.00 59.67 53.00 57.00 53.00
C 56.41 49.97 58.82 44.43 54.00 45.00
C 54.00 45.00 53.41 45.19 53.00 45.00
C 53.89 51.20 52.33 57.76 53.00 64.00 Z"/>
</g>
<g fill="#000201" fill-opacity="0.97" stroke="None">
<path d="
M 66.00 52.00 
C 68.26 51.58 70.72 52.31 73.00 52.00
C 73.40 51.20 72.68 49.84 73.00 49.00
C 70.67 49.00 68.33 49.00 66.00 49.00
C 65.88 49.98 66.15 51.02 66.00 52.00 Z"/>
</g>
<g fill="#39675A" fill-opacity="1.00" stroke="None">
<path d="
M 73.00 52.00 
C 71.94 54.15 67.90 52.42 66.00 53.00
C 64.97 57.57 72.78 56.75 74.00 54.00
C 74.07 53.65 74.65 53.09 75.00 53.00
C 75.15 52.28 73.50 49.27 73.00 49.00
C 72.68 49.84 73.40 51.20 73.00 52.00 Z"/>
</g>
<g fill="#020502" fill-opacity="0.97" stroke="None">
<path d="
M 78.00 52.00 
C 80.32 51.85 82.67 52.11 85.00 52.00
C 85.00 51.00 85.00 50.00 85.00 49.00
C 82.67 49.00 80.33 49.00 78.00 49.00
C 77.88 49.98 78.15 51.02 78.00 52.00 Z"/>
</g>
<g fill="#243F35" fill-opacity="0.99" stroke="None">
<path d="
M 78.00 52.00 
C 77.66 52.02 77.26 52.89 77.00 53.00
C 75.85 58.43 82.87 56.81 86.00 57.00
C 86.28 55.72 85.24 53.50 87.00 53.00
C 85.70 52.18 86.39 49.76 85.00 49.00
C 85.00 50.00 85.00 51.00 85.00 52.00
C 82.67 52.11 80.32 51.85 78.00 52.00
M 85.00 53.00 
C 86.10 57.43 80.51 55.64 78.00 56.00
C 76.90 51.57 82.49 53.36 85.00 53.00 Z"/>
</g>
<g fill="#1C352E" fill-opacity="0.99" stroke="None">
<path d="
M 89.00 53.00 
C 89.88 55.92 95.11 60.31 98.00 56.00
C 95.33 56.00 92.67 56.00 90.00 56.00
C 88.78 50.51 96.31 54.86 98.00 52.00
C 95.67 52.00 93.33 52.00 91.00 52.00
C 91.00 51.00 91.00 50.00 91.00 49.00
C 89.36 49.89 90.50 52.06 89.00 53.00 Z"/>
</g>
<g fill="#000502" fill-opacity="0.97" stroke="None">
<path d="
M 98.00 52.00 
C 98.00 51.00 98.00 50.00 98.00 49.00
C 96.07 49.74 92.80 48.02 91.00 49.00
C 91.00 50.00 91.00 51.00 91.00 52.00
C 93.33 52.00 95.67 52.00 98.00 52.00 Z"/>
</g>
<g fill="#2D5242" fill-opacity="1.00" stroke="None">
<path d="
M 101.00 53.00 
C 100.89 54.27 103.15 57.95 102.00 60.00
C 90.00 60.00 78.00 60.00 66.00 60.00
C 66.06 60.49 66.00 61.00 66.00 61.00
C 69.38 61.31 73.77 60.04 77.00 61.00
C 78.34 61.40 77.82 62.94 78.00 64.00
C 81.07 65.18 80.36 61.98 82.00 61.00
C 84.22 60.34 87.67 61.00 90.00 61.00
C 91.33 61.00 92.67 61.00 94.00 61.00
C 96.67 61.00 99.33 61.00 102.00 61.00
C 100.51 66.56 106.67 64.78 110.00 65.00
C 109.43 70.02 114.20 68.56 115.00 73.00
C 114.86 72.95 115.00 72.00 115.00 72.00
C 115.35 69.41 113.79 67.40 111.00 68.00
C 110.29 65.79 111.90 64.54 114.00 65.00
C 114.00 63.67 114.00 62.33 114.00 61.00
C 112.44 60.59 111.31 61.46 110.00 62.00
C 108.73 62.63 106.24 65.65 103.00 64.00
C 102.29 61.79 103.90 60.54 106.00 61.00
C 106.00 58.33 106.00 55.67 106.00 53.00
C 105.00 52.89 103.27 53.47 103.00 52.00
C 102.58 51.23 103.34 49.81 103.00 49.00
C 101.17 49.54 102.48 52.07 101.00 53.00 Z"/>
</g>
<g fill="#070D06" fill-opacity="0.97" stroke="None">
<path d="
M 103.00 52.00 
C 103.33 52.33 105.51 51.92 106.00 52.00
C 105.49 50.14 105.98 48.11 103.00 49.00
C 103.34 49.81 102.58 51.23 103.00 52.00 Z"/>
</g>
<g fill="#19362B" fill-opacity="1.00" stroke="None">
<path d="
M 65.00 53.00 
C 65.00 54.00 65.00 55.00 65.00 56.00
C 62.74 56.64 58.43 54.75 57.00 57.00
C 59.67 57.00 62.33 57.00 65.00 57.00
C 63.82 59.94 61.00 64.13 57.00 64.00
C 55.67 64.09 54.33 63.93 53.00 64.00
C 57.56 64.07 56.00 70.19 61.00 69.00
C 60.78 67.31 61.03 66.09 62.00 65.00
C 63.40 63.42 65.52 64.27 66.00 61.00
C 66.00 61.00 66.06 60.49 66.00 60.00
C 65.88 59.01 66.09 57.99 66.00 57.00
C 68.74 56.71 74.11 58.35 74.00 54.00
C 72.78 56.75 64.97 57.57 66.00 53.00
C 67.90 52.42 71.94 54.15 73.00 52.00
C 70.72 52.31 68.26 51.58 66.00 52.00
C 65.65 52.07 65.03 52.65 65.00 53.00
M 64.00 61.00 
C 64.81 61.81 63.69 64.77 62.29 63.63 C 60.90 62.50 63.10 60.10 64.00 61.00
M 60.00 65.00 
C 60.81 65.81 59.69 68.77 58.29 67.63 C 56.90 66.50 59.10 64.10 60.00 65.00 Z"/>
</g>
<g fill="#2F6256" fill-opacity="1.00" stroke="None">
<path d="
M 98.00 56.00 
C 97.73 56.40 98.96 52.24 99.00 53.00
C 98.74 52.89 98.03 52.21 98.00 52.00
C 96.31 54.86 88.78 50.51 90.00 56.00
C 92.67 56.00 95.33 56.00 98.00 56.00 Z"/>
</g>
<g fill="#153026" fill-opacity="1.00" stroke="None">
<path d="
M 106.00 61.00 
C 107.02 58.86 107.40 55.79 107.00 53.00
C 106.95 52.65 106.35 52.06 106.00 52.00
C 105.51 51.92 103.33 52.33 103.00 52.00
C 103.27 53.47 105.00 52.89 106.00 53.00
C 106.00 55.67 106.00 58.33 106.00 61.00 Z"/>
</g>
<g fill="#000401" fill-opacity="1.00" stroke="None">
<path d="
M 74.00 54.00 
C 74.11 58.35 68.74 56.71 66.00 57.00
C 66.09 57.99 65.88 59.01 66.00 60.00
C 78.00 60.00 90.00 60.00 102.00 60.00
C 103.15 57.95 100.89 54.27 101.00 53.00
C 100.64 53.23 99.42 53.18 99.00 53.00
C 98.96 52.24 97.73 56.40 98.00 56.00
C 95.11 60.31 89.88 55.92 89.00 53.00
C 88.64 53.23 87.18 52.76 87.00 53.00
C 85.24 53.50 86.28 55.72 86.00 57.00
C 82.87 56.81 75.85 58.43 77.00 53.00
C 76.58 53.18 75.47 52.88 75.00 53.00
C 74.65 53.09 74.07 53.65 74.00 54.00 Z"/>
</g>
<g fill="#2A6556" fill-opacity="1.00" stroke="None">
<path d="
M 85.00 53.00 
C 82.49 53.36 76.90 51.57 78.00 56.00
C 80.51 55.64 86.10 57.43 85.00 53.00 Z"/>
</g>
<g fill="#010402" fill-opacity="1.00" stroke="None">
<path d="
M 106.00 61.00 
C 103.90 60.54 102.29 61.79 103.00 64.00
C 106.24 65.65 108.73 62.63 110.00 62.00
C 113.35 60.34 116.06 59.95 114.00 65.00
C 111.90 64.54 110.29 65.79 111.00 68.00
C 113.79 67.40 115.35 69.41 115.00 72.00
C 118.05 71.77 117.92 70.70 119.00 68.00
C 122.88 66.99 123.46 71.21 123.00 74.00
C 121.67 74.00 120.33 74.00 119.00 74.00
C 119.11 75.87 121.84 78.91 123.00 80.00
C 125.21 80.71 126.46 79.10 126.00 77.00
C 128.83 76.48 132.95 77.12 132.00 81.00
C 130.15 82.18 127.11 81.73 128.00 85.00
C 129.64 85.64 132.47 84.15 134.00 85.00
C 133.97 82.45 134.95 80.36 138.00 81.00
C 138.71 78.79 137.10 77.54 135.00 78.00
C 134.16 76.79 134.71 75.08 134.00 74.00
C 132.17 73.20 128.66 75.06 127.00 74.00
C 126.18 68.71 125.50 63.77 118.00 66.00
C 118.00 63.00 118.00 60.00 118.00 57.00
C 111.66 59.33 110.79 53.94 107.00 53.00
C 107.40 55.79 107.02 58.86 106.00 61.00 Z"/>
</g>
<g fill="#275E51" fill-opacity="1.00" stroke="None">
<path d="
M 57.00 64.00 
C 61.00 64.13 63.82 59.94 65.00 57.00
C 62.33 57.00 59.67 57.00 57.00 57.00
C 55.94 58.66 57.80 62.17 57.00 64.00 Z"/>
</g>
<g fill="#142B23" fill-opacity="1.00" stroke="None">
<path d="
M 110.00 62.00 
C 111.31 61.46 112.44 60.59 114.00 61.00
C 114.00 62.33 114.00 63.67 114.00 65.00
C 116.06 59.95 113.35 60.34 110.00 62.00 Z"/>
</g>
<g fill="#010501" fill-opacity="1.00" stroke="None">
<path d="
M 37.00 62.00 
C 37.00 68.47 34.16 90.07 39.00 93.00
C 37.24 84.04 42.40 70.91 40.00 61.00
C 39.80 60.90 37.13 60.86 37.00 61.00
C 37.00 61.00 37.00 61.50 37.00 62.00 Z"/>
</g>
<g fill="#3B5A48" fill-opacity="0.99" stroke="None">
<path d="
M 39.00 93.00 
C 40.06 93.64 39.50 93.71 41.00 94.00
C 41.96 94.18 43.03 93.85 44.00 94.00
C 43.97 97.13 42.97 102.98 48.00 102.00
C 43.51 106.32 44.78 109.63 44.00 117.00 C 43.22 124.37 51.82 124.29 57.00 122.00
C 54.42 121.60 51.56 122.53 49.00 122.00
C 47.72 121.74 46.29 122.20 45.00 122.00
C 45.00 116.67 45.00 111.33 45.00 106.00
C 46.00 106.00 47.00 106.00 48.00 106.00
C 47.81 104.68 50.16 99.51 45.00 101.00
C 45.03 97.87 46.03 92.02 41.00 93.00
C 41.00 90.33 41.00 87.67 41.00 85.00
C 41.00 81.59 41.39 75.11 41.00 72.00 C 40.61 68.89 42.62 62.29 40.00 61.00
C 42.40 70.91 37.24 84.04 39.00 93.00 Z"/>
</g>
<g fill="#010B03" fill-opacity="1.00" stroke="None">
<path d="
M 64.00 61.00 
C 63.10 60.10 60.90 62.50 62.29 63.63 C 63.69 64.77 64.81 61.81 64.00 61.00 Z"/>
</g>
<g fill="#509571" fill-opacity="1.00" stroke="None">
<path d="
M 82.00 61.00 
C 80.36 61.98 81.07 65.18 78.00 64.00
C 77.82 62.94 78.34 61.40 77.00 61.00
C 75.93 64.77 78.90 65.65 82.00 65.00
C 82.00 63.67 82.00 62.33 82.00 61.00 Z"/>
</g>
<g fill="#307450" fill-opacity="1.00" stroke="None">
<path d="
M 94.00 61.00 
C 92.67 61.00 91.33 61.00 90.00 61.00
C 89.27 63.98 90.96 65.90 94.00 65.00
C 94.00 63.67 94.00 62.33 94.00 61.00 Z"/>
</g>
<g fill="#010B02" fill-opacity="1.00" stroke="None">
<path d="
M 60.00 65.00 
C 59.10 64.10 56.90 66.50 58.29 67.63 C 59.69 68.77 60.81 65.81 60.00 65.00 Z"/>
</g>
<g fill="#2D7950" fill-opacity="1.00" stroke="None">
<path d="
M 73.00 65.00 
C 71.33 63.33 67.13 66.49 69.33 68.67 C 71.53 70.85 74.72 66.72 73.00 65.00 Z"/>
</g>
<g fill="#122A20" fill-opacity="1.00" stroke="None">
<path d="
M 115.00 72.00 
C 115.00 72.00 114.86 72.95 115.00 73.00
C 116.48 73.47 116.87 72.95 118.00 74.00
C 118.27 74.25 119.00 74.00 119.00 74.00
C 120.33 74.00 121.67 74.00 123.00 74.00
C 123.46 71.21 122.88 66.99 119.00 68.00
C 117.92 70.70 118.05 71.77 115.00 72.00
M 122.00 69.00 
C 123.31 70.31 121.29 74.40 119.32 72.66 C 117.34 70.91 120.53 67.53 122.00 69.00 Z"/>
</g>
<g fill="#2A744D" fill-opacity="1.00" stroke="None">
<path d="
M 86.00 69.00 
C 84.33 67.33 80.13 70.49 82.33 72.67 C 84.53 74.85 87.72 70.72 86.00 69.00 Z"/>
</g>
<g fill="#27734B" fill-opacity="1.00" stroke="None">
<path d="
M 98.00 69.00 
C 96.33 67.33 92.13 70.49 94.33 72.67 C 96.53 74.85 99.72 70.72 98.00 69.00 Z"/>
</g>
<g fill="#2F604F" fill-opacity="1.00" stroke="None">
<path d="
M 122.00 69.00 
C 120.53 67.53 117.34 70.91 119.32 72.66 C 121.29 74.40 123.31 70.31 122.00 69.00 Z"/>
</g>
<g fill="#51936E" fill-opacity="1.00" stroke="None">
<path d="
M 107.00 77.00 
C 105.54 75.54 108.72 72.72 110.00 74.00
C 109.05 69.98 102.99 76.05 107.00 77.00 Z"/>
</g>
<g fill="#2B3429" fill-opacity="0.08" stroke="None">
<path d="
M 127.00 74.00 
C 128.66 75.06 132.17 73.20 134.00 74.00
C 132.84 72.22 128.26 72.58 127.00 74.00 Z"/>
</g>
<g fill="#236C46" fill-opacity="1.00" stroke="None">
<path d="
M 107.00 77.00 
C 108.28 78.28 111.46 75.46 110.00 74.00
C 108.72 72.72 105.54 75.54 107.00 77.00 Z"/>
</g>
<g fill="#658C77" fill-opacity="1.00" stroke="None">
<path d="
M 143.00 90.00 
C 143.10 89.52 143.00 89.00 143.00 89.00
C 141.14 88.75 137.63 89.85 136.00 89.00
C 135.35 88.66 134.01 85.89 134.00 85.00
C 132.47 84.15 129.64 85.64 128.00 85.00
C 127.58 82.09 124.73 81.61 123.00 80.00
C 121.84 78.91 119.11 75.87 119.00 74.00
C 119.00 74.00 118.27 74.25 118.00 74.00
C 118.64 79.82 125.69 80.37 127.00 86.00
C 130.80 85.69 134.65 85.48 135.00 90.00
C 137.65 89.82 140.35 90.24 143.00 90.00 Z"/>
</g>
<g fill="#485A4B" fill-opacity="1.00" stroke="None">
<path d="
M 170.00 82.00 
C 170.84 82.24 171.50 84.25 171.00 85.00
C 172.54 84.21 171.28 83.15 172.00 82.00
C 172.87 80.61 174.49 81.11 176.00 81.00
C 176.28 79.72 175.24 77.50 177.00 77.00
C 177.13 76.02 176.89 74.99 177.00 74.00
C 173.64 73.77 175.45 78.01 175.00 80.00
C 171.12 77.52 172.20 78.64 170.00 82.00 Z"/>
</g>
<g fill="#020701" fill-opacity="1.00" stroke="None">
<path d="
M 177.00 77.00 
C 177.25 76.84 179.73 76.87 180.00 77.00
C 181.63 77.80 181.32 83.31 181.00 85.00
C 181.86 84.65 183.11 85.28 184.00 85.00
L 184.00 74.00
C 181.95 74.65 178.95 73.14 177.00 74.00
C 176.89 74.99 177.13 76.02 177.00 77.00 Z"/>
</g>
<g fill="#132B22" fill-opacity="1.00" stroke="None">
<path d="
M 123.00 80.00 
C 124.73 81.61 127.58 82.09 128.00 85.00
C 127.11 81.73 130.15 82.18 132.00 81.00
C 132.95 77.12 128.83 76.48 126.00 77.00
C 126.46 79.10 125.21 80.71 123.00 80.00
M 131.00 78.00 
C 130.09 84.82 123.37 76.66 131.00 78.00 Z"/>
</g>
<g fill="#20322A" fill-opacity="0.85" stroke="None">
<path d="
M 135.00 78.00 
C 137.10 77.54 138.71 78.79 138.00 81.00
C 134.95 80.36 133.97 82.45 134.00 85.00
C 134.01 85.89 135.35 88.66 136.00 89.00
C 134.89 84.90 141.34 86.65 140.00 82.00
C 139.65 81.93 138.99 81.33 139.00 81.00
C 139.00 79.67 139.00 78.33 139.00 77.00
C 138.56 76.35 134.51 77.57 135.00 78.00
M 139.00 82.00 
C 140.53 83.52 137.06 86.61 135.33 84.67 C 133.59 82.72 137.76 80.76 139.00 82.00 Z"/>
</g>
<g fill="#5D8F74" fill-opacity="1.00" stroke="None">
<path d="
M 172.00 82.00 
C 173.19 80.72 178.61 80.77 179.00 78.00
C 179.00 80.33 179.00 82.67 179.00 85.00
C 180.26 82.79 180.11 79.86 180.00 77.00
C 179.73 76.87 177.25 76.84 177.00 77.00
C 175.24 77.50 176.28 79.72 176.00 81.00
C 174.49 81.11 172.87 80.61 172.00 82.00 Z"/>
</g>
<g fill="#1B3223" fill-opacity="0.98" stroke="None">
<path d="
M 179.00 85.00 
C 178.71 85.51 173.63 85.67 176.00 89.00
C 174.72 89.28 172.50 88.24 172.00 90.00
C 171.91 90.14 171.95 92.98 172.00 93.00
C 173.33 92.97 174.67 93.03 176.00 93.00
C 176.28 91.72 175.24 89.50 177.00 89.00
C 177.48 88.35 176.62 86.72 177.00 86.00
C 179.03 85.36 179.06 87.69 179.00 89.00
C 179.61 88.70 180.91 85.48 181.00 85.00
C 181.32 83.31 181.63 77.80 180.00 77.00
C 180.11 79.86 180.26 82.79 179.00 85.00 Z"/>
</g>
<g fill="#2B5D4C" fill-opacity="1.00" stroke="None">
<path d="
M 131.00 78.00 
C 123.37 76.66 130.09 84.82 131.00 78.00 Z"/>
</g>
<g fill="#76C39A" fill-opacity="1.00" stroke="None">
<path d="
M 172.00 82.00 
C 171.28 83.15 172.54 84.21 171.00 85.00
C 169.37 85.84 166.62 83.60 168.00 82.00
C 166.46 82.46 167.20 84.41 166.00 85.00
C 167.88 85.14 168.76 87.05 168.00 89.00
C 168.05 90.32 164.77 90.10 164.00 90.00
C 164.37 91.22 163.72 92.75 164.00 94.00
C 162.67 94.00 161.33 94.00 160.00 94.00
C 161.03 101.08 150.51 95.04 151.00 102.00
C 145.43 103.35 135.37 98.58 134.00 106.00
C 130.33 106.00 126.67 106.00 123.00 106.00
C 123.00 106.39 123.26 108.76 123.00 109.00
C 126.67 109.00 130.33 109.00 134.00 109.00
C 134.51 101.37 145.81 106.49 151.00 105.00
C 149.97 99.99 155.90 100.99 159.00 101.00
C 157.97 95.99 163.90 96.99 167.00 97.00
C 166.13 92.67 171.41 93.39 172.00 90.00
C 172.50 88.24 174.72 89.28 176.00 89.00
C 173.63 85.67 178.71 85.51 179.00 85.00
C 179.00 82.67 179.00 80.33 179.00 78.00
C 178.61 80.77 173.19 80.72 172.00 82.00 Z"/>
</g>
<g fill="#576157" fill-opacity="0.08" stroke="None">
<path d="
M 140.00 82.00 
C 142.26 82.42 144.72 81.69 147.00 82.00
C 146.24 80.46 140.62 80.48 139.00 81.00
C 138.99 81.33 139.65 81.93 140.00 82.00 Z"/>
</g>
<g fill="#2D594D" fill-opacity="1.00" stroke="None">
<path d="
M 139.00 82.00 
C 137.76 80.76 133.59 82.72 135.33 84.67 C 137.06 86.61 140.53 83.52 139.00 82.00 Z"/>
</g>
<g fill="#010501" fill-opacity="1.00" stroke="None">
<path d="
M 136.00 89.00 
C 137.63 89.85 141.14 88.75 143.00 89.00
C 142.73 87.73 143.21 86.29 143.00 85.00
C 144.33 85.00 145.67 85.00 147.00 85.00
C 147.13 84.89 147.09 82.19 147.00 82.00
C 144.72 81.69 142.26 82.42 140.00 82.00
C 141.34 86.65 134.89 84.90 136.00 89.00 Z"/>
</g>
<g fill="#556258" fill-opacity="0.47" stroke="None">
<path d="
M 147.00 85.00 
C 147.25 85.09 148.01 85.98 148.00 86.00
C 148.11 85.74 150.69 86.15 151.00 86.00
C 151.27 85.87 151.65 85.11 152.00 85.00
C 152.48 84.65 151.62 82.48 152.00 82.00
C 150.98 82.05 149.57 84.64 147.00 85.00 Z"/>
</g>
<g fill="#030A04" fill-opacity="1.00" stroke="None">
<path d="
M 152.00 85.00 
C 152.92 84.72 154.07 85.22 155.00 85.00
C 153.21 83.98 156.05 81.79 152.00 82.00
C 151.62 82.48 152.48 84.65 152.00 85.00 Z"/>
</g>
<g fill="#010C03" fill-opacity="1.00" stroke="None">
<path d="
M 171.00 85.00 
C 171.50 84.25 170.84 82.24 170.00 82.00
C 169.54 81.87 168.46 81.86 168.00 82.00
C 166.62 83.60 169.37 85.84 171.00 85.00 Z"/>
</g>
<g fill="#70BA93" fill-opacity="1.00" stroke="None">
<path d="
M 48.00 106.00 
C 48.78 111.46 53.53 111.69 53.00 118.00
C 49.96 117.10 48.27 119.02 49.00 122.00
C 51.56 122.53 54.42 121.60 57.00 122.00
C 57.00 119.33 57.00 116.67 57.00 114.00
C 52.14 116.01 53.77 108.64 49.00 110.00
C 49.61 100.91 52.87 111.03 57.00 110.00
C 57.65 104.84 55.69 98.34 58.00 94.00
C 58.35 93.77 59.65 93.77 60.00 94.00
C 63.01 95.96 60.42 104.27 61.00 108.00 C 61.58 111.73 61.00 118.95 61.00 123.00
C 61.23 123.67 62.71 124.72 62.00 126.00
C 65.67 126.00 69.33 126.00 73.00 126.00
C 73.00 118.00 73.00 110.00 73.00 102.00
C 71.67 102.00 70.33 102.00 69.00 102.00
C 67.29 108.90 73.97 124.77 62.00 122.00
C 61.22 112.45 63.04 108.07 62.00 98.00 C 60.95 87.93 52.09 98.13 56.00 106.00
C 52.09 103.28 47.83 99.82 49.00 93.00
C 43.44 94.49 45.22 88.33 45.00 85.00
C 43.67 85.00 42.33 85.00 41.00 85.00
C 41.00 87.67 41.00 90.33 41.00 93.00
C 46.03 92.02 45.03 97.87 45.00 101.00
C 50.16 99.51 47.81 104.68 48.00 106.00 Z"/>
</g>
<g fill="#2B4F3D" fill-opacity="1.00" stroke="None">
<path d="
M 143.00 89.00 
C 143.00 89.00 143.10 89.52 143.00 90.00
C 143.00 91.33 143.00 92.67 143.00 94.00
C 148.49 93.16 154.57 95.13 160.00 94.00
C 161.33 94.00 162.67 94.00 164.00 94.00
C 163.72 92.75 164.37 91.22 164.00 90.00
C 163.51 89.94 163.00 90.00 163.00 90.00
C 163.05 91.00 162.96 92.00 163.00 93.00
C 156.67 93.00 150.33 93.00 144.00 93.00
C 142.67 88.96 149.62 90.56 148.00 86.00
C 148.01 85.98 147.25 85.09 147.00 85.00
C 145.67 85.00 144.33 85.00 143.00 85.00
C 143.21 86.29 142.73 87.73 143.00 89.00 Z"/>
</g>
<g fill="#1D3930" fill-opacity="1.00" stroke="None">
<path d="
M 151.00 86.00 
C 149.61 92.56 154.80 88.09 156.00 87.00
C 154.74 87.77 154.26 89.86 152.00 89.00
C 150.82 85.93 154.02 86.64 155.00 85.00
C 154.07 85.22 152.92 84.72 152.00 85.00
C 151.65 85.11 151.27 85.87 151.00 86.00 Z"/>
</g>
<g fill="#365B4E" fill-opacity="0.74" stroke="None">
<path d="
M 156.00 87.00 
C 156.81 86.51 157.61 85.50 159.00 86.00
C 157.77 84.22 156.52 85.87 155.00 85.00
C 154.02 86.64 150.82 85.93 152.00 89.00
C 154.26 89.86 154.74 87.77 156.00 87.00 Z"/>
</g>
<g fill="#A6BAA7" fill-opacity="0.63" stroke="None">
<path d="
M 162.00 89.00 
C 162.40 89.20 163.50 89.00 164.00 89.00
C 163.94 88.99 164.00 86.21 164.00 86.00
C 164.00 85.50 164.00 85.00 164.00 85.00
C 162.57 86.06 163.38 87.92 162.00 89.00 Z"/>
</g>
<g fill="#3C4E3E" fill-opacity="0.74" stroke="None">
<path d="
M 164.00 86.00 
C 166.47 85.85 167.15 86.46 167.00 89.00
C 167.50 89.00 168.00 89.00 168.00 89.00
C 168.76 87.05 167.88 85.14 166.00 85.00
C 165.60 85.20 164.16 84.77 164.00 85.00
C 164.00 85.00 164.00 85.50 164.00 86.00 Z"/>
</g>
<g fill="#000000" fill-opacity="0.00" stroke="None">
<path d="
M 179.00 89.00 
C 178.60 89.20 177.18 88.76 177.00 89.00
C 175.24 89.50 176.28 91.72 176.00 93.00
C 174.67 93.03 173.33 92.97 172.00 93.00
C 171.97 92.99 171.35 93.95 171.00 94.00
C 170.16 97.04 171.10 96.15 168.00 97.00
C 167.95 97.35 167.34 97.98 167.00 98.00
C 166.85 98.98 167.12 100.02 167.00 101.00
C 164.67 101.00 162.33 101.00 160.00 101.00
C 159.97 101.35 159.12 101.74 159.00 102.00
C 158.81 102.41 159.00 103.00 159.00 103.00
C 158.52 106.28 154.64 104.66 152.00 105.00
C 151.91 105.35 151.12 105.74 151.00 106.00
C 150.81 106.41 151.00 107.00 151.00 107.00
C 150.47 110.63 139.34 109.00 136.00 109.00
C 135.50 109.00 135.00 109.00 135.00 109.00
C 134.75 109.25 135.00 110.00 135.00 110.00
C 135.21 111.58 135.29 113.09 134.00 114.00
C 131.34 115.89 125.00 112.58 122.00 114.00
C 122.00 118.00 122.00 122.00 122.00 126.00
C 121.00 126.00 120.00 126.00 119.00 126.00
C 118.95 126.35 118.35 126.95 118.00 127.00
C 118.50 127.52 117.60 129.39 118.00 130.00
L 184.00 130.00
L 184.00 85.00
C 183.11 85.28 181.86 84.65 181.00 85.00
C 180.91 85.48 179.61 88.70 179.00 89.00 Z"/>
</g>
<g fill="#000502" fill-opacity="1.00" stroke="None">
<path d="
M 163.00 90.00 
C 162.24 90.00 160.70 90.28 160.00 90.00
C 157.98 89.80 159.64 86.93 159.00 86.00
C 157.61 85.50 156.81 86.51 156.00 87.00
C 154.80 88.09 149.61 92.56 151.00 86.00
C 150.69 86.15 148.11 85.74 148.00 86.00
C 149.62 90.56 142.67 88.96 144.00 93.00
C 150.33 93.00 156.67 93.00 163.00 93.00
C 162.96 92.00 163.05 91.00 163.00 90.00 Z"/>
</g>
<g fill="#040A03" fill-opacity="1.00" stroke="None">
<path d="
M 164.00 89.00 
C 165.00 89.00 166.00 89.00 167.00 89.00
C 167.15 86.46 166.47 85.85 164.00 86.00
C 164.00 86.21 163.94 88.99 164.00 89.00 Z"/>
</g>
<g fill="#000802" fill-opacity="0.97" stroke="None">
<path d="
M 177.00 89.00 
C 177.18 88.76 178.60 89.20 179.00 89.00
C 179.06 87.69 179.03 85.36 177.00 86.00
C 176.62 86.72 177.48 88.35 177.00 89.00 Z"/>
</g>
<g fill="#5B7666" fill-opacity="0.77" stroke="None">
<path d="
M 160.00 90.00 
C 160.70 90.28 162.24 90.00 163.00 90.00
C 163.00 90.00 163.51 89.94 164.00 90.00
C 164.77 90.10 168.05 90.32 168.00 89.00
C 168.00 89.00 167.50 89.00 167.00 89.00
C 166.00 89.00 165.00 89.00 164.00 89.00
C 163.50 89.00 162.40 89.20 162.00 89.00
C 161.81 88.90 159.40 89.40 160.00 90.00 Z"/>
</g>
<g fill="#53886B" fill-opacity="1.00" stroke="None">
<path d="
M 123.00 109.00 
C 125.50 110.85 131.66 110.30 135.00 110.00
C 135.00 110.00 134.75 109.25 135.00 109.00
C 134.88 108.01 135.09 106.99 135.00 106.00
C 140.33 106.00 145.67 106.00 151.00 106.00
C 151.12 105.74 151.91 105.35 152.00 105.00
C 152.12 104.53 151.77 103.35 152.00 103.00
C 153.19 101.18 156.99 102.13 159.00 102.00
C 159.12 101.74 159.97 101.35 160.00 101.00
C 160.08 100.01 159.94 98.99 160.00 98.00
C 162.33 98.00 164.67 98.00 167.00 98.00
C 167.34 97.98 167.95 97.35 168.00 97.00
C 168.44 94.14 168.08 94.45 171.00 94.00
C 171.35 93.95 171.97 92.99 172.00 93.00
C 171.95 92.98 171.91 90.14 172.00 90.00
C 171.41 93.39 166.13 92.67 167.00 97.00
C 163.90 96.99 157.97 95.99 159.00 101.00
C 155.90 100.99 149.97 99.99 151.00 105.00
C 145.81 106.49 134.51 101.37 134.00 109.00
C 130.33 109.00 126.67 109.00 123.00 109.00 Z"/>
</g>
<g fill="#3C654D" fill-opacity="1.00" stroke="None">
<path d="
M 114.00 98.00 
C 115.33 98.00 116.67 98.00 118.00 98.00
C 118.00 107.33 118.00 116.67 118.00 126.00
C 114.33 126.00 110.67 126.00 107.00 126.00
C 107.00 124.67 107.00 123.33 107.00 122.00
C 106.99 122.08 106.00 122.00 106.00 122.00
C 105.52 123.52 106.36 125.45 106.00 127.00
C 110.00 127.00 114.00 127.00 118.00 127.00
C 118.35 126.95 118.95 126.35 119.00 126.00
C 120.18 117.80 120.12 106.21 119.00 98.00
C 118.16 91.88 114.83 91.92 114.00 98.00
M 118.00 94.00 
C 119.21 95.21 116.94 98.27 115.32 96.66 C 113.70 95.05 116.88 92.88 118.00 94.00 Z"/>
</g>
<g fill="#010601" fill-opacity="1.00" stroke="None">
<path d="
M 57.00 130.00 
L 73.00 130.00
C 73.00 129.00 73.00 128.00 73.00 127.00
C 69.17 126.37 64.01 128.28 61.00 126.00
C 57.62 122.62 61.47 115.55 60.00 111.00 C 58.53 106.45 61.97 98.44 60.00 94.00
C 59.65 93.77 58.35 93.77 58.00 94.00
C 55.82 98.91 62.15 110.68 54.00 111.00
C 56.64 113.00 60.37 117.97 57.00 122.00
C 51.82 124.29 43.22 124.37 44.00 117.00 C 44.78 109.63 43.51 106.32 48.00 102.00
C 42.97 102.98 43.97 97.13 44.00 94.00
C 43.03 93.85 41.96 94.18 41.00 94.00
C 41.00 104.67 41.00 115.33 41.00 126.00
C 46.33 126.00 51.67 126.00 57.00 126.00
C 57.00 127.33 57.00 128.67 57.00 130.00 Z"/>
</g>
<g fill="#0F2618" fill-opacity="1.00" stroke="None">
<path d="
M 57.00 122.00 
C 60.37 117.97 56.64 113.00 54.00 111.00
C 62.15 110.68 55.82 98.91 58.00 94.00
C 55.69 98.34 57.65 104.84 57.00 110.00
C 52.87 111.03 49.61 100.91 49.00 110.00
C 53.77 108.64 52.14 116.01 57.00 114.00
C 57.00 116.67 57.00 119.33 57.00 122.00 Z"/>
</g>
<g fill="#17251C" fill-opacity="1.00" stroke="None">
<path d="
M 61.00 126.00 
C 60.71 125.40 61.00 123.68 61.00 123.00
C 61.00 118.95 61.58 111.73 61.00 108.00 C 60.42 104.27 63.01 95.96 60.00 94.00
C 61.97 98.44 58.53 106.45 60.00 111.00 C 61.47 115.55 57.62 122.62 61.00 126.00 Z"/>
</g>
<g fill="#011002" fill-opacity="1.00" stroke="None">
<path d="
M 118.00 94.00 
C 116.88 92.88 113.70 95.05 115.32 96.66 C 116.94 98.27 119.21 95.21 118.00 94.00 Z"/>
</g>
<g fill="#000B01" fill-opacity="0.97" stroke="None">
<path d="
M 168.00 97.00 
C 171.10 96.15 170.16 97.04 171.00 94.00
C 168.08 94.45 168.44 94.14 168.00 97.00 Z"/>
</g>
<g fill="#7BA590" fill-opacity="1.00" stroke="None">
<path d="
M 73.00 98.00 
C 73.13 97.78 74.00 98.00 74.00 98.00
C 75.00 98.00 76.00 98.00 77.00 98.00
C 77.50 98.00 78.00 98.00 78.00 98.00
C 76.92 96.53 74.08 96.52 73.00 98.00 Z"/>
</g>
<g fill="#315C45" fill-opacity="1.00" stroke="None">
<path d="
M 73.00 102.00 
C 73.00 110.00 73.00 118.00 73.00 126.00
C 69.33 126.00 65.67 126.00 62.00 126.00
C 62.71 124.72 61.23 123.67 61.00 123.00
C 61.00 123.68 60.71 125.40 61.00 126.00
C 64.01 128.28 69.17 126.37 73.00 127.00
C 73.00 128.00 73.00 129.00 73.00 130.00
L 74.00 130.00
C 73.20 128.42 74.92 127.34 75.00 126.00
C 75.45 118.29 74.76 106.44 74.00 98.00
C 74.00 98.00 73.13 97.78 73.00 98.00
C 72.57 98.71 73.00 101.15 73.00 102.00 Z"/>
</g>
<g fill="#020702" fill-opacity="1.00" stroke="None">
<path d="
M 75.00 126.00 
C 75.42 125.82 76.65 126.23 77.00 126.00
C 78.07 123.58 75.52 119.74 78.00 118.00
C 80.68 116.12 86.99 119.41 90.00 118.00
C 87.04 127.27 95.42 126.51 102.00 126.00
C 102.00 127.33 102.00 128.67 102.00 130.00
L 118.00 130.00
C 117.60 129.39 118.50 127.52 118.00 127.00
C 114.00 127.00 110.00 127.00 106.00 127.00
C 106.36 125.45 105.52 123.52 106.00 122.00
C 105.62 117.85 108.31 106.25 106.00 103.00
C 105.00 103.00 104.00 103.00 103.00 103.00
C 108.44 119.92 87.21 115.16 78.00 114.00
C 75.61 111.61 76.68 101.55 77.00 98.00
C 76.00 98.00 75.00 98.00 74.00 98.00
C 74.76 106.44 75.45 118.29 75.00 126.00
M 94.00 118.00 
C 96.52 117.77 99.48 117.77 102.00 118.00
C 108.91 124.72 87.05 124.76 94.00 118.00 Z"/>
</g>
<g fill="#3F604F" fill-opacity="1.00" stroke="None">
<path d="
M 78.00 114.00 
C 78.00 112.67 78.00 111.33 78.00 110.00
C 78.00 106.05 78.35 101.93 78.00 98.00
C 78.00 98.00 77.50 98.00 77.00 98.00
C 76.68 101.55 75.61 111.61 78.00 114.00 Z"/>
</g>
<g fill="#6EC498" fill-opacity="1.00" stroke="None">
<path d="
M 107.00 122.00 
C 107.00 123.33 107.00 124.67 107.00 126.00
C 110.67 126.00 114.33 126.00 118.00 126.00
C 118.00 116.67 118.00 107.33 118.00 98.00
C 116.67 98.00 115.33 98.00 114.00 98.00
C 114.00 106.00 114.00 114.00 114.00 122.00
C 111.67 122.00 109.33 122.00 107.00 122.00 Z"/>
</g>
<g fill="#010601" fill-opacity="0.99" stroke="None">
<path d="
M 119.00 126.00 
C 120.00 126.00 121.00 126.00 122.00 126.00
C 122.00 122.00 122.00 118.00 122.00 114.00
C 125.00 112.58 131.34 115.89 134.00 114.00
C 134.00 113.00 134.00 112.00 134.00 111.00
C 130.19 110.15 124.27 112.98 122.00 109.00
C 121.67 105.36 122.25 101.64 122.00 98.00
C 121.45 97.73 119.39 98.44 119.00 98.00
C 120.12 106.21 120.18 117.80 119.00 126.00 Z"/>
</g>
<g fill="#2B5240" fill-opacity="1.00" stroke="None">
<path d="
M 122.00 109.00 
C 122.00 109.04 123.00 109.00 123.00 109.00
C 123.26 108.76 123.00 106.39 123.00 106.00
C 123.00 104.12 123.87 98.92 122.00 98.00
C 122.25 101.64 121.67 105.36 122.00 109.00 Z"/>
</g>
<g fill="#000802" fill-opacity="0.97" stroke="None">
<path d="
M 160.00 101.00 
C 162.33 101.00 164.67 101.00 167.00 101.00
C 167.12 100.02 166.85 98.98 167.00 98.00
C 164.67 98.00 162.33 98.00 160.00 98.00
C 159.94 98.99 160.08 100.01 160.00 101.00 Z"/>
</g>
<g fill="#678F7B" fill-opacity="1.00" stroke="None">
<path d="
M 102.00 102.00 
C 103.67 102.00 105.00 101.59 106.00 103.00
C 108.31 106.25 105.62 117.85 106.00 122.00
C 106.00 122.00 106.99 122.08 107.00 122.00
C 107.35 118.15 105.97 111.53 107.00 108.00 C 108.03 104.47 104.80 97.74 102.00 102.00 Z"/>
</g>
<g fill="#143121" fill-opacity="1.00" stroke="None">
<path d="
M 102.00 110.00 
C 101.74 111.28 102.20 112.71 102.00 114.00
C 94.00 114.00 86.00 114.00 78.00 114.00
C 87.21 115.16 108.44 119.92 103.00 103.00
C 104.00 103.00 105.00 103.00 106.00 103.00
C 105.00 101.59 103.67 102.00 102.00 102.00
C 100.92 103.64 102.41 108.02 102.00 110.00 Z"/>
</g>
<g fill="#0B2315" fill-opacity="1.00" stroke="None">
<path d="
M 152.00 103.00 
C 153.43 102.12 157.29 103.23 159.00 103.00
C 159.00 103.00 158.81 102.41 159.00 102.00
C 156.99 102.13 153.19 101.18 152.00 103.00 Z"/>
</g>
<g fill="#000401" fill-opacity="0.96" stroke="None">
<path d="
M 152.00 105.00 
C 154.64 104.66 158.52 106.28 159.00 103.00
C 157.29 103.23 153.43 102.12 152.00 103.00
C 151.77 103.35 152.12 104.53 152.00 105.00 Z"/>
</g>
<g fill="#99DAB8" fill-opacity="1.00" stroke="None">
<path d="
M 49.00 122.00 
C 48.27 119.02 49.96 117.10 53.00 118.00
C 53.53 111.69 48.78 111.46 48.00 106.00
C 47.00 106.00 46.00 106.00 45.00 106.00
C 45.00 111.33 45.00 116.67 45.00 122.00
C 46.29 122.20 47.72 121.74 49.00 122.00 Z"/>
</g>
<g fill="#152D1E" fill-opacity="1.00" stroke="None">
<path d="
M 135.00 109.00 
C 135.00 109.00 135.50 109.00 136.00 109.00
C 137.05 105.09 147.24 107.34 151.00 107.00
C 151.00 107.00 150.81 106.41 151.00 106.00
C 145.67 106.00 140.33 106.00 135.00 106.00
C 135.09 106.99 134.88 108.01 135.00 109.00 Z"/>
</g>
<g fill="#010400" fill-opacity="0.96" stroke="None">
<path d="
M 136.00 109.00 
C 139.34 109.00 150.47 110.63 151.00 107.00
C 147.24 107.34 137.05 105.09 136.00 109.00 Z"/>
</g>
<g fill="#1A2E1E" fill-opacity="1.00" stroke="None">
<path d="
M 134.00 114.00 
C 135.29 113.09 135.21 111.58 135.00 110.00
C 131.66 110.30 125.50 110.85 123.00 109.00
C 123.00 109.00 122.00 109.04 122.00 109.00
C 124.27 112.98 130.19 110.15 134.00 111.00
C 134.00 112.00 134.00 113.00 134.00 114.00 Z"/>
</g>
<g fill="#6CBE94" fill-opacity="1.00" stroke="None">
<path d="
M 78.00 114.00 
C 86.00 114.00 94.00 114.00 102.00 114.00
C 102.20 112.71 101.74 111.28 102.00 110.00
C 94.00 110.00 86.00 110.00 78.00 110.00
C 78.00 111.33 78.00 112.67 78.00 114.00 Z"/>
</g>
<g fill="#465545" fill-opacity="0.99" stroke="None">
<path d="
M 77.00 126.00 
C 79.24 124.54 77.37 120.28 78.00 118.00
C 75.52 119.74 78.07 123.58 77.00 126.00 Z"/>
</g>
<g fill="#000000" fill-opacity="0.00" stroke="None">
<path d="
M 77.00 126.00 
C 76.65 126.23 75.42 125.82 75.00 126.00
C 74.92 127.34 73.20 128.42 74.00 130.00
L 102.00 130.00
C 102.00 128.67 102.00 127.33 102.00 126.00
C 95.42 126.51 87.04 127.27 90.00 118.00
C 86.99 119.41 80.68 116.12 78.00 118.00
C 77.37 120.28 79.24 124.54 77.00 126.00 Z"/>
</g>
<g fill="#2A4436" fill-opacity="1.00" stroke="None">
<path d="
M 102.00 118.00 
C 102.04 118.00 102.00 119.00 102.00 119.00
C 102.12 119.99 101.91 121.01 102.00 122.00
C 99.21 121.43 93.13 123.87 94.00 119.00
C 94.06 118.51 94.00 118.00 94.00 118.00
C 87.05 124.76 108.91 124.72 102.00 118.00 Z"/>
</g>
<g fill="#59856D" fill-opacity="1.00" stroke="None">
<path d="
M 94.00 119.00 
C 96.52 119.23 99.48 119.23 102.00 119.00
C 102.00 119.00 102.04 118.00 102.00 118.00
C 99.48 117.77 96.52 117.77 94.00 118.00
C 94.00 118.00 94.06 118.51 94.00 119.00 Z"/>
</g>
<g fill="#87C5A5" fill-opacity="1.00" stroke="None">
<path d="
M 102.00 119.00 
C 99.48 119.23 96.52 119.23 94.00 119.00
C 93.13 123.87 99.21 121.43 102.00 122.00
C 101.91 121.01 102.12 119.99 102.00 119.00 Z"/>
</g>
</svg>