<svg xmlns="http://www.w3.org/2000/svg" xmlns:v="https://svgstorm.com"
viewBox = "0 0 151 126"
width="151"
height="126">
<g fill="None" fill-opacity="0.0" stroke="#000000" stroke-opacity="0.00" stroke-width="0.3"><path d="
M 0.00 16.00 
C 0.84 15.68 2.19 16.40 3.00 16.00
C 3.05 15.65 3.65 15.05 4.00 15.00
C 4.84 11.96 3.90 12.85 7.00 12.00
C 7.05 11.65 7.65 11.05 8.00 11.00
C 8.84 7.96 7.90 8.85 11.00 8.00
C 11.05 7.65 11.65 7.05 12.00 7.00
C 12.15 6.02 11.88 4.98 12.00 4.00
C 14.67 4.00 17.33 4.00 20.00 4.00
C 20.23 3.95 20.65 3.05 21.00 3.00
C 21.38 2.83 20.70 0.34 21.00 0.00
L 0.00 0.00
L 0.00 16.00 Z"/>
</g>
<g fill="None" fill-opacity="0.0" stroke="#020704" stroke-opacity="0.97" stroke-width="0.3"><path d="
M 21.00 3.00 
C 29.82 1.73 39.14 3.95 48.00 3.00
C 48.00 2.00 48.00 1.00 48.00 0.00
L 21.00 0.00
C 20.70 0.34 21.38 2.83 21.00 3.00 Z"/>
</g>
<g fill="None" fill-opacity="0.0" stroke="#436E6D" stroke-opacity="1.00" stroke-width="0.3"><path d="
M 21.00 3.00 
C 20.65 3.05 20.23 3.95 20.00 4.00
C 20.27 3.75 21.00 4.00 21.00 4.00
C 30.00 4.00 39.00 4.00 48.00 4.00
C 47.28 6.54 49.50 8.64 52.00 8.00
C 52.49 7.93 53.00 8.00 53.00 8.00
C 53.50 8.00 54.00 8.00 54.00 8.00
C 53.77 7.95 53.35 7.03 53.00 7.00
C 52.50 6.95 52.00 7.00 52.00 7.00
C 47.74 7.24 50.31 5.49 50.00 4.00
C 49.74 2.72 48.38 1.56 49.00 0.00
L 48.00 0.00
C 48.00 1.00 48.00 2.00 48.00 3.00
C 39.14 3.95 29.82 1.73 21.00 3.00 Z"/>
</g>
<g fill="None" fill-opacity="0.0" stroke="#000000" stroke-opacity="0.00" stroke-width="0.3"><path d="
M 50.00 4.00 
C 50.42 4.18 51.54 3.87 52.00 4.00
C 53.57 4.45 52.48 5.98 53.00 7.00
C 53.35 7.03 53.77 7.95 54.00 8.00
C 59.00 8.00 64.00 8.00 69.00 8.00
C 69.00 12.00 69.00 16.00 69.00 20.00
C 71.79 20.57 77.87 18.13 77.00 23.00
C 77.03 23.21 77.95 23.65 78.00 24.00
C 78.98 24.15 80.02 23.88 81.00 24.00
C 81.00 28.33 81.00 32.67 81.00 37.00
C 83.79 37.57 89.87 35.13 89.00 40.00
C 89.35 40.07 89.74 40.88 90.00 41.00
C 90.41 41.19 91.00 41.00 91.00 41.00
C 95.23 41.62 91.96 49.85 93.00 53.00
C 96.00 53.00 99.00 53.00 102.00 53.00
C 102.00 54.00 102.00 55.00 102.00 56.00
C 103.10 56.20 105.53 57.03 106.00 58.00
C 107.53 61.14 105.45 62.63 103.00 63.00
C 103.02 63.33 102.12 63.74 102.00 64.00
C 101.95 64.50 102.00 65.00 102.00 65.00
C 102.00 65.50 102.00 66.00 102.00 66.00
C 102.00 67.64 101.44 70.48 102.00 72.00
C 102.09 72.25 102.77 72.95 103.00 73.00
C 108.45 72.21 115.51 72.50 121.00 73.00
C 121.46 72.17 122.01 70.51 123.00 70.00
C 124.49 69.24 127.34 70.35 129.00 70.00
C 128.76 69.69 129.00 69.00 129.00 69.00
C 129.25 67.45 130.74 65.86 130.00 64.00
C 131.83 64.23 133.47 63.93 135.00 63.00
C 138.10 60.24 141.32 56.62 144.00 53.00
C 146.33 53.00 148.67 53.00 151.00 53.00
L 151.00 0.00
L 49.00 0.00
C 48.38 1.56 49.74 2.72 50.00 4.00 Z"/>
</g>
<g fill="None" fill-opacity="0.0" stroke="#020C08" stroke-opacity="0.97" stroke-width="0.3"><path d="
M 12.00 7.00 
C 14.42 6.65 17.56 6.78 20.00 7.00
C 20.00 6.61 19.74 4.24 20.00 4.00
C 17.33 4.00 14.67 4.00 12.00 4.00
C 11.88 4.98 12.15 6.02 12.00 7.00 Z"/>
</g>
<g fill="None" fill-opacity="0.0" stroke="#72AAAD" stroke-opacity="1.00" stroke-width="0.3"><path d="
M 20.00 7.00 
C 20.00 7.50 20.00 8.00 20.00 8.00
C 21.18 8.04 21.31 4.68 21.00 4.00
C 21.00 4.00 20.27 3.75 20.00 4.00
C 19.74 4.24 20.00 6.61 20.00 7.00 Z"/>
</g>
<g fill="None" fill-opacity="0.0" stroke="#A4E3E5" stroke-opacity="1.00" stroke-width="0.3"><path d="
M 20.00 8.00 
C 17.35 8.24 14.65 7.82 12.00 8.00
C 11.39 12.02 8.14 15.37 4.00 16.00
C 4.00 21.33 4.00 26.67 4.00 32.00
C 8.02 32.61 11.37 35.86 12.00 40.00
C 20.00 40.00 28.00 40.00 36.00 40.00
C 35.10 36.96 37.02 35.27 40.00 36.00
C 39.34 33.03 39.10 13.93 45.00 20.00
C 45.46 25.04 45.46 30.96 45.00 36.00
C 45.04 37.17 41.67 37.32 41.00 37.00
C 41.44 38.47 40.84 39.16 40.00 40.00
C 39.48 40.52 38.02 41.69 37.00 41.00
C 36.96 44.15 38.49 43.85 41.00 45.00
C 41.00 53.00 41.00 61.00 41.00 69.00
C 41.00 75.67 41.00 82.33 41.00 89.00
C 44.78 87.76 45.54 90.98 45.00 94.00
C 49.02 94.61 52.37 97.86 53.00 102.00
C 55.33 102.00 57.67 102.00 60.00 102.00
C 60.50 101.95 61.00 102.00 61.00 102.00
C 61.16 100.26 60.03 95.37 61.00 94.00
C 61.64 93.10 63.81 92.43 65.00 93.00
C 64.92 92.74 64.83 90.16 65.00 90.00
C 67.81 87.11 71.88 91.20 69.00 94.00
C 68.68 94.34 66.18 93.61 66.00 94.00
C 67.25 99.61 66.52 108.26 66.00 114.00
C 66.39 114.00 68.76 113.74 69.00 114.00
C 70.61 115.55 70.21 119.68 70.00 122.00
C 75.00 122.00 80.00 122.00 85.00 122.00
C 84.67 121.28 84.67 117.95 86.00 118.00
C 86.24 117.74 88.61 118.00 89.00 118.00
C 88.62 113.83 90.37 104.60 89.00 101.00 C 87.63 97.40 90.83 85.57 93.00 90.00
C 95.70 92.70 92.05 98.22 94.00 101.00
C 98.00 101.00 102.00 101.00 106.00 101.00
C 106.40 100.20 105.60 98.80 106.00 98.00
C 107.15 95.66 111.95 97.71 114.00 97.00
C 112.97 91.99 118.90 92.99 122.00 93.00
C 123.05 89.12 126.36 84.99 131.00 85.00
C 131.40 84.65 130.79 82.53 131.00 82.00
C 131.31 81.22 134.38 80.26 135.00 81.00
C 135.48 80.33 134.56 78.70 135.00 78.00
C 136.30 75.96 140.35 73.36 143.00 73.00
C 143.56 70.48 141.81 66.70 144.00 65.00
C 144.58 64.72 146.58 65.45 147.00 65.00
C 147.00 64.50 147.00 64.00 147.00 64.00
C 147.22 61.69 146.84 59.32 147.00 57.00
C 146.00 57.00 145.00 57.00 144.00 57.00
C 144.39 58.50 143.87 59.13 143.00 60.00
C 141.94 61.06 141.13 60.29 140.00 61.00
C 138.28 62.60 137.85 68.39 134.74 69.74 C 131.64 71.10 132.26 70.90 131.00 74.00
C 128.33 74.00 125.67 74.00 123.00 74.00
C 122.72 74.58 123.45 76.58 123.00 77.00
C 121.26 78.81 103.15 79.33 102.00 77.00
C 101.73 76.45 102.44 74.39 102.00 74.00
C 96.85 75.64 94.98 68.32 93.00 66.00
C 91.99 65.12 90.98 65.66 90.00 65.00
C 87.78 63.51 89.62 59.31 89.00 57.00
C 87.91 56.27 87.12 57.12 86.00 56.00
C 85.39 55.39 84.43 54.15 85.00 53.00
C 84.74 53.08 82.16 53.17 82.00 53.00
C 80.06 51.13 81.41 47.59 81.00 45.00
C 76.05 46.49 77.82 40.64 74.00 40.00
C 73.02 38.00 72.75 35.62 73.00 33.00
C 67.67 34.36 68.68 28.23 64.00 28.00
C 63.90 25.00 64.83 21.57 62.00 20.00
C 61.51 18.95 60.40 17.65 61.00 16.00
C 59.14 16.00 58.24 16.23 57.00 15.00
C 56.47 14.48 55.31 13.02 56.00 12.00
C 55.61 12.00 53.24 12.26 53.00 12.00
C 51.82 12.04 51.69 8.68 52.00 8.00
C 49.50 8.64 47.28 6.54 48.00 4.00
C 39.00 4.00 30.00 4.00 21.00 4.00
C 21.31 4.68 21.18 8.04 20.00 8.00
M 49.00 12.00 
C 51.23 17.37 42.47 17.02 44.00 12.00
C 40.00 12.00 36.00 12.00 32.00 12.00
C 32.64 3.92 45.53 8.51 49.00 12.00
M 20.00 16.00 
C 20.37 17.22 19.72 18.75 20.00 20.00
C 18.72 19.72 16.50 20.76 16.00 19.00
C 15.90 18.80 15.86 16.14 16.00 16.00
C 16.60 14.50 19.33 14.62 20.00 16.00
M 32.00 24.00 
C 31.66 24.17 29.36 24.14 29.00 24.00
C 27.95 23.58 27.54 21.02 28.00 20.00
C 31.15 16.76 35.17 22.37 32.00 24.00
M 61.00 77.00 
C 60.51 76.54 61.50 74.44 61.00 74.00
C 56.31 73.81 52.41 66.72 56.33 61.33 C 60.25 55.94 64.62 68.04 62.00 72.00
C 73.31 74.90 64.17 59.70 70.00 56.00
C 77.16 54.40 72.87 69.42 74.00 73.00
C 71.03 73.71 69.75 75.01 69.00 78.00
C 66.48 77.44 62.70 79.19 61.00 77.00 Z"/>
</g>
<g fill="None" fill-opacity="0.0" stroke="#03110D" stroke-opacity="1.00" stroke-width="0.3"><path d="
M 52.00 7.00 
C 51.53 6.56 52.50 4.39 52.00 4.00
C 51.54 3.87 50.42 4.18 50.00 4.00
C 50.31 5.49 47.74 7.24 52.00 7.00 Z"/>
</g>
<g fill="None" fill-opacity="0.0" stroke="#344A33" stroke-opacity="1.00" stroke-width="0.3"><path d="
M 52.00 7.00 
C 52.00 7.00 52.50 6.95 53.00 7.00
C 52.48 5.98 53.57 4.45 52.00 4.00
C 52.50 4.39 51.53 6.56 52.00 7.00 Z"/>
</g>
<g fill="None" fill-opacity="0.0" stroke="#445E5E" stroke-opacity="1.00" stroke-width="0.3"><path d="
M 11.00 8.00 
C 10.56 10.86 10.92 10.55 8.00 11.00
C 7.65 11.05 7.05 11.65 7.00 12.00
C 6.56 14.86 6.92 14.55 4.00 15.00
C 3.65 15.05 3.05 15.65 3.00 16.00
C 2.33 20.66 2.33 27.34 3.00 32.00
C 3.05 32.35 3.88 32.74 4.00 33.00
C 6.86 33.44 6.55 33.08 7.00 36.00
C 7.05 36.35 7.88 36.74 8.00 37.00
C 10.86 37.44 10.55 37.08 11.00 40.00
C 11.05 40.35 11.88 40.74 12.00 41.00
C 19.84 42.13 28.12 40.15 36.00 41.00
C 36.00 42.00 36.00 43.00 36.00 44.00
C 36.03 44.35 36.88 44.74 37.00 45.00
C 37.99 45.08 39.01 44.94 40.00 45.00
C 40.00 53.00 40.00 61.00 40.00 69.00
C 40.50 69.00 41.00 69.00 41.00 69.00
C 41.00 61.00 41.00 53.00 41.00 45.00
C 38.49 43.85 36.96 44.15 37.00 41.00
C 37.01 40.50 37.00 40.00 37.00 40.00
C 37.07 39.00 36.95 38.00 37.00 37.00
C 39.21 36.29 40.46 37.90 40.00 40.00
C 40.84 39.16 41.44 38.47 41.00 37.00
C 40.74 36.87 40.05 36.23 40.00 36.00
C 37.02 35.27 35.10 36.96 36.00 40.00
C 28.00 40.00 20.00 40.00 12.00 40.00
C 11.37 35.86 8.02 32.61 4.00 32.00
C 4.00 26.67 4.00 21.33 4.00 16.00
C 8.14 15.37 11.39 12.02 12.00 8.00
C 14.65 7.82 17.35 8.24 20.00 8.00
C 20.00 8.00 20.00 7.50 20.00 7.00
C 17.56 6.78 14.42 6.65 12.00 7.00
C 11.65 7.05 11.05 7.65 11.00 8.00 Z"/>
</g>
<g fill="None" fill-opacity="0.0" stroke="#040F0B" stroke-opacity="0.97" stroke-width="0.3"><path d="
M 8.00 11.00 
C 10.92 10.55 10.56 10.86 11.00 8.00
C 7.90 8.85 8.84 7.96 8.00 11.00 Z"/>
</g>
<g fill="None" fill-opacity="0.0" stroke="#DCF8F9" stroke-opacity="1.00" stroke-width="0.3"><path d="
M 49.00 12.00 
C 45.53 8.51 32.64 3.92 32.00 12.00
C 36.00 12.00 40.00 12.00 44.00 12.00
C 42.47 17.02 51.23 17.37 49.00 12.00 Z"/>
</g>
<g fill="None" fill-opacity="0.0" stroke="#66979A" stroke-opacity="1.00" stroke-width="0.3"><path d="
M 53.00 12.00 
C 52.75 11.73 53.00 11.00 53.00 11.00
C 53.00 10.61 53.26 8.24 53.00 8.00
C 53.00 8.00 52.49 7.93 52.00 8.00
C 51.69 8.68 51.82 12.04 53.00 12.00 Z"/>
</g>
<g fill="None" fill-opacity="0.0" stroke="#020705" stroke-opacity="1.00" stroke-width="0.3"><path d="
M 53.00 11.00 
C 53.72 10.67 57.05 10.67 57.00 12.00
C 57.51 12.48 56.51 14.51 57.00 15.00
C 57.26 15.26 59.59 15.00 60.00 15.00
C 57.88 5.50 73.52 16.68 62.00 17.00
C 64.38 19.36 67.48 22.04 66.00 27.00
C 68.32 24.04 71.90 21.76 77.00 23.00
C 77.87 18.13 71.79 20.57 69.00 20.00
C 69.00 16.00 69.00 12.00 69.00 8.00
C 64.00 8.00 59.00 8.00 54.00 8.00
C 54.00 8.00 53.50 8.00 53.00 8.00
C 53.26 8.24 53.00 10.61 53.00 11.00 Z"/>
</g>
<g fill="None" fill-opacity="0.0" stroke="#41595D" stroke-opacity="1.00" stroke-width="0.3"><path d="
M 53.00 12.00 
C 53.24 12.26 55.61 12.00 56.00 12.00
C 56.50 12.00 57.00 12.00 57.00 12.00
C 57.05 10.67 53.72 10.67 53.00 11.00
C 53.00 11.00 52.75 11.73 53.00 12.00 Z"/>
</g>
<g fill="None" fill-opacity="0.0" stroke="#123032" stroke-opacity="1.00" stroke-width="0.3"><path d="
M 60.00 15.00 
C 60.50 15.00 61.00 15.00 61.00 15.00
C 61.05 14.00 60.96 13.00 61.00 12.00
C 63.28 11.54 65.76 12.11 65.00 15.00
C 64.18 16.32 62.47 16.00 61.00 16.00
C 60.40 17.65 61.51 18.95 62.00 20.00
C 63.12 21.59 67.30 23.29 65.00 28.00
C 66.33 28.00 67.67 28.00 69.00 28.00
C 69.00 26.35 68.58 24.97 70.00 24.00
C 71.30 23.11 75.39 24.22 77.00 24.00
C 77.00 23.50 77.00 23.00 77.00 23.00
C 71.90 21.76 68.32 24.04 66.00 27.00
C 67.48 22.04 64.38 19.36 62.00 17.00
C 73.52 16.68 57.88 5.50 60.00 15.00 Z"/>
</g>
<g fill="None" fill-opacity="0.0" stroke="#051307" stroke-opacity="0.97" stroke-width="0.3"><path d="
M 4.00 15.00 
C 6.92 14.55 6.56 14.86 7.00 12.00
C 3.90 12.85 4.84 11.96 4.00 15.00 Z"/>
</g>
<g fill="None" fill-opacity="0.0" stroke="#74A2A2" stroke-opacity="1.00" stroke-width="0.3"><path d="
M 57.00 15.00 
C 56.51 14.51 57.51 12.48 57.00 12.00
C 57.00 12.00 56.50 12.00 56.00 12.00
C 55.31 13.02 56.47 14.48 57.00 15.00 Z"/>
</g>
<g fill="None" fill-opacity="0.0" stroke="#499CA2" stroke-opacity="1.00" stroke-width="0.3"><path d="
M 61.00 15.00 
C 62.33 15.00 63.67 15.00 65.00 15.00
C 65.76 12.11 63.28 11.54 61.00 12.00
C 60.96 13.00 61.05 14.00 61.00 15.00 Z"/>
</g>
<g fill="None" fill-opacity="0.0" stroke="#729A99" stroke-opacity="1.00" stroke-width="0.3"><path d="
M 16.00 16.00 
C 16.26 15.74 18.59 16.00 19.00 16.00
C 19.50 16.00 20.00 16.00 20.00 16.00
C 19.33 14.62 16.60 14.50 16.00 16.00 Z"/>
</g>
<g fill="None" fill-opacity="0.0" stroke="#306267" stroke-opacity="1.00" stroke-width="0.3"><path d="
M 61.00 16.00 
C 62.47 16.00 64.18 16.32 65.00 15.00
C 63.67 15.00 62.33 15.00 61.00 15.00
C 61.00 15.00 60.50 15.00 60.00 15.00
C 59.59 15.00 57.26 15.26 57.00 15.00
C 58.24 16.23 59.14 16.00 61.00 16.00 Z"/>
</g>
<g fill="None" fill-opacity="0.0" stroke="#000A05" stroke-opacity="1.00" stroke-width="0.3"><path d="
M 0.00 32.00 
C 0.33 32.29 2.84 31.63 3.00 32.00
C 2.33 27.34 2.33 20.66 3.00 16.00
C 2.19 16.40 0.84 15.68 0.00 16.00
L 0.00 32.00 Z"/>
</g>
<g fill="None" fill-opacity="0.0" stroke="#051215" stroke-opacity="1.00" stroke-width="0.3"><path d="
M 16.00 19.00 
C 18.48 19.69 19.13 18.12 19.00 16.00
C 18.59 16.00 16.26 15.74 16.00 16.00
C 15.86 16.14 15.90 18.80 16.00 19.00 Z"/>
</g>
<g fill="None" fill-opacity="0.0" stroke="#294043" stroke-opacity="1.00" stroke-width="0.3"><path d="
M 16.00 19.00 
C 16.50 20.76 18.72 19.72 20.00 20.00
C 19.72 18.75 20.37 17.22 20.00 16.00
C 20.00 16.00 19.50 16.00 19.00 16.00
C 19.13 18.12 18.48 19.69 16.00 19.00 Z"/>
</g>
<g fill="None" fill-opacity="0.0" stroke="#82AAAC" stroke-opacity="1.00" stroke-width="0.3"><path d="
M 28.00 20.00 
C 28.09 19.81 29.00 20.00 29.00 20.00
C 32.00 19.51 32.24 21.46 32.00 24.00
C 35.17 22.37 31.15 16.76 28.00 20.00 Z"/>
</g>
<g fill="None" fill-opacity="0.0" stroke="#739396" stroke-opacity="1.00" stroke-width="0.3"><path d="
M 40.00 36.00 
C 40.05 36.23 40.74 36.87 41.00 37.00
C 41.67 37.32 45.04 37.17 45.00 36.00
C 45.00 36.04 44.00 36.00 44.00 36.00
C 43.01 36.12 41.99 35.91 41.00 36.00
C 41.00 30.67 41.00 25.33 41.00 20.00
C 42.00 20.00 43.00 20.00 44.00 20.00
C 44.49 20.06 45.00 20.00 45.00 20.00
C 39.10 13.93 39.34 33.03 40.00 36.00 Z"/>
</g>
<g fill="None" fill-opacity="0.0" stroke="#3B595B" stroke-opacity="1.00" stroke-width="0.3"><path d="
M 29.00 24.00 
C 28.37 23.47 29.45 20.74 29.00 20.00
C 29.00 20.00 28.09 19.81 28.00 20.00
C 27.54 21.02 27.95 23.58 29.00 24.00 Z"/>
</g>
<g fill="None" fill-opacity="0.0" stroke="#021218" stroke-opacity="1.00" stroke-width="0.3"><path d="
M 29.00 24.00 
C 29.36 24.14 31.66 24.17 32.00 24.00
C 32.24 21.46 32.00 19.51 29.00 20.00
C 29.45 20.74 28.37 23.47 29.00 24.00 Z"/>
</g>
<g fill="None" fill-opacity="0.0" stroke="#010508" stroke-opacity="1.00" stroke-width="0.3"><path d="
M 44.00 36.00 
C 43.54 30.96 43.54 25.04 44.00 20.00
C 43.00 20.00 42.00 20.00 41.00 20.00
C 41.00 25.33 41.00 30.67 41.00 36.00
C 41.99 35.91 43.01 36.12 44.00 36.00 Z"/>
</g>
<g fill="None" fill-opacity="0.0" stroke="#3D5658" stroke-opacity="1.00" stroke-width="0.3"><path d="
M 44.00 36.00 
C 44.00 36.00 45.00 36.04 45.00 36.00
C 45.46 30.96 45.46 25.04 45.00 20.00
C 45.00 20.00 44.49 20.06 44.00 20.00
C 43.54 25.04 43.54 30.96 44.00 36.00 Z"/>
</g>
<g fill="None" fill-opacity="0.0" stroke="#73AFB1" stroke-opacity="1.00" stroke-width="0.3"><path d="
M 73.00 33.00 
C 73.05 32.50 73.00 32.00 73.00 32.00
C 72.61 31.58 70.56 32.22 70.00 32.00
C 68.60 31.45 69.00 29.26 69.00 28.00
C 67.67 28.00 66.33 28.00 65.00 28.00
C 67.30 23.29 63.12 21.59 62.00 20.00
C 64.83 21.57 63.90 25.00 64.00 28.00
C 68.68 28.23 67.67 34.36 73.00 33.00 Z"/>
</g>
<g fill="None" fill-opacity="0.0" stroke="#27585B" stroke-opacity="1.00" stroke-width="0.3"><path d="
M 77.00 24.00 
C 77.00 26.67 77.00 29.33 77.00 32.00
C 73.25 33.36 74.92 29.07 73.00 28.00
C 73.36 28.29 73.00 31.46 73.00 32.00
C 73.00 32.00 73.05 32.50 73.00 33.00
C 72.75 35.62 73.02 38.00 74.00 40.00
C 73.64 36.16 73.48 32.45 78.00 32.00
C 78.00 29.33 78.00 26.67 78.00 24.00
C 77.95 23.65 77.03 23.21 77.00 23.00
C 77.00 23.00 77.00 23.50 77.00 24.00 Z"/>
</g>
<g fill="None" fill-opacity="0.0" stroke="#2E6363" stroke-opacity="1.00" stroke-width="0.3"><path d="
M 69.00 28.00 
C 69.00 29.26 68.60 31.45 70.00 32.00
C 69.64 31.71 70.00 28.54 70.00 28.00
C 70.00 26.67 70.00 25.33 70.00 24.00
C 68.58 24.97 69.00 26.35 69.00 28.00 Z"/>
</g>
<g fill="None" fill-opacity="0.0" stroke="#38ACB3" stroke-opacity="1.00" stroke-width="0.3"><path d="
M 70.00 28.00 
C 70.16 27.87 72.81 27.88 73.00 28.00
C 74.92 29.07 73.25 33.36 77.00 32.00
C 77.00 29.33 77.00 26.67 77.00 24.00
C 75.39 24.22 71.30 23.11 70.00 24.00
C 70.00 25.33 70.00 26.67 70.00 28.00 Z"/>
</g>
<g fill="None" fill-opacity="0.0" stroke="#000604" stroke-opacity="1.00" stroke-width="0.3"><path d="
M 74.00 40.00 
C 78.15 40.05 77.39 43.06 81.00 44.00
C 80.76 43.23 80.60 39.95 82.00 40.00
C 83.99 39.73 87.03 39.64 89.00 40.00
C 89.87 35.13 83.79 37.57 81.00 37.00
C 81.00 32.67 81.00 28.33 81.00 24.00
C 80.02 23.88 78.98 24.15 78.00 24.00
C 78.00 26.67 78.00 29.33 78.00 32.00
C 73.48 32.45 73.64 36.16 74.00 40.00 Z"/>
</g>
<g fill="None" fill-opacity="0.0" stroke="#041D1B" stroke-opacity="1.00" stroke-width="0.3"><path d="
M 70.00 32.00 
C 70.56 32.22 72.61 31.58 73.00 32.00
C 73.00 31.46 73.36 28.29 73.00 28.00
C 72.81 27.88 70.16 27.87 70.00 28.00
C 70.00 28.54 69.64 31.71 70.00 32.00 Z"/>
</g>
<g fill="None" fill-opacity="0.0" stroke="#769576" stroke-opacity="0.08" stroke-width="0.3"><path d="
M 0.00 33.00 
C 1.60 32.39 2.64 33.70 4.00 34.00
C 4.00 33.50 4.00 33.00 4.00 33.00
C 3.88 32.74 3.05 32.35 3.00 32.00
C 2.84 31.63 0.33 32.29 0.00 32.00
L 0.00 33.00 Z"/>
</g>
<g fill="None" fill-opacity="0.0" stroke="#000000" stroke-opacity="0.00" stroke-width="0.3"><path d="
M 0.00 126.00 
L 70.00 126.00
C 69.68 125.16 70.40 123.80 70.00 123.00
C 69.65 122.95 69.21 122.03 69.00 122.00
C 68.02 121.85 66.98 122.12 66.00 122.00
C 66.00 119.67 66.00 117.33 66.00 115.00
C 65.88 114.74 65.26 114.11 65.00 114.00
C 64.58 113.82 63.50 114.00 63.00 114.00
C 62.90 114.96 61.89 117.67 61.00 118.00
C 60.27 118.27 58.78 118.00 58.00 118.00
C 58.25 118.25 58.00 119.00 58.00 119.00
C 58.16 120.37 58.17 121.29 57.00 122.00
C 53.10 124.37 45.26 120.23 41.00 122.00
C 41.00 121.00 41.00 120.00 41.00 119.00
C 40.65 118.95 40.07 118.35 40.00 118.00
C 39.02 117.85 37.98 118.12 37.00 118.00
C 37.36 115.39 35.48 110.05 40.00 111.00
C 40.07 110.65 40.98 110.20 41.00 110.00
C 41.33 106.65 40.64 106.64 44.00 106.00
C 44.22 105.96 44.89 105.26 45.00 105.00
C 45.18 104.58 45.18 103.42 45.00 103.00
C 44.89 102.74 44.27 102.14 44.00 102.00
C 42.81 101.39 41.69 102.70 41.00 101.00
C 40.66 100.16 41.40 98.81 41.00 98.00
C 40.87 97.73 40.02 97.34 40.00 97.00
C 39.02 96.85 37.98 97.12 37.00 97.00
C 37.00 94.67 37.00 92.33 37.00 90.00
C 36.65 89.97 36.05 89.35 36.00 89.00
C 35.02 88.85 33.98 89.12 33.00 89.00
C 33.00 82.67 33.00 76.33 33.00 70.00
C 33.02 69.88 32.03 69.35 32.00 69.00
C 31.95 68.50 32.00 68.00 32.00 68.00
C 28.65 68.20 29.96 67.26 29.00 65.00
C 28.68 64.24 28.15 64.21 28.00 63.00
C 27.36 62.52 25.71 63.39 25.00 63.00
C 25.00 59.67 25.00 56.33 25.00 53.00
C 26.00 53.00 27.00 53.00 28.00 53.00
C 28.21 52.97 28.97 52.21 29.00 52.00
C 29.15 51.02 28.88 49.98 29.00 49.00
C 31.79 48.43 37.87 50.87 37.00 46.00
C 33.59 44.27 28.43 45.73 25.00 45.00 C 21.57 44.27 13.91 46.93 12.00 44.00
C 11.77 43.65 12.00 42.50 12.00 42.00
C 10.99 41.89 8.40 40.90 8.00 40.00
C 7.81 39.58 8.00 38.50 8.00 38.00
C 6.99 37.89 4.40 36.90 4.00 36.00
C 3.81 35.58 4.00 34.50 4.00 34.00
C 2.64 33.70 1.60 32.39 0.00 33.00
L 0.00 126.00 Z"/>
</g>
<g fill="None" fill-opacity="0.0" stroke="#06100A" stroke-opacity="1.00" stroke-width="0.3"><path d="
M 4.00 34.00 
C 4.00 34.50 3.81 35.58 4.00 36.00
C 4.01 35.94 7.00 36.03 7.00 36.00
C 6.55 33.08 6.86 33.44 4.00 33.00
C 4.00 33.00 4.00 33.50 4.00 34.00 Z"/>
</g>
<g fill="None" fill-opacity="0.0" stroke="#7C9579" stroke-opacity="0.08" stroke-width="0.3"><path d="
M 8.00 38.00 
C 8.00 37.50 8.00 37.00 8.00 37.00
C 7.88 36.74 7.05 36.35 7.00 36.00
C 7.00 36.03 4.01 35.94 4.00 36.00
C 4.40 36.90 6.99 37.89 8.00 38.00 Z"/>
</g>
<g fill="None" fill-opacity="0.0" stroke="#050F0A" stroke-opacity="1.00" stroke-width="0.3"><path d="
M 8.00 38.00 
C 8.00 38.50 7.81 39.58 8.00 40.00
C 8.13 39.85 11.00 40.11 11.00 40.00
C 10.55 37.08 10.86 37.44 8.00 37.00
C 8.00 37.00 8.00 37.50 8.00 38.00 Z"/>
</g>
<g fill="None" fill-opacity="0.0" stroke="#010908" stroke-opacity="1.00" stroke-width="0.3"><path d="
M 37.00 40.00 
C 37.47 39.50 39.42 40.40 40.00 40.00
C 40.46 37.90 39.21 36.29 37.00 37.00
C 36.95 38.00 37.07 39.00 37.00 40.00 Z"/>
</g>
<g fill="None" fill-opacity="0.0" stroke="#7F987C" stroke-opacity="0.08" stroke-width="0.3"><path d="
M 12.00 42.00 
C 12.00 41.50 12.00 41.00 12.00 41.00
C 11.88 40.74 11.05 40.35 11.00 40.00
C 11.00 40.11 8.13 39.85 8.00 40.00
C 8.40 40.90 10.99 41.89 12.00 42.00 Z"/>
</g>
<g fill="None" fill-opacity="0.0" stroke="#7B9496" stroke-opacity="1.00" stroke-width="0.3"><path d="
M 37.00 41.00 
C 38.02 41.69 39.48 40.52 40.00 40.00
C 39.42 40.40 37.47 39.50 37.00 40.00
C 37.00 40.00 37.01 40.50 37.00 41.00 Z"/>
</g>
<g fill="None" fill-opacity="0.0" stroke="#51787C" stroke-opacity="1.00" stroke-width="0.3"><path d="
M 82.00 53.00 
C 81.75 52.73 82.00 52.00 82.00 52.00
C 82.00 49.95 82.57 46.96 82.00 45.00
C 81.65 44.97 81.24 44.06 81.00 44.00
C 77.39 43.06 78.15 40.05 74.00 40.00
C 77.82 40.64 76.05 46.49 81.00 45.00
C 81.41 47.59 80.06 51.13 82.00 53.00 Z"/>
</g>
<g fill="None" fill-opacity="0.0" stroke="#1A5055" stroke-opacity="1.00" stroke-width="0.3"><path d="
M 81.00 44.00 
C 81.24 44.06 81.65 44.97 82.00 45.00
C 82.99 45.08 84.01 44.94 85.00 45.00
C 84.64 47.61 86.52 52.95 82.00 52.00
C 82.00 52.00 81.75 52.73 82.00 53.00
C 82.16 53.17 84.74 53.08 85.00 53.00
C 85.35 52.89 85.95 52.35 86.00 52.00
C 86.38 49.39 85.72 46.63 86.00 44.00
C 83.72 44.46 81.24 43.89 82.00 41.00
C 82.01 40.50 82.00 40.00 82.00 40.00
C 80.60 39.95 80.76 43.23 81.00 44.00 Z"/>
</g>
<g fill="None" fill-opacity="0.0" stroke="#35777B" stroke-opacity="1.00" stroke-width="0.3"><path d="
M 82.00 41.00 
C 84.33 40.95 86.67 41.04 89.00 41.00
C 89.00 44.67 89.00 48.33 89.00 52.00
C 88.00 52.00 87.00 52.00 86.00 52.00
C 85.95 52.35 85.35 52.89 85.00 53.00
C 84.43 54.15 85.39 55.39 86.00 56.00
C 84.33 52.77 88.12 53.83 89.00 53.00
C 90.89 50.52 90.44 44.03 90.00 41.00
C 89.74 40.88 89.35 40.07 89.00 40.00
C 87.03 39.64 83.99 39.73 82.00 40.00
C 82.00 40.00 82.01 40.50 82.00 41.00 Z"/>
</g>
<g fill="None" fill-opacity="0.0" stroke="#010401" stroke-opacity="1.00" stroke-width="0.3"><path d="
M 12.00 42.00 
C 12.00 42.50 11.77 43.65 12.00 44.00
C 18.49 46.88 29.00 42.45 36.00 44.00
C 36.00 43.00 36.00 42.00 36.00 41.00
C 28.12 40.15 19.84 42.13 12.00 41.00
C 12.00 41.00 12.00 41.50 12.00 42.00 Z"/>
</g>
<g fill="None" fill-opacity="0.0" stroke="#3AB1B8" stroke-opacity="1.00" stroke-width="0.3"><path d="
M 86.00 52.00 
C 87.00 52.00 88.00 52.00 89.00 52.00
C 89.00 48.33 89.00 44.67 89.00 41.00
C 86.67 41.04 84.33 40.95 82.00 41.00
C 81.24 43.89 83.72 44.46 86.00 44.00
C 85.72 46.63 86.38 49.39 86.00 52.00 Z"/>
</g>
<g fill="None" fill-opacity="0.0" stroke="#022528" stroke-opacity="1.00" stroke-width="0.3"><path d="
M 89.00 53.00 
C 91.88 50.27 91.37 45.09 91.00 41.00
C 91.00 41.00 90.41 41.19 90.00 41.00
C 90.44 44.03 90.89 50.52 89.00 53.00 Z"/>
</g>
<g fill="None" fill-opacity="0.0" stroke="#010504" stroke-opacity="1.00" stroke-width="0.3"><path d="
M 89.00 53.00 
C 88.12 53.83 84.33 52.77 86.00 56.00
C 92.38 54.09 89.99 61.41 92.00 64.00
C 92.25 58.26 94.95 54.01 102.00 56.00
C 102.00 55.00 102.00 54.00 102.00 53.00
C 99.00 53.00 96.00 53.00 93.00 53.00
C 91.96 49.85 95.23 41.62 91.00 41.00
C 91.37 45.09 91.88 50.27 89.00 53.00 Z"/>
</g>
<g fill="None" fill-opacity="0.0" stroke="#657464" stroke-opacity="0.08" stroke-width="0.3"><path d="
M 37.00 46.00 
C 36.94 45.51 37.00 45.00 37.00 45.00
C 36.88 44.74 36.03 44.35 36.00 44.00
C 29.00 42.45 18.49 46.88 12.00 44.00
C 13.91 46.93 21.57 44.27 25.00 45.00 C 28.43 45.73 33.59 44.27 37.00 46.00 Z"/>
</g>
<g fill="None" fill-opacity="0.0" stroke="#020504" stroke-opacity="0.99" stroke-width="0.3"><path d="
M 37.00 46.00 
C 37.87 50.87 31.79 48.43 29.00 49.00
C 28.88 49.98 29.15 51.02 29.00 52.00
C 40.09 49.73 37.00 61.59 37.00 69.00
C 38.00 69.00 39.00 69.00 40.00 69.00
C 40.00 61.00 40.00 53.00 40.00 45.00
C 39.01 44.94 37.99 45.08 37.00 45.00
C 37.00 45.00 36.94 45.51 37.00 46.00 Z"/>
</g>
<g fill="None" fill-opacity="0.0" stroke="#000708" stroke-opacity="1.00" stroke-width="0.3"><path d="
M 82.00 52.00 
C 86.52 52.95 84.64 47.61 85.00 45.00
C 84.01 44.94 82.99 45.08 82.00 45.00
C 82.57 46.96 82.00 49.95 82.00 52.00 Z"/>
</g>
<g fill="None" fill-opacity="0.0" stroke="#446667" stroke-opacity="1.00" stroke-width="0.3"><path d="
M 28.00 53.00 
C 28.00 52.96 29.00 53.00 29.00 53.00
C 31.31 52.78 33.68 53.16 36.00 53.00
C 36.00 58.00 36.00 63.00 36.00 68.00
C 36.00 68.50 36.00 69.00 36.00 69.00
C 36.00 69.50 36.00 70.00 36.00 70.00
C 36.00 76.12 35.13 82.95 36.00 89.00
C 36.05 89.35 36.65 89.97 37.00 90.00
C 37.99 90.08 39.01 89.94 40.00 90.00
C 40.00 92.33 40.00 94.67 40.00 97.00
C 40.02 97.34 40.87 97.73 41.00 98.00
C 40.75 97.73 41.00 97.00 41.00 97.00
C 41.29 93.90 41.84 88.00 37.00 89.00
C 37.00 82.33 37.00 75.67 37.00 69.00
C 37.00 61.59 40.09 49.73 29.00 52.00
C 28.97 52.21 28.21 52.97 28.00 53.00 Z"/>
</g>
<g fill="None" fill-opacity="0.0" stroke="#050B0A" stroke-opacity="0.99" stroke-width="0.3"><path d="
M 28.00 63.00 
C 27.62 59.92 27.72 56.09 28.00 53.00
C 27.00 53.00 26.00 53.00 25.00 53.00
C 25.00 56.33 25.00 59.67 25.00 63.00
C 25.71 63.39 27.36 62.52 28.00 63.00 Z"/>
</g>
<g fill="None" fill-opacity="0.0" stroke="#749C9D" stroke-opacity="0.96" stroke-width="0.3"><path d="
M 28.00 63.00 
C 28.15 64.21 28.68 64.24 29.00 65.00
C 30.63 66.05 32.67 64.50 32.00 68.00
C 32.00 68.00 31.95 68.50 32.00 69.00
C 32.35 69.21 35.65 69.21 36.00 69.00
C 36.00 69.00 36.00 68.50 36.00 68.00
C 32.09 67.70 33.47 63.60 29.00 64.00
C 29.00 60.33 29.00 56.67 29.00 53.00
C 29.00 53.00 28.00 52.96 28.00 53.00
C 27.72 56.09 27.62 59.92 28.00 63.00 Z"/>
</g>
<g fill="None" fill-opacity="0.0" stroke="#A4E1E1" stroke-opacity="1.00" stroke-width="0.3"><path d="
M 36.00 68.00 
C 36.00 63.00 36.00 58.00 36.00 53.00
C 33.68 53.16 31.31 52.78 29.00 53.00
C 29.00 56.67 29.00 60.33 29.00 64.00
C 33.47 63.60 32.09 67.70 36.00 68.00 Z"/>
</g>
<g fill="None" fill-opacity="0.0" stroke="#283D38" stroke-opacity="0.99" stroke-width="0.3"><path d="
M 135.00 63.00 
C 132.47 65.25 131.27 67.24 129.00 69.00
C 129.00 69.00 128.76 69.69 129.00 70.00
C 131.44 73.09 122.63 73.08 123.00 70.00
C 122.01 70.51 121.46 72.17 121.00 73.00
C 120.79 73.38 121.00 74.00 121.00 74.00
C 122.05 75.13 121.53 75.52 122.00 77.00
C 122.50 77.00 123.00 77.00 123.00 77.00
C 123.45 76.58 122.72 74.58 123.00 74.00
C 124.15 71.66 128.95 73.71 131.00 73.00
C 129.00 67.65 136.95 70.43 135.00 65.00
C 139.01 66.43 138.45 62.83 140.00 61.00
C 141.13 60.29 141.94 61.06 143.00 60.00
C 143.78 58.83 142.31 57.86 144.00 57.00
C 145.00 57.00 146.00 57.00 147.00 57.00
C 146.84 59.32 147.22 61.69 147.00 64.00
C 147.12 63.74 147.73 63.13 148.00 63.00
C 148.41 61.09 147.69 58.94 148.00 57.00
C 146.15 55.82 143.11 56.27 144.00 53.00
C 141.32 56.62 138.10 60.24 135.00 63.00
M 142.00 58.00 
C 142.73 58.73 141.29 60.67 140.29 59.63 C 139.30 58.60 141.44 57.44 142.00 58.00
M 138.00 62.00 
C 138.73 62.73 137.29 64.67 136.29 63.63 C 135.30 62.60 137.45 61.45 138.00 62.00
M 134.00 66.00 
C 134.73 66.73 133.29 68.67 132.29 67.63 C 131.30 66.60 133.45 65.45 134.00 66.00 Z"/>
</g>
<g fill="None" fill-opacity="0.0" stroke="#030806" stroke-opacity="0.99" stroke-width="0.3"><path d="
M 148.00 63.00 
C 148.81 62.60 150.16 63.32 151.00 63.00
L 151.00 53.00
C 148.67 53.00 146.33 53.00 144.00 53.00
C 143.11 56.27 146.15 55.82 148.00 57.00
C 147.69 58.94 148.41 61.09 148.00 63.00 Z"/>
</g>
<g fill="None" fill-opacity="0.0" stroke="#97BFC1" stroke-opacity="1.00" stroke-width="0.3"><path d="
M 61.00 74.00 
C 62.69 74.07 66.54 71.88 69.00 73.00
C 69.65 67.84 67.69 61.34 70.00 57.00
C 70.24 56.68 70.00 56.00 70.00 56.00
C 64.17 59.70 73.31 74.90 62.00 72.00
C 64.62 68.04 60.25 55.94 56.33 61.33 C 52.41 66.72 56.31 73.81 61.00 74.00
M 61.00 61.00 
C 61.00 65.00 61.00 69.00 61.00 73.00
C 54.90 75.05 54.77 58.97 61.00 61.00 Z"/>
</g>
<g fill="None" fill-opacity="0.0" stroke="#6E9193" stroke-opacity="1.00" stroke-width="0.3"><path d="
M 70.00 57.00 
C 71.00 56.95 72.00 57.04 73.00 57.00
C 73.00 62.33 73.00 67.67 73.00 73.00
C 72.00 73.00 71.00 73.00 70.00 73.00
C 69.65 73.03 69.03 73.65 69.00 74.00
C 68.92 74.99 69.06 76.01 69.00 77.00
C 66.67 77.00 64.33 77.00 62.00 77.00
C 61.50 76.95 61.00 77.00 61.00 77.00
C 62.70 79.19 66.48 77.44 69.00 78.00
C 69.75 75.01 71.03 73.71 74.00 73.00
C 72.87 69.42 77.16 54.40 70.00 56.00
C 70.00 56.00 70.24 56.68 70.00 57.00 Z"/>
</g>
<g fill="None" fill-opacity="0.0" stroke="#143434" stroke-opacity="1.00" stroke-width="0.3"><path d="
M 89.00 57.00 
C 91.22 58.49 89.38 62.69 90.00 65.00
C 90.98 65.66 91.99 65.12 93.00 66.00
C 93.98 66.86 94.10 68.01 95.00 69.00
C 95.00 68.00 95.00 67.00 95.00 66.00
C 97.33 66.00 99.67 66.00 102.00 66.00
C 102.00 66.00 102.00 65.50 102.00 65.00
C 99.35 65.24 96.65 64.82 94.00 65.00
C 92.33 58.56 95.56 55.39 102.00 57.00
C 102.00 59.33 102.00 61.67 102.00 64.00
C 102.12 63.74 103.02 63.33 103.00 63.00
C 102.95 62.11 103.19 55.19 106.00 58.00
C 105.53 57.03 103.10 56.20 102.00 56.00
C 94.95 54.01 92.25 58.26 92.00 64.00
C 89.99 61.41 92.38 54.09 86.00 56.00
C 87.12 57.12 87.91 56.27 89.00 57.00 Z"/>
</g>
<g fill="None" fill-opacity="0.0" stroke="#3A5053" stroke-opacity="1.00" stroke-width="0.3"><path d="
M 61.00 74.00 
C 61.50 74.44 60.51 76.54 61.00 77.00
C 61.00 77.00 61.50 76.95 62.00 77.00
C 61.95 76.00 62.04 75.00 62.00 74.00
C 64.33 74.00 66.67 74.00 69.00 74.00
C 69.03 73.65 69.65 73.03 70.00 73.00
C 71.13 67.92 69.15 62.15 70.00 57.00
C 67.69 61.34 69.65 67.84 69.00 73.00
C 66.54 71.88 62.69 74.07 61.00 74.00 Z"/>
</g>
<g fill="None" fill-opacity="0.0" stroke="#010707" stroke-opacity="1.00" stroke-width="0.3"><path d="
M 70.00 73.00 
C 71.00 73.00 72.00 73.00 73.00 73.00
C 73.00 67.67 73.00 62.33 73.00 57.00
C 72.00 57.04 71.00 56.95 70.00 57.00
C 69.15 62.15 71.13 67.92 70.00 73.00 Z"/>
</g>
<g fill="None" fill-opacity="0.0" stroke="#5F8F92" stroke-opacity="1.00" stroke-width="0.3"><path d="
M 90.00 65.00 
C 89.38 62.69 91.22 58.49 89.00 57.00
C 89.62 59.31 87.78 63.51 90.00 65.00 Z"/>
</g>
<g fill="None" fill-opacity="0.0" stroke="#36ABB1" stroke-opacity="1.00" stroke-width="0.3"><path d="
M 102.00 65.00 
C 102.00 65.00 101.95 64.50 102.00 64.00
C 102.00 61.67 102.00 59.33 102.00 57.00
C 95.56 55.39 92.33 58.56 94.00 65.00
C 96.65 64.82 99.35 65.24 102.00 65.00 Z"/>
</g>
<g fill="None" fill-opacity="0.0" stroke="#719E9F" stroke-opacity="1.00" stroke-width="0.3"><path d="
M 143.00 60.00 
C 143.87 59.13 144.39 58.50 144.00 57.00
C 142.31 57.86 143.78 58.83 143.00 60.00 Z"/>
</g>
<g fill="None" fill-opacity="0.0" stroke="#020703" stroke-opacity="1.00" stroke-width="0.3"><path d="
M 103.00 63.00 
C 105.45 62.63 107.53 61.14 106.00 58.00
C 103.19 55.19 102.95 62.11 103.00 63.00 Z"/>
</g>
<g fill="None" fill-opacity="0.0" stroke="#000704" stroke-opacity="1.00" stroke-width="0.3"><path d="
M 142.00 58.00 
C 141.44 57.44 139.30 58.60 140.29 59.63 C 141.29 60.67 142.73 58.73 142.00 58.00 Z"/>
</g>
<g fill="None" fill-opacity="0.0" stroke="#051112" stroke-opacity="1.00" stroke-width="0.3"><path d="
M 61.00 61.00 
C 54.77 58.97 54.90 75.05 61.00 73.00
C 61.00 69.00 61.00 65.00 61.00 61.00 Z"/>
</g>
<g fill="None" fill-opacity="0.0" stroke="#6EA0A2" stroke-opacity="1.00" stroke-width="0.3"><path d="
M 123.00 74.00 
C 125.67 74.00 128.33 74.00 131.00 74.00
C 132.26 70.90 131.64 71.10 134.74 69.74 C 137.85 68.39 138.28 62.60 140.00 61.00
C 138.45 62.83 139.01 66.43 135.00 65.00
C 136.95 70.43 129.00 67.65 131.00 73.00
C 128.95 73.71 124.15 71.66 123.00 74.00 Z"/>
</g>
<g fill="None" fill-opacity="0.0" stroke="#000805" stroke-opacity="1.00" stroke-width="0.3"><path d="
M 138.00 62.00 
C 137.45 61.45 135.30 62.60 136.29 63.63 C 137.29 64.67 138.73 62.73 138.00 62.00 Z"/>
</g>
<g fill="None" fill-opacity="0.0" stroke="#A9C1A8" stroke-opacity="0.95" stroke-width="0.3"><path d="
M 129.00 69.00 
C 131.27 67.24 132.47 65.25 135.00 63.00
C 133.47 63.93 131.83 64.23 130.00 64.00
C 130.74 65.86 129.25 67.45 129.00 69.00 Z"/>
</g>
<g fill="None" fill-opacity="0.0" stroke="#000000" stroke-opacity="0.00" stroke-width="0.3"><path d="
M 147.00 64.00 
C 147.00 64.00 147.00 64.50 147.00 65.00
C 147.00 67.67 147.00 70.33 147.00 73.00
C 146.00 73.00 145.00 73.00 144.00 73.00
C 141.81 75.70 142.35 77.50 138.00 78.00
C 136.04 79.76 138.65 80.00 135.00 81.00
C 134.76 81.07 134.35 81.89 134.00 82.00
C 133.16 85.04 134.10 84.15 131.00 85.00
C 130.76 85.07 130.35 85.95 130.00 86.00
C 129.16 89.04 130.10 88.15 127.00 89.00
C 126.95 89.35 126.35 89.95 126.00 90.00
C 125.16 93.04 126.10 92.15 123.00 93.00
C 122.95 93.35 122.34 93.98 122.00 94.00
C 121.85 94.98 122.12 96.02 122.00 97.00
C 119.67 97.00 117.33 97.00 115.00 97.00
C 114.97 97.35 114.35 97.97 114.00 98.00
C 112.77 102.56 110.41 99.62 107.00 101.00
C 106.64 101.68 106.35 102.35 106.00 103.00
C 103.91 106.92 97.35 104.21 93.00 105.00
C 93.00 109.00 93.00 113.00 93.00 117.00
C 92.12 118.45 91.26 117.35 90.00 118.00
C 89.73 118.14 89.35 118.89 89.00 119.00
C 88.16 122.04 89.10 121.15 86.00 122.00
C 85.76 122.07 85.35 122.95 85.00 123.00
C 85.49 123.60 84.61 125.32 85.00 126.00
L 151.00 126.00
L 151.00 63.00
C 150.16 63.32 148.81 62.60 148.00 63.00
C 147.73 63.13 147.12 63.74 147.00 64.00 Z"/>
</g>
<g fill="None" fill-opacity="0.0" stroke="#000E08" stroke-opacity="1.00" stroke-width="0.3"><path d="
M 32.00 68.00 
C 32.67 64.50 30.63 66.05 29.00 65.00
C 29.96 67.26 28.65 68.20 32.00 68.00 Z"/>
</g>
<g fill="None" fill-opacity="0.0" stroke="#304541" stroke-opacity="0.98" stroke-width="0.3"><path d="
M 135.00 78.00 
C 135.31 77.69 137.53 78.05 138.00 78.00
C 142.35 77.50 141.81 75.70 144.00 73.00
C 144.61 70.48 143.55 67.56 144.00 65.00
C 141.81 66.70 143.56 70.48 143.00 73.00
C 140.35 73.36 136.30 75.96 135.00 78.00
M 142.00 74.00 
C 142.73 74.73 141.29 76.67 140.29 75.63 C 139.30 74.60 141.44 73.44 142.00 74.00 Z"/>
</g>
<g fill="None" fill-opacity="0.0" stroke="#020A04" stroke-opacity="0.99" stroke-width="0.3"><path d="
M 144.00 73.00 
C 145.00 73.00 146.00 73.00 147.00 73.00
C 147.00 70.33 147.00 67.67 147.00 65.00
C 146.58 65.45 144.58 64.72 144.00 65.00
C 143.55 67.56 144.61 70.48 144.00 73.00 Z"/>
</g>
<g fill="None" fill-opacity="0.0" stroke="#699B9A" stroke-opacity="0.94" stroke-width="0.3"><path d="
M 102.00 74.00 
C 102.25 73.92 102.65 73.05 103.00 73.00
C 102.77 72.95 102.09 72.25 102.00 72.00
C 100.95 72.49 99.66 73.60 98.00 73.00
C 98.46 70.72 97.89 68.24 95.00 69.00
C 94.10 68.01 93.98 66.86 93.00 66.00
C 94.98 68.32 96.85 75.64 102.00 74.00 Z"/>
</g>
<g fill="None" fill-opacity="0.0" stroke="#030D08" stroke-opacity="1.00" stroke-width="0.3"><path d="
M 95.00 69.00 
C 97.89 68.24 98.46 70.72 98.00 73.00
C 99.66 73.60 100.95 72.49 102.00 72.00
C 101.44 70.48 102.00 67.64 102.00 66.00
C 99.67 66.00 97.33 66.00 95.00 66.00
C 95.00 67.00 95.00 68.00 95.00 69.00 Z"/>
</g>
<g fill="None" fill-opacity="0.0" stroke="#000401" stroke-opacity="1.00" stroke-width="0.3"><path d="
M 134.00 66.00 
C 133.45 65.45 131.30 66.60 132.29 67.63 C 133.29 68.67 134.73 66.73 134.00 66.00 Z"/>
</g>
<g fill="None" fill-opacity="0.0" stroke="#1A3C3C" stroke-opacity="1.00" stroke-width="0.3"><path d="
M 33.00 70.00 
C 33.03 69.80 35.82 70.19 36.00 70.00
C 36.00 70.00 36.00 69.50 36.00 69.00
C 35.65 69.21 32.35 69.21 32.00 69.00
C 32.03 69.35 33.02 69.88 33.00 70.00 Z"/>
</g>
<g fill="None" fill-opacity="0.0" stroke="#82D2D6" stroke-opacity="1.00" stroke-width="0.3"><path d="
M 41.00 97.00 
C 41.72 96.67 45.05 96.67 45.00 98.00
C 45.38 98.36 44.56 100.76 45.00 101.00
C 47.65 100.15 50.87 101.91 50.00 105.00
C 53.33 105.00 56.67 105.00 60.00 105.00
C 60.00 104.00 60.00 103.00 60.00 102.00
C 57.67 102.00 55.33 102.00 53.00 102.00
C 52.37 97.86 49.02 94.61 45.00 94.00
C 45.54 90.98 44.78 87.76 41.00 89.00
C 41.00 82.33 41.00 75.67 41.00 69.00
C 41.00 69.00 40.50 69.00 40.00 69.00
C 39.00 69.00 38.00 69.00 37.00 69.00
C 37.00 75.67 37.00 82.33 37.00 89.00
C 41.84 88.00 41.29 93.90 41.00 97.00 Z"/>
</g>
<g fill="None" fill-opacity="0.0" stroke="#010604" stroke-opacity="1.00" stroke-width="0.3"><path d="
M 36.00 89.00 
C 35.13 82.95 36.00 76.12 36.00 70.00
C 35.82 70.19 33.03 69.80 33.00 70.00
C 33.00 76.33 33.00 82.67 33.00 89.00
C 33.98 89.12 35.02 88.85 36.00 89.00 Z"/>
</g>
<g fill="None" fill-opacity="0.0" stroke="#000704" stroke-opacity="1.00" stroke-width="0.3"><path d="
M 129.00 70.00 
C 127.34 70.35 124.49 69.24 123.00 70.00
C 122.63 73.08 131.44 73.09 129.00 70.00 Z"/>
</g>
<g fill="None" fill-opacity="0.0" stroke="#3F4D40" stroke-opacity="0.13" stroke-width="0.3"><path d="
M 102.00 74.00 
C 106.73 75.52 116.01 74.45 121.00 74.00
C 121.00 74.00 120.79 73.38 121.00 73.00
C 115.51 72.50 108.45 72.21 103.00 73.00
C 102.65 73.05 102.25 73.92 102.00 74.00 Z"/>
</g>
<g fill="None" fill-opacity="0.0" stroke="#040E10" stroke-opacity="1.00" stroke-width="0.3"><path d="
M 62.00 77.00 
C 64.33 77.00 66.67 77.00 69.00 77.00
C 69.06 76.01 68.92 74.99 69.00 74.00
C 66.67 74.00 64.33 74.00 62.00 74.00
C 62.04 75.00 61.95 76.00 62.00 77.00 Z"/>
</g>
<g fill="None" fill-opacity="0.0" stroke="#02090B" stroke-opacity="1.00" stroke-width="0.3"><path d="
M 102.00 77.00 
C 108.67 77.00 115.33 77.00 122.00 77.00
C 121.53 75.52 122.05 75.13 121.00 74.00
C 116.01 74.45 106.73 75.52 102.00 74.00
C 102.44 74.39 101.73 76.45 102.00 77.00 Z"/>
</g>
<g fill="None" fill-opacity="0.0" stroke="#010604" stroke-opacity="1.00" stroke-width="0.3"><path d="
M 142.00 74.00 
C 141.44 73.44 139.30 74.60 140.29 75.63 C 141.29 76.67 142.73 74.73 142.00 74.00 Z"/>
</g>
<g fill="None" fill-opacity="0.0" stroke="#54868A" stroke-opacity="1.00" stroke-width="0.3"><path d="
M 123.00 77.00 
C 123.00 77.00 122.50 77.00 122.00 77.00
C 115.33 77.00 108.67 77.00 102.00 77.00
C 103.15 79.33 121.26 78.81 123.00 77.00 Z"/>
</g>
<g fill="None" fill-opacity="0.0" stroke="#0A1512" stroke-opacity="0.97" stroke-width="0.3"><path d="
M 135.00 81.00 
C 138.65 80.00 136.04 79.76 138.00 78.00
C 137.53 78.05 135.31 77.69 135.00 78.00
C 134.56 78.70 135.48 80.33 135.00 81.00 Z"/>
</g>
<g fill="None" fill-opacity="0.0" stroke="#435D5C" stroke-opacity="0.98" stroke-width="0.3"><path d="
M 131.00 82.00 
C 131.39 81.61 133.45 82.17 134.00 82.00
C 134.35 81.89 134.76 81.07 135.00 81.00
C 134.38 80.26 131.31 81.22 131.00 82.00 Z"/>
</g>
<g fill="None" fill-opacity="0.0" stroke="#030D07" stroke-opacity="0.97" stroke-width="0.3"><path d="
M 131.00 85.00 
C 134.10 84.15 133.16 85.04 134.00 82.00
C 133.45 82.17 131.39 81.61 131.00 82.00
C 130.79 82.53 131.40 84.65 131.00 85.00 Z"/>
</g>
<g fill="None" fill-opacity="0.0" stroke="#598486" stroke-opacity="0.99" stroke-width="0.3"><path d="
M 106.00 98.00 
C 108.33 98.00 110.67 98.00 113.00 98.00
C 113.50 98.00 114.00 98.00 114.00 98.00
C 114.35 97.97 114.97 97.35 115.00 97.00
C 115.08 96.01 114.94 94.99 115.00 94.00
C 117.33 94.00 119.67 94.00 122.00 94.00
C 122.34 93.98 122.95 93.35 123.00 93.00
C 123.44 90.14 123.08 90.45 126.00 90.00
C 126.35 89.95 126.95 89.35 127.00 89.00
C 127.44 86.14 127.08 86.45 130.00 86.00
C 130.35 85.95 130.76 85.07 131.00 85.00
C 126.36 84.99 123.05 89.12 122.00 93.00
C 118.90 92.99 112.97 91.99 114.00 97.00
C 111.95 97.71 107.15 95.66 106.00 98.00 Z"/>
</g>
<g fill="None" fill-opacity="0.0" stroke="#020A08" stroke-opacity="0.97" stroke-width="0.3"><path d="
M 127.00 89.00 
C 130.10 88.15 129.16 89.04 130.00 86.00
C 127.08 86.45 127.44 86.14 127.00 89.00 Z"/>
</g>
<g fill="None" fill-opacity="0.0" stroke="#729798" stroke-opacity="1.00" stroke-width="0.3"><path d="
M 65.00 90.00 
C 65.27 89.75 66.00 90.00 66.00 90.00
C 68.25 89.57 69.44 90.69 69.00 93.00
C 68.91 93.48 69.00 94.00 69.00 94.00
C 71.88 91.20 67.81 87.11 65.00 90.00 Z"/>
</g>
<g fill="None" fill-opacity="0.0" stroke="#679193" stroke-opacity="1.00" stroke-width="0.3"><path d="
M 89.00 118.00 
C 89.50 118.00 90.00 118.00 90.00 118.00
C 90.35 114.08 89.21 107.64 90.00 104.00 C 90.79 100.36 87.92 92.00 91.00 90.00
C 91.35 89.77 92.92 89.81 93.00 90.00
C 90.83 85.57 87.63 97.40 89.00 101.00 C 90.37 104.60 88.62 113.83 89.00 118.00 Z"/>
</g>
<g fill="None" fill-opacity="0.0" stroke="#010704" stroke-opacity="1.00" stroke-width="0.3"><path d="
M 40.00 97.00 
C 40.00 94.67 40.00 92.33 40.00 90.00
C 39.01 89.94 37.99 90.08 37.00 90.00
C 37.00 92.33 37.00 94.67 37.00 97.00
C 37.98 97.12 39.02 96.85 40.00 97.00 Z"/>
</g>
<g fill="None" fill-opacity="0.0" stroke="#314B4D" stroke-opacity="1.00" stroke-width="0.3"><path d="
M 65.00 93.00 
C 65.11 93.35 66.01 93.99 66.00 94.00
C 66.18 93.61 68.68 94.34 69.00 94.00
C 69.00 94.00 68.91 93.48 69.00 93.00
C 66.53 93.15 65.85 92.54 66.00 90.00
C 66.00 90.00 65.27 89.75 65.00 90.00
C 64.83 90.16 64.92 92.74 65.00 93.00 Z"/>
</g>
<g fill="None" fill-opacity="0.0" stroke="#040F11" stroke-opacity="1.00" stroke-width="0.3"><path d="
M 69.00 93.00 
C 69.44 90.69 68.25 89.57 66.00 90.00
C 65.85 92.54 66.53 93.15 69.00 93.00 Z"/>
</g>
<g fill="None" fill-opacity="0.0" stroke="#0F2121" stroke-opacity="0.99" stroke-width="0.3"><path d="
M 90.00 118.00 
C 91.26 117.35 92.12 118.45 93.00 117.00
C 91.57 112.31 88.05 96.64 91.00 90.00
C 87.92 92.00 90.79 100.36 90.00 104.00 C 89.21 107.64 90.35 114.08 90.00 118.00 Z"/>
</g>
<g fill="None" fill-opacity="0.0" stroke="#010303" stroke-opacity="0.99" stroke-width="0.3"><path d="
M 93.00 117.00 
C 93.00 113.00 93.00 109.00 93.00 105.00
C 97.35 104.21 103.91 106.92 106.00 103.00
C 103.62 104.09 96.05 103.70 93.78 102.22 C 91.51 100.74 94.04 92.34 93.00 90.00
C 92.92 89.81 91.35 89.77 91.00 90.00
C 88.05 96.64 91.57 112.31 93.00 117.00 Z"/>
</g>
<g fill="None" fill-opacity="0.0" stroke="#223637" stroke-opacity="1.00" stroke-width="0.3"><path d="
M 106.00 103.00 
C 106.35 102.35 106.64 101.68 107.00 101.00
C 108.30 98.56 110.51 99.18 113.00 98.00
C 110.67 98.00 108.33 98.00 106.00 98.00
C 105.60 98.80 106.40 100.20 106.00 101.00
C 105.02 102.98 95.12 102.60 94.00 101.00
C 92.05 98.22 95.70 92.70 93.00 90.00
C 94.04 92.34 91.51 100.74 93.78 102.22 C 96.05 103.70 103.62 104.09 106.00 103.00 Z"/>
</g>
<g fill="None" fill-opacity="0.0" stroke="#010B09" stroke-opacity="0.97" stroke-width="0.3"><path d="
M 123.00 93.00 
C 126.10 92.15 125.16 93.04 126.00 90.00
C 123.08 90.45 123.44 90.14 123.00 93.00 Z"/>
</g>
<g fill="None" fill-opacity="0.0" stroke="#809E9F" stroke-opacity="1.00" stroke-width="0.3"><path d="
M 61.00 94.00 
C 62.33 94.00 63.67 94.00 65.00 94.00
C 65.00 100.67 65.00 107.33 65.00 114.00
C 65.00 114.04 66.00 114.00 66.00 114.00
C 66.52 108.26 67.25 99.61 66.00 94.00
C 66.01 93.99 65.11 93.35 65.00 93.00
C 63.81 92.43 61.64 93.10 61.00 94.00 Z"/>
</g>
<g fill="None" fill-opacity="0.0" stroke="#040F0F" stroke-opacity="1.00" stroke-width="0.3"><path d="
M 61.00 102.00 
C 61.37 103.22 60.72 104.75 61.00 106.00
C 57.00 106.00 53.00 106.00 49.00 106.00
C 47.69 112.87 57.04 108.99 61.00 110.00
C 62.46 109.95 61.90 113.20 62.00 114.00
C 62.50 113.95 63.00 114.00 63.00 114.00
C 63.50 114.00 64.58 113.82 65.00 114.00
C 65.00 107.33 65.00 100.67 65.00 94.00
C 63.67 94.00 62.33 94.00 61.00 94.00
C 60.03 95.37 61.16 100.26 61.00 102.00 Z"/>
</g>
<g fill="None" fill-opacity="0.0" stroke="#000904" stroke-opacity="0.97" stroke-width="0.3"><path d="
M 115.00 97.00 
C 117.33 97.00 119.67 97.00 122.00 97.00
C 122.12 96.02 121.85 94.98 122.00 94.00
C 119.67 94.00 117.33 94.00 115.00 94.00
C 114.94 94.99 115.08 96.01 115.00 97.00 Z"/>
</g>
<g fill="None" fill-opacity="0.0" stroke="#649A9D" stroke-opacity="1.00" stroke-width="0.3"><path d="
M 41.00 98.00 
C 41.24 98.26 43.61 98.00 44.00 98.00
C 44.50 98.00 45.00 98.00 45.00 98.00
C 45.05 96.67 41.72 96.67 41.00 97.00
C 41.00 97.00 40.75 97.73 41.00 98.00 Z"/>
</g>
<g fill="None" fill-opacity="0.0" stroke="#05110F" stroke-opacity="1.00" stroke-width="0.3"><path d="
M 41.00 101.00 
C 43.48 101.69 44.13 100.12 44.00 98.00
C 43.61 98.00 41.24 98.26 41.00 98.00
C 41.40 98.81 40.66 100.16 41.00 101.00 Z"/>
</g>
<g fill="None" fill-opacity="0.0" stroke="#344C48" stroke-opacity="1.00" stroke-width="0.3"><path d="
M 41.00 101.00 
C 41.69 102.70 42.81 101.39 44.00 102.00
C 44.04 101.78 45.01 101.01 45.00 101.00
C 44.56 100.76 45.38 98.36 45.00 98.00
C 45.00 98.00 44.50 98.00 44.00 98.00
C 44.13 100.12 43.48 101.69 41.00 101.00 Z"/>
</g>
<g fill="None" fill-opacity="0.0" stroke="#010803" stroke-opacity="0.91" stroke-width="0.3"><path d="
M 107.00 101.00 
C 110.41 99.62 112.77 102.56 114.00 98.00
C 114.00 98.00 113.50 98.00 113.00 98.00
C 110.51 99.18 108.30 98.56 107.00 101.00 Z"/>
</g>
<g fill="None" fill-opacity="0.0" stroke="#7BACAD" stroke-opacity="1.00" stroke-width="0.3"><path d="
M 44.00 102.00 
C 44.27 102.14 44.89 102.74 45.00 103.00
C 45.45 103.02 46.73 101.51 48.00 102.00
C 49.43 102.55 49.47 105.43 48.00 106.00
C 46.57 106.55 45.52 104.98 45.00 105.00
C 44.89 105.26 44.22 105.96 44.00 106.00
C 44.04 106.22 44.76 106.94 45.00 107.00
C 47.69 107.70 48.18 107.96 49.00 111.00
C 53.00 111.00 57.00 111.00 61.00 111.00
C 60.99 110.50 61.00 110.00 61.00 110.00
C 57.04 108.99 47.69 112.87 49.00 106.00
C 53.00 106.00 57.00 106.00 61.00 106.00
C 60.72 104.75 61.37 103.22 61.00 102.00
C 61.00 102.00 60.50 101.95 60.00 102.00
C 60.00 103.00 60.00 104.00 60.00 105.00
C 56.67 105.00 53.33 105.00 50.00 105.00
C 50.87 101.91 47.65 100.15 45.00 101.00
C 45.01 101.01 44.04 101.78 44.00 102.00 Z"/>
</g>
<g fill="None" fill-opacity="0.0" stroke="#629599" stroke-opacity="1.00" stroke-width="0.3"><path d="
M 106.00 101.00 
C 102.00 101.00 98.00 101.00 94.00 101.00
C 95.12 102.60 105.02 102.98 106.00 101.00 Z"/>
</g>
<g fill="None" fill-opacity="0.0" stroke="#071812" stroke-opacity="1.00" stroke-width="0.3"><path d="
M 45.00 103.00 
C 45.18 103.42 45.18 104.58 45.00 105.00
C 45.52 104.98 46.57 106.55 48.00 106.00
C 48.00 104.67 48.00 103.33 48.00 102.00
C 46.73 101.51 45.45 103.02 45.00 103.00 Z"/>
</g>
<g fill="None" fill-opacity="0.0" stroke="#345757" stroke-opacity="1.00" stroke-width="0.3"><path d="
M 48.00 106.00 
C 49.47 105.43 49.43 102.55 48.00 102.00
C 48.00 103.33 48.00 104.67 48.00 106.00 Z"/>
</g>
<g fill="None" fill-opacity="0.0" stroke="#031008" stroke-opacity="1.00" stroke-width="0.3"><path d="
M 41.00 110.00 
C 41.89 109.72 43.14 110.35 44.00 110.00
C 44.57 109.52 43.38 106.37 44.00 106.00
C 40.64 106.64 41.33 106.65 41.00 110.00 Z"/>
</g>
<g fill="None" fill-opacity="0.0" stroke="#3C5856" stroke-opacity="1.00" stroke-width="0.3"><path d="
M 44.00 110.00 
C 44.97 109.61 45.30 108.00 45.00 107.00
C 44.76 106.94 44.04 106.22 44.00 106.00
C 43.38 106.37 44.57 109.52 44.00 110.00 Z"/>
</g>
<g fill="None" fill-opacity="0.0" stroke="#A5DDE0" stroke-opacity="1.00" stroke-width="0.3"><path d="
M 44.00 110.00 
C 43.14 110.35 41.89 109.72 41.00 110.00
C 41.78 112.42 40.42 115.52 41.00 118.00
C 46.33 118.00 51.67 118.00 57.00 118.00
C 56.88 117.89 56.90 115.16 57.00 115.00
C 58.54 112.58 61.12 115.26 61.00 111.00
C 57.00 111.00 53.00 111.00 49.00 111.00
C 48.18 107.96 47.69 107.70 45.00 107.00
C 45.30 108.00 44.97 109.61 44.00 110.00 Z"/>
</g>
<g fill="None" fill-opacity="0.0" stroke="#4C6161" stroke-opacity="1.00" stroke-width="0.3"><path d="
M 40.00 111.00 
C 39.65 112.88 39.65 116.12 40.00 118.00
C 40.07 118.35 40.65 118.95 41.00 119.00
C 46.09 119.73 51.85 119.00 57.00 119.00
C 57.50 119.00 58.00 119.00 58.00 119.00
C 58.00 119.00 58.25 118.25 58.00 118.00
C 57.50 118.00 57.00 118.00 57.00 118.00
C 51.67 118.00 46.33 118.00 41.00 118.00
C 40.42 115.52 41.78 112.42 41.00 110.00
C 40.98 110.20 40.07 110.65 40.00 111.00 Z"/>
</g>
<g fill="None" fill-opacity="0.0" stroke="#203C3B" stroke-opacity="1.00" stroke-width="0.3"><path d="
M 61.00 111.00 
C 61.12 115.26 58.54 112.58 57.00 115.00
C 57.50 114.40 60.26 115.37 61.00 115.00
C 61.27 114.81 61.65 114.03 62.00 114.00
C 61.90 113.20 62.46 109.95 61.00 110.00
C 61.00 110.00 60.99 110.50 61.00 111.00 Z"/>
</g>
<g fill="None" fill-opacity="0.0" stroke="#020704" stroke-opacity="1.00" stroke-width="0.3"><path d="
M 40.00 118.00 
C 39.65 116.12 39.65 112.88 40.00 111.00
C 35.48 110.05 37.36 115.39 37.00 118.00
C 37.98 118.12 39.02 117.85 40.00 118.00 Z"/>
</g>
<g fill="None" fill-opacity="0.0" stroke="#8A9F8C" stroke-opacity="0.97" stroke-width="0.3"><path d="
M 61.00 115.00 
C 60.51 115.35 61.44 117.56 61.00 118.00
C 61.89 117.67 62.90 114.96 63.00 114.00
C 63.00 114.00 62.50 113.95 62.00 114.00
C 61.65 114.03 61.27 114.81 61.00 115.00 Z"/>
</g>
<g fill="None" fill-opacity="0.0" stroke="#425654" stroke-opacity="1.00" stroke-width="0.3"><path d="
M 66.00 115.00 
C 66.02 115.04 68.92 115.09 69.00 115.00
C 69.00 114.50 69.00 114.00 69.00 114.00
C 68.76 113.74 66.39 114.00 66.00 114.00
C 66.00 114.00 65.00 114.04 65.00 114.00
C 65.26 114.11 65.88 114.74 66.00 115.00 Z"/>
</g>
<g fill="None" fill-opacity="0.0" stroke="#658F90" stroke-opacity="1.00" stroke-width="0.3"><path d="
M 69.00 115.00 
C 69.00 117.26 68.70 119.76 69.00 122.00
C 69.01 122.07 70.00 122.00 70.00 122.00
C 70.21 119.68 70.61 115.55 69.00 114.00
C 69.00 114.00 69.00 114.50 69.00 115.00 Z"/>
</g>
<g fill="None" fill-opacity="0.0" stroke="#07130D" stroke-opacity="0.98" stroke-width="0.3"><path d="
M 57.00 118.00 
C 57.00 118.00 57.50 118.00 58.00 118.00
C 58.78 118.00 60.27 118.27 61.00 118.00
C 61.44 117.56 60.51 115.35 61.00 115.00
C 60.26 115.37 57.50 114.40 57.00 115.00
C 56.90 115.16 56.88 117.89 57.00 118.00 Z"/>
</g>
<g fill="None" fill-opacity="0.0" stroke="#040C0A" stroke-opacity="1.00" stroke-width="0.3"><path d="
M 69.00 122.00 
C 68.70 119.76 69.00 117.26 69.00 115.00
C 68.92 115.09 66.02 115.04 66.00 115.00
C 66.00 117.33 66.00 119.67 66.00 122.00
C 66.98 122.12 68.02 121.85 69.00 122.00 Z"/>
</g>
<g fill="None" fill-opacity="0.0" stroke="#5D8F8F" stroke-opacity="1.00" stroke-width="0.3"><path d="
M 85.00 122.00 
C 85.50 122.00 86.00 122.00 86.00 122.00
C 86.26 121.76 86.00 119.39 86.00 119.00
C 86.00 118.50 86.00 118.00 86.00 118.00
C 84.67 117.95 84.67 121.28 85.00 122.00 Z"/>
</g>
<g fill="None" fill-opacity="0.0" stroke="#405F5C" stroke-opacity="0.98" stroke-width="0.3"><path d="
M 86.00 119.00 
C 86.16 119.17 88.74 119.08 89.00 119.00
C 89.35 118.89 89.73 118.14 90.00 118.00
C 90.00 118.00 89.50 118.00 89.00 118.00
C 88.61 118.00 86.24 117.74 86.00 118.00
C 86.00 118.00 86.00 118.50 86.00 119.00 Z"/>
</g>
<g fill="None" fill-opacity="0.0" stroke="#000603" stroke-opacity="0.97" stroke-width="0.3"><path d="
M 57.00 122.00 
C 57.40 121.42 56.50 119.47 57.00 119.00
C 51.85 119.00 46.09 119.73 41.00 119.00
C 41.00 120.00 41.00 121.00 41.00 122.00
C 45.26 120.23 53.10 124.37 57.00 122.00 Z"/>
</g>
<g fill="None" fill-opacity="0.0" stroke="#9CB69B" stroke-opacity="0.97" stroke-width="0.3"><path d="
M 57.00 122.00 
C 58.17 121.29 58.16 120.37 58.00 119.00
C 58.00 119.00 57.50 119.00 57.00 119.00
C 56.50 119.47 57.40 121.42 57.00 122.00 Z"/>
</g>
<g fill="None" fill-opacity="0.0" stroke="#000A09" stroke-opacity="0.97" stroke-width="0.3"><path d="
M 86.00 122.00 
C 89.10 121.15 88.16 122.04 89.00 119.00
C 88.74 119.08 86.16 119.17 86.00 119.00
C 86.00 119.39 86.26 121.76 86.00 122.00 Z"/>
</g>
<g fill="None" fill-opacity="0.0" stroke="#3B6663" stroke-opacity="1.00" stroke-width="0.3"><path d="
M 70.00 123.00 
C 74.37 123.63 80.63 123.63 85.00 123.00
C 85.35 122.95 85.76 122.07 86.00 122.00
C 86.00 122.00 85.50 122.00 85.00 122.00
C 80.00 122.00 75.00 122.00 70.00 122.00
C 70.00 122.00 69.01 122.07 69.00 122.00
C 69.21 122.03 69.65 122.95 70.00 123.00 Z"/>
</g>
<g fill="None" fill-opacity="0.0" stroke="#010702" stroke-opacity="0.97" stroke-width="0.3"><path d="
M 70.00 126.00 
L 85.00 126.00
C 84.61 125.32 85.49 123.60 85.00 123.00
C 80.63 123.63 74.37 123.63 70.00 123.00
C 70.40 123.80 69.68 125.16 70.00 126.00 Z"/>
</g>
<g fill="#000000" fill-opacity="0.00" stroke="None">
<path d="
M 0.00 16.00 
C 0.84 15.68 2.19 16.40 3.00 16.00
C 3.05 15.65 3.65 15.05 4.00 15.00
C 4.84 11.96 3.90 12.85 7.00 12.00
C 7.05 11.65 7.65 11.05 8.00 11.00
C 8.84 7.96 7.90 8.85 11.00 8.00
C 11.05 7.65 11.65 7.05 12.00 7.00
C 12.15 6.02 11.88 4.98 12.00 4.00
C 14.67 4.00 17.33 4.00 20.00 4.00
C 20.23 3.95 20.65 3.05 21.00 3.00
C 21.38 2.83 20.70 0.34 21.00 0.00
L 0.00 0.00
L 0.00 16.00 Z"/>
</g>
<g fill="#020704" fill-opacity="0.97" stroke="None">
<path d="
M 21.00 3.00 
C 29.82 1.73 39.14 3.95 48.00 3.00
C 48.00 2.00 48.00 1.00 48.00 0.00
L 21.00 0.00
C 20.70 0.34 21.38 2.83 21.00 3.00 Z"/>
</g>
<g fill="#436E6D" fill-opacity="1.00" stroke="None">
<path d="
M 21.00 3.00 
C 20.65 3.05 20.23 3.95 20.00 4.00
C 20.27 3.75 21.00 4.00 21.00 4.00
C 30.00 4.00 39.00 4.00 48.00 4.00
C 47.28 6.54 49.50 8.64 52.00 8.00
C 52.49 7.93 53.00 8.00 53.00 8.00
C 53.50 8.00 54.00 8.00 54.00 8.00
C 53.77 7.95 53.35 7.03 53.00 7.00
C 52.50 6.95 52.00 7.00 52.00 7.00
C 47.74 7.24 50.31 5.49 50.00 4.00
C 49.74 2.72 48.38 1.56 49.00 0.00
L 48.00 0.00
C 48.00 1.00 48.00 2.00 48.00 3.00
C 39.14 3.95 29.82 1.73 21.00 3.00 Z"/>
</g>
<g fill="#000000" fill-opacity="0.00" stroke="None">
<path d="
M 50.00 4.00 
C 50.42 4.18 51.54 3.87 52.00 4.00
C 53.57 4.45 52.48 5.98 53.00 7.00
C 53.35 7.03 53.77 7.95 54.00 8.00
C 59.00 8.00 64.00 8.00 69.00 8.00
C 69.00 12.00 69.00 16.00 69.00 20.00
C 71.79 20.57 77.87 18.13 77.00 23.00
C 77.03 23.21 77.95 23.65 78.00 24.00
C 78.98 24.15 80.02 23.88 81.00 24.00
C 81.00 28.33 81.00 32.67 81.00 37.00
C 83.79 37.57 89.87 35.13 89.00 40.00
C 89.35 40.07 89.74 40.88 90.00 41.00
C 90.41 41.19 91.00 41.00 91.00 41.00
C 95.23 41.62 91.96 49.85 93.00 53.00
C 96.00 53.00 99.00 53.00 102.00 53.00
C 102.00 54.00 102.00 55.00 102.00 56.00
C 103.10 56.20 105.53 57.03 106.00 58.00
C 107.53 61.14 105.45 62.63 103.00 63.00
C 103.02 63.33 102.12 63.74 102.00 64.00
C 101.95 64.50 102.00 65.00 102.00 65.00
C 102.00 65.50 102.00 66.00 102.00 66.00
C 102.00 67.64 101.44 70.48 102.00 72.00
C 102.09 72.25 102.77 72.95 103.00 73.00
C 108.45 72.21 115.51 72.50 121.00 73.00
C 121.46 72.17 122.01 70.51 123.00 70.00
C 124.49 69.24 127.34 70.35 129.00 70.00
C 128.76 69.69 129.00 69.00 129.00 69.00
C 129.25 67.45 130.74 65.86 130.00 64.00
C 131.83 64.23 133.47 63.93 135.00 63.00
C 138.10 60.24 141.32 56.62 144.00 53.00
C 146.33 53.00 148.67 53.00 151.00 53.00
L 151.00 0.00
L 49.00 0.00
C 48.38 1.56 49.74 2.72 50.00 4.00 Z"/>
</g>
<g fill="#020C08" fill-opacity="0.97" stroke="None">
<path d="
M 12.00 7.00 
C 14.42 6.65 17.56 6.78 20.00 7.00
C 20.00 6.61 19.74 4.24 20.00 4.00
C 17.33 4.00 14.67 4.00 12.00 4.00
C 11.88 4.98 12.15 6.02 12.00 7.00 Z"/>
</g>
<g fill="#72AAAD" fill-opacity="1.00" stroke="None">
<path d="
M 20.00 7.00 
C 20.00 7.50 20.00 8.00 20.00 8.00
C 21.18 8.04 21.31 4.68 21.00 4.00
C 21.00 4.00 20.27 3.75 20.00 4.00
C 19.74 4.24 20.00 6.61 20.00 7.00 Z"/>
</g>
<g fill="#A4E3E5" fill-opacity="1.00" stroke="None">
<path d="
M 20.00 8.00 
C 17.35 8.24 14.65 7.82 12.00 8.00
C 11.39 12.02 8.14 15.37 4.00 16.00
C 4.00 21.33 4.00 26.67 4.00 32.00
C 8.02 32.61 11.37 35.86 12.00 40.00
C 20.00 40.00 28.00 40.00 36.00 40.00
C 35.10 36.96 37.02 35.27 40.00 36.00
C 39.34 33.03 39.10 13.93 45.00 20.00
C 45.46 25.04 45.46 30.96 45.00 36.00
C 45.04 37.17 41.67 37.32 41.00 37.00
C 41.44 38.47 40.84 39.16 40.00 40.00
C 39.48 40.52 38.02 41.69 37.00 41.00
C 36.96 44.15 38.49 43.85 41.00 45.00
C 41.00 53.00 41.00 61.00 41.00 69.00
C 41.00 75.67 41.00 82.33 41.00 89.00
C 44.78 87.76 45.54 90.98 45.00 94.00
C 49.02 94.61 52.37 97.86 53.00 102.00
C 55.33 102.00 57.67 102.00 60.00 102.00
C 60.50 101.95 61.00 102.00 61.00 102.00
C 61.16 100.26 60.03 95.37 61.00 94.00
C 61.64 93.10 63.81 92.43 65.00 93.00
C 64.92 92.74 64.83 90.16 65.00 90.00
C 67.81 87.11 71.88 91.20 69.00 94.00
C 68.68 94.34 66.18 93.61 66.00 94.00
C 67.25 99.61 66.52 108.26 66.00 114.00
C 66.39 114.00 68.76 113.74 69.00 114.00
C 70.61 115.55 70.21 119.68 70.00 122.00
C 75.00 122.00 80.00 122.00 85.00 122.00
C 84.67 121.28 84.67 117.95 86.00 118.00
C 86.24 117.74 88.61 118.00 89.00 118.00
C 88.62 113.83 90.37 104.60 89.00 101.00 C 87.63 97.40 90.83 85.57 93.00 90.00
C 95.70 92.70 92.05 98.22 94.00 101.00
C 98.00 101.00 102.00 101.00 106.00 101.00
C 106.40 100.20 105.60 98.80 106.00 98.00
C 107.15 95.66 111.95 97.71 114.00 97.00
C 112.97 91.99 118.90 92.99 122.00 93.00
C 123.05 89.12 126.36 84.99 131.00 85.00
C 131.40 84.65 130.79 82.53 131.00 82.00
C 131.31 81.22 134.38 80.26 135.00 81.00
C 135.48 80.33 134.56 78.70 135.00 78.00
C 136.30 75.96 140.35 73.36 143.00 73.00
C 143.56 70.48 141.81 66.70 144.00 65.00
C 144.58 64.72 146.58 65.45 147.00 65.00
C 147.00 64.50 147.00 64.00 147.00 64.00
C 147.22 61.69 146.84 59.32 147.00 57.00
C 146.00 57.00 145.00 57.00 144.00 57.00
C 144.39 58.50 143.87 59.13 143.00 60.00
C 141.94 61.06 141.13 60.29 140.00 61.00
C 138.28 62.60 137.85 68.39 134.74 69.74 C 131.64 71.10 132.26 70.90 131.00 74.00
C 128.33 74.00 125.67 74.00 123.00 74.00
C 122.72 74.58 123.45 76.58 123.00 77.00
C 121.26 78.81 103.15 79.33 102.00 77.00
C 101.73 76.45 102.44 74.39 102.00 74.00
C 96.85 75.64 94.98 68.32 93.00 66.00
C 91.99 65.12 90.98 65.66 90.00 65.00
C 87.78 63.51 89.62 59.31 89.00 57.00
C 87.91 56.27 87.12 57.12 86.00 56.00
C 85.39 55.39 84.43 54.15 85.00 53.00
C 84.74 53.08 82.16 53.17 82.00 53.00
C 80.06 51.13 81.41 47.59 81.00 45.00
C 76.05 46.49 77.82 40.64 74.00 40.00
C 73.02 38.00 72.75 35.62 73.00 33.00
C 67.67 34.36 68.68 28.23 64.00 28.00
C 63.90 25.00 64.83 21.57 62.00 20.00
C 61.51 18.95 60.40 17.65 61.00 16.00
C 59.14 16.00 58.24 16.23 57.00 15.00
C 56.47 14.48 55.31 13.02 56.00 12.00
C 55.61 12.00 53.24 12.26 53.00 12.00
C 51.82 12.04 51.69 8.68 52.00 8.00
C 49.50 8.64 47.28 6.54 48.00 4.00
C 39.00 4.00 30.00 4.00 21.00 4.00
C 21.31 4.68 21.18 8.04 20.00 8.00
M 49.00 12.00 
C 51.23 17.37 42.47 17.02 44.00 12.00
C 40.00 12.00 36.00 12.00 32.00 12.00
C 32.64 3.92 45.53 8.51 49.00 12.00
M 20.00 16.00 
C 20.37 17.22 19.72 18.75 20.00 20.00
C 18.72 19.72 16.50 20.76 16.00 19.00
C 15.90 18.80 15.86 16.14 16.00 16.00
C 16.60 14.50 19.33 14.62 20.00 16.00
M 32.00 24.00 
C 31.66 24.17 29.36 24.14 29.00 24.00
C 27.95 23.58 27.54 21.02 28.00 20.00
C 31.15 16.76 35.17 22.37 32.00 24.00
M 61.00 77.00 
C 60.51 76.54 61.50 74.44 61.00 74.00
C 56.31 73.81 52.41 66.72 56.33 61.33 C 60.25 55.94 64.62 68.04 62.00 72.00
C 73.31 74.90 64.17 59.70 70.00 56.00
C 77.16 54.40 72.87 69.42 74.00 73.00
C 71.03 73.71 69.75 75.01 69.00 78.00
C 66.48 77.44 62.70 79.19 61.00 77.00 Z"/>
</g>
<g fill="#03110D" fill-opacity="1.00" stroke="None">
<path d="
M 52.00 7.00 
C 51.53 6.56 52.50 4.39 52.00 4.00
C 51.54 3.87 50.42 4.18 50.00 4.00
C 50.31 5.49 47.74 7.24 52.00 7.00 Z"/>
</g>
<g fill="#344A33" fill-opacity="1.00" stroke="None">
<path d="
M 52.00 7.00 
C 52.00 7.00 52.50 6.95 53.00 7.00
C 52.48 5.98 53.57 4.45 52.00 4.00
C 52.50 4.39 51.53 6.56 52.00 7.00 Z"/>
</g>
<g fill="#445E5E" fill-opacity="1.00" stroke="None">
<path d="
M 11.00 8.00 
C 10.56 10.86 10.92 10.55 8.00 11.00
C 7.65 11.05 7.05 11.65 7.00 12.00
C 6.56 14.86 6.92 14.55 4.00 15.00
C 3.65 15.05 3.05 15.65 3.00 16.00
C 2.33 20.66 2.33 27.34 3.00 32.00
C 3.05 32.35 3.88 32.74 4.00 33.00
C 6.86 33.44 6.55 33.08 7.00 36.00
C 7.05 36.35 7.88 36.74 8.00 37.00
C 10.86 37.44 10.55 37.08 11.00 40.00
C 11.05 40.35 11.88 40.74 12.00 41.00
C 19.84 42.13 28.12 40.15 36.00 41.00
C 36.00 42.00 36.00 43.00 36.00 44.00
C 36.03 44.35 36.88 44.74 37.00 45.00
C 37.99 45.08 39.01 44.94 40.00 45.00
C 40.00 53.00 40.00 61.00 40.00 69.00
C 40.50 69.00 41.00 69.00 41.00 69.00
C 41.00 61.00 41.00 53.00 41.00 45.00
C 38.49 43.85 36.96 44.15 37.00 41.00
C 37.01 40.50 37.00 40.00 37.00 40.00
C 37.07 39.00 36.95 38.00 37.00 37.00
C 39.21 36.29 40.46 37.90 40.00 40.00
C 40.84 39.16 41.44 38.47 41.00 37.00
C 40.74 36.87 40.05 36.23 40.00 36.00
C 37.02 35.27 35.10 36.96 36.00 40.00
C 28.00 40.00 20.00 40.00 12.00 40.00
C 11.37 35.86 8.02 32.61 4.00 32.00
C 4.00 26.67 4.00 21.33 4.00 16.00
C 8.14 15.37 11.39 12.02 12.00 8.00
C 14.65 7.82 17.35 8.24 20.00 8.00
C 20.00 8.00 20.00 7.50 20.00 7.00
C 17.56 6.78 14.42 6.65 12.00 7.00
C 11.65 7.05 11.05 7.65 11.00 8.00 Z"/>
</g>
<g fill="#040F0B" fill-opacity="0.97" stroke="None">
<path d="
M 8.00 11.00 
C 10.92 10.55 10.56 10.86 11.00 8.00
C 7.90 8.85 8.84 7.96 8.00 11.00 Z"/>
</g>
<g fill="#DCF8F9" fill-opacity="1.00" stroke="None">
<path d="
M 49.00 12.00 
C 45.53 8.51 32.64 3.92 32.00 12.00
C 36.00 12.00 40.00 12.00 44.00 12.00
C 42.47 17.02 51.23 17.37 49.00 12.00 Z"/>
</g>
<g fill="#66979A" fill-opacity="1.00" stroke="None">
<path d="
M 53.00 12.00 
C 52.75 11.73 53.00 11.00 53.00 11.00
C 53.00 10.61 53.26 8.24 53.00 8.00
C 53.00 8.00 52.49 7.93 52.00 8.00
C 51.69 8.68 51.82 12.04 53.00 12.00 Z"/>
</g>
<g fill="#020705" fill-opacity="1.00" stroke="None">
<path d="
M 53.00 11.00 
C 53.72 10.67 57.05 10.67 57.00 12.00
C 57.51 12.48 56.51 14.51 57.00 15.00
C 57.26 15.26 59.59 15.00 60.00 15.00
C 57.88 5.50 73.52 16.68 62.00 17.00
C 64.38 19.36 67.48 22.04 66.00 27.00
C 68.32 24.04 71.90 21.76 77.00 23.00
C 77.87 18.13 71.79 20.57 69.00 20.00
C 69.00 16.00 69.00 12.00 69.00 8.00
C 64.00 8.00 59.00 8.00 54.00 8.00
C 54.00 8.00 53.50 8.00 53.00 8.00
C 53.26 8.24 53.00 10.61 53.00 11.00 Z"/>
</g>
<g fill="#41595D" fill-opacity="1.00" stroke="None">
<path d="
M 53.00 12.00 
C 53.24 12.26 55.61 12.00 56.00 12.00
C 56.50 12.00 57.00 12.00 57.00 12.00
C 57.05 10.67 53.72 10.67 53.00 11.00
C 53.00 11.00 52.75 11.73 53.00 12.00 Z"/>
</g>
<g fill="#123032" fill-opacity="1.00" stroke="None">
<path d="
M 60.00 15.00 
C 60.50 15.00 61.00 15.00 61.00 15.00
C 61.05 14.00 60.96 13.00 61.00 12.00
C 63.28 11.54 65.76 12.11 65.00 15.00
C 64.18 16.32 62.47 16.00 61.00 16.00
C 60.40 17.65 61.51 18.95 62.00 20.00
C 63.12 21.59 67.30 23.29 65.00 28.00
C 66.33 28.00 67.67 28.00 69.00 28.00
C 69.00 26.35 68.58 24.97 70.00 24.00
C 71.30 23.11 75.39 24.22 77.00 24.00
C 77.00 23.50 77.00 23.00 77.00 23.00
C 71.90 21.76 68.32 24.04 66.00 27.00
C 67.48 22.04 64.38 19.36 62.00 17.00
C 73.52 16.68 57.88 5.50 60.00 15.00 Z"/>
</g>
<g fill="#051307" fill-opacity="0.97" stroke="None">
<path d="
M 4.00 15.00 
C 6.92 14.55 6.56 14.86 7.00 12.00
C 3.90 12.85 4.84 11.96 4.00 15.00 Z"/>
</g>
<g fill="#74A2A2" fill-opacity="1.00" stroke="None">
<path d="
M 57.00 15.00 
C 56.51 14.51 57.51 12.48 57.00 12.00
C 57.00 12.00 56.50 12.00 56.00 12.00
C 55.31 13.02 56.47 14.48 57.00 15.00 Z"/>
</g>
<g fill="#499CA2" fill-opacity="1.00" stroke="None">
<path d="
M 61.00 15.00 
C 62.33 15.00 63.67 15.00 65.00 15.00
C 65.76 12.11 63.28 11.54 61.00 12.00
C 60.96 13.00 61.05 14.00 61.00 15.00 Z"/>
</g>
<g fill="#729A99" fill-opacity="1.00" stroke="None">
<path d="
M 16.00 16.00 
C 16.26 15.74 18.59 16.00 19.00 16.00
C 19.50 16.00 20.00 16.00 20.00 16.00
C 19.33 14.62 16.60 14.50 16.00 16.00 Z"/>
</g>
<g fill="#306267" fill-opacity="1.00" stroke="None">
<path d="
M 61.00 16.00 
C 62.47 16.00 64.18 16.32 65.00 15.00
C 63.67 15.00 62.33 15.00 61.00 15.00
C 61.00 15.00 60.50 15.00 60.00 15.00
C 59.59 15.00 57.26 15.26 57.00 15.00
C 58.24 16.23 59.14 16.00 61.00 16.00 Z"/>
</g>
<g fill="#000A05" fill-opacity="1.00" stroke="None">
<path d="
M 0.00 32.00 
C 0.33 32.29 2.84 31.63 3.00 32.00
C 2.33 27.34 2.33 20.66 3.00 16.00
C 2.19 16.40 0.84 15.68 0.00 16.00
L 0.00 32.00 Z"/>
</g>
<g fill="#051215" fill-opacity="1.00" stroke="None">
<path d="
M 16.00 19.00 
C 18.48 19.69 19.13 18.12 19.00 16.00
C 18.59 16.00 16.26 15.74 16.00 16.00
C 15.86 16.14 15.90 18.80 16.00 19.00 Z"/>
</g>
<g fill="#294043" fill-opacity="1.00" stroke="None">
<path d="
M 16.00 19.00 
C 16.50 20.76 18.72 19.72 20.00 20.00
C 19.72 18.75 20.37 17.22 20.00 16.00
C 20.00 16.00 19.50 16.00 19.00 16.00
C 19.13 18.12 18.48 19.69 16.00 19.00 Z"/>
</g>
<g fill="#82AAAC" fill-opacity="1.00" stroke="None">
<path d="
M 28.00 20.00 
C 28.09 19.81 29.00 20.00 29.00 20.00
C 32.00 19.51 32.24 21.46 32.00 24.00
C 35.17 22.37 31.15 16.76 28.00 20.00 Z"/>
</g>
<g fill="#739396" fill-opacity="1.00" stroke="None">
<path d="
M 40.00 36.00 
C 40.05 36.23 40.74 36.87 41.00 37.00
C 41.67 37.32 45.04 37.17 45.00 36.00
C 45.00 36.04 44.00 36.00 44.00 36.00
C 43.01 36.12 41.99 35.91 41.00 36.00
C 41.00 30.67 41.00 25.33 41.00 20.00
C 42.00 20.00 43.00 20.00 44.00 20.00
C 44.49 20.06 45.00 20.00 45.00 20.00
C 39.10 13.93 39.34 33.03 40.00 36.00 Z"/>
</g>
<g fill="#3B595B" fill-opacity="1.00" stroke="None">
<path d="
M 29.00 24.00 
C 28.37 23.47 29.45 20.74 29.00 20.00
C 29.00 20.00 28.09 19.81 28.00 20.00
C 27.54 21.02 27.95 23.58 29.00 24.00 Z"/>
</g>
<g fill="#021218" fill-opacity="1.00" stroke="None">
<path d="
M 29.00 24.00 
C 29.36 24.14 31.66 24.17 32.00 24.00
C 32.24 21.46 32.00 19.51 29.00 20.00
C 29.45 20.74 28.37 23.47 29.00 24.00 Z"/>
</g>
<g fill="#010508" fill-opacity="1.00" stroke="None">
<path d="
M 44.00 36.00 
C 43.54 30.96 43.54 25.04 44.00 20.00
C 43.00 20.00 42.00 20.00 41.00 20.00
C 41.00 25.33 41.00 30.67 41.00 36.00
C 41.99 35.91 43.01 36.12 44.00 36.00 Z"/>
</g>
<g fill="#3D5658" fill-opacity="1.00" stroke="None">
<path d="
M 44.00 36.00 
C 44.00 36.00 45.00 36.04 45.00 36.00
C 45.46 30.96 45.46 25.04 45.00 20.00
C 45.00 20.00 44.49 20.06 44.00 20.00
C 43.54 25.04 43.54 30.96 44.00 36.00 Z"/>
</g>
<g fill="#73AFB1" fill-opacity="1.00" stroke="None">
<path d="
M 73.00 33.00 
C 73.05 32.50 73.00 32.00 73.00 32.00
C 72.61 31.58 70.56 32.22 70.00 32.00
C 68.60 31.45 69.00 29.26 69.00 28.00
C 67.67 28.00 66.33 28.00 65.00 28.00
C 67.30 23.29 63.12 21.59 62.00 20.00
C 64.83 21.57 63.90 25.00 64.00 28.00
C 68.68 28.23 67.67 34.36 73.00 33.00 Z"/>
</g>
<g fill="#27585B" fill-opacity="1.00" stroke="None">
<path d="
M 77.00 24.00 
C 77.00 26.67 77.00 29.33 77.00 32.00
C 73.25 33.36 74.92 29.07 73.00 28.00
C 73.36 28.29 73.00 31.46 73.00 32.00
C 73.00 32.00 73.05 32.50 73.00 33.00
C 72.75 35.62 73.02 38.00 74.00 40.00
C 73.64 36.16 73.48 32.45 78.00 32.00
C 78.00 29.33 78.00 26.67 78.00 24.00
C 77.95 23.65 77.03 23.21 77.00 23.00
C 77.00 23.00 77.00 23.50 77.00 24.00 Z"/>
</g>
<g fill="#2E6363" fill-opacity="1.00" stroke="None">
<path d="
M 69.00 28.00 
C 69.00 29.26 68.60 31.45 70.00 32.00
C 69.64 31.71 70.00 28.54 70.00 28.00
C 70.00 26.67 70.00 25.33 70.00 24.00
C 68.58 24.97 69.00 26.35 69.00 28.00 Z"/>
</g>
<g fill="#38ACB3" fill-opacity="1.00" stroke="None">
<path d="
M 70.00 28.00 
C 70.16 27.87 72.81 27.88 73.00 28.00
C 74.92 29.07 73.25 33.36 77.00 32.00
C 77.00 29.33 77.00 26.67 77.00 24.00
C 75.39 24.22 71.30 23.11 70.00 24.00
C 70.00 25.33 70.00 26.67 70.00 28.00 Z"/>
</g>
<g fill="#000604" fill-opacity="1.00" stroke="None">
<path d="
M 74.00 40.00 
C 78.15 40.05 77.39 43.06 81.00 44.00
C 80.76 43.23 80.60 39.95 82.00 40.00
C 83.99 39.73 87.03 39.64 89.00 40.00
C 89.87 35.13 83.79 37.57 81.00 37.00
C 81.00 32.67 81.00 28.33 81.00 24.00
C 80.02 23.88 78.98 24.15 78.00 24.00
C 78.00 26.67 78.00 29.33 78.00 32.00
C 73.48 32.45 73.64 36.16 74.00 40.00 Z"/>
</g>
<g fill="#041D1B" fill-opacity="1.00" stroke="None">
<path d="
M 70.00 32.00 
C 70.56 32.22 72.61 31.58 73.00 32.00
C 73.00 31.46 73.36 28.29 73.00 28.00
C 72.81 27.88 70.16 27.87 70.00 28.00
C 70.00 28.54 69.64 31.71 70.00 32.00 Z"/>
</g>
<g fill="#769576" fill-opacity="0.08" stroke="None">
<path d="
M 0.00 33.00 
C 1.60 32.39 2.64 33.70 4.00 34.00
C 4.00 33.50 4.00 33.00 4.00 33.00
C 3.88 32.74 3.05 32.35 3.00 32.00
C 2.84 31.63 0.33 32.29 0.00 32.00
L 0.00 33.00 Z"/>
</g>
<g fill="#000000" fill-opacity="0.00" stroke="None">
<path d="
M 0.00 126.00 
L 70.00 126.00
C 69.68 125.16 70.40 123.80 70.00 123.00
C 69.65 122.95 69.21 122.03 69.00 122.00
C 68.02 121.85 66.98 122.12 66.00 122.00
C 66.00 119.67 66.00 117.33 66.00 115.00
C 65.88 114.74 65.26 114.11 65.00 114.00
C 64.58 113.82 63.50 114.00 63.00 114.00
C 62.90 114.96 61.89 117.67 61.00 118.00
C 60.27 118.27 58.78 118.00 58.00 118.00
C 58.25 118.25 58.00 119.00 58.00 119.00
C 58.16 120.37 58.17 121.29 57.00 122.00
C 53.10 124.37 45.26 120.23 41.00 122.00
C 41.00 121.00 41.00 120.00 41.00 119.00
C 40.65 118.95 40.07 118.35 40.00 118.00
C 39.02 117.85 37.98 118.12 37.00 118.00
C 37.36 115.39 35.48 110.05 40.00 111.00
C 40.07 110.65 40.98 110.20 41.00 110.00
C 41.33 106.65 40.64 106.64 44.00 106.00
C 44.22 105.96 44.89 105.26 45.00 105.00
C 45.18 104.58 45.18 103.42 45.00 103.00
C 44.89 102.74 44.27 102.14 44.00 102.00
C 42.81 101.39 41.69 102.70 41.00 101.00
C 40.66 100.16 41.40 98.81 41.00 98.00
C 40.87 97.73 40.02 97.34 40.00 97.00
C 39.02 96.85 37.98 97.12 37.00 97.00
C 37.00 94.67 37.00 92.33 37.00 90.00
C 36.65 89.97 36.05 89.35 36.00 89.00
C 35.02 88.85 33.98 89.12 33.00 89.00
C 33.00 82.67 33.00 76.33 33.00 70.00
C 33.02 69.88 32.03 69.35 32.00 69.00
C 31.95 68.50 32.00 68.00 32.00 68.00
C 28.65 68.20 29.96 67.26 29.00 65.00
C 28.68 64.24 28.15 64.21 28.00 63.00
C 27.36 62.52 25.71 63.39 25.00 63.00
C 25.00 59.67 25.00 56.33 25.00 53.00
C 26.00 53.00 27.00 53.00 28.00 53.00
C 28.21 52.97 28.97 52.21 29.00 52.00
C 29.15 51.02 28.88 49.98 29.00 49.00
C 31.79 48.43 37.87 50.87 37.00 46.00
C 33.59 44.27 28.43 45.73 25.00 45.00 C 21.57 44.27 13.91 46.93 12.00 44.00
C 11.77 43.65 12.00 42.50 12.00 42.00
C 10.99 41.89 8.40 40.90 8.00 40.00
C 7.81 39.58 8.00 38.50 8.00 38.00
C 6.99 37.89 4.40 36.90 4.00 36.00
C 3.81 35.58 4.00 34.50 4.00 34.00
C 2.64 33.70 1.60 32.39 0.00 33.00
L 0.00 126.00 Z"/>
</g>
<g fill="#06100A" fill-opacity="1.00" stroke="None">
<path d="
M 4.00 34.00 
C 4.00 34.50 3.81 35.58 4.00 36.00
C 4.01 35.94 7.00 36.03 7.00 36.00
C 6.55 33.08 6.86 33.44 4.00 33.00
C 4.00 33.00 4.00 33.50 4.00 34.00 Z"/>
</g>
<g fill="#7C9579" fill-opacity="0.08" stroke="None">
<path d="
M 8.00 38.00 
C 8.00 37.50 8.00 37.00 8.00 37.00
C 7.88 36.74 7.05 36.35 7.00 36.00
C 7.00 36.03 4.01 35.94 4.00 36.00
C 4.40 36.90 6.99 37.89 8.00 38.00 Z"/>
</g>
<g fill="#050F0A" fill-opacity="1.00" stroke="None">
<path d="
M 8.00 38.00 
C 8.00 38.50 7.81 39.58 8.00 40.00
C 8.13 39.85 11.00 40.11 11.00 40.00
C 10.55 37.08 10.86 37.44 8.00 37.00
C 8.00 37.00 8.00 37.50 8.00 38.00 Z"/>
</g>
<g fill="#010908" fill-opacity="1.00" stroke="None">
<path d="
M 37.00 40.00 
C 37.47 39.50 39.42 40.40 40.00 40.00
C 40.46 37.90 39.21 36.29 37.00 37.00
C 36.95 38.00 37.07 39.00 37.00 40.00 Z"/>
</g>
<g fill="#7F987C" fill-opacity="0.08" stroke="None">
<path d="
M 12.00 42.00 
C 12.00 41.50 12.00 41.00 12.00 41.00
C 11.88 40.74 11.05 40.35 11.00 40.00
C 11.00 40.11 8.13 39.85 8.00 40.00
C 8.40 40.90 10.99 41.89 12.00 42.00 Z"/>
</g>
<g fill="#7B9496" fill-opacity="1.00" stroke="None">
<path d="
M 37.00 41.00 
C 38.02 41.69 39.48 40.52 40.00 40.00
C 39.42 40.40 37.47 39.50 37.00 40.00
C 37.00 40.00 37.01 40.50 37.00 41.00 Z"/>
</g>
<g fill="#51787C" fill-opacity="1.00" stroke="None">
<path d="
M 82.00 53.00 
C 81.75 52.73 82.00 52.00 82.00 52.00
C 82.00 49.95 82.57 46.96 82.00 45.00
C 81.65 44.97 81.24 44.06 81.00 44.00
C 77.39 43.06 78.15 40.05 74.00 40.00
C 77.82 40.64 76.05 46.49 81.00 45.00
C 81.41 47.59 80.06 51.13 82.00 53.00 Z"/>
</g>
<g fill="#1A5055" fill-opacity="1.00" stroke="None">
<path d="
M 81.00 44.00 
C 81.24 44.06 81.65 44.97 82.00 45.00
C 82.99 45.08 84.01 44.94 85.00 45.00
C 84.64 47.61 86.52 52.95 82.00 52.00
C 82.00 52.00 81.75 52.73 82.00 53.00
C 82.16 53.17 84.74 53.08 85.00 53.00
C 85.35 52.89 85.95 52.35 86.00 52.00
C 86.38 49.39 85.72 46.63 86.00 44.00
C 83.72 44.46 81.24 43.89 82.00 41.00
C 82.01 40.50 82.00 40.00 82.00 40.00
C 80.60 39.95 80.76 43.23 81.00 44.00 Z"/>
</g>
<g fill="#35777B" fill-opacity="1.00" stroke="None">
<path d="
M 82.00 41.00 
C 84.33 40.95 86.67 41.04 89.00 41.00
C 89.00 44.67 89.00 48.33 89.00 52.00
C 88.00 52.00 87.00 52.00 86.00 52.00
C 85.95 52.35 85.35 52.89 85.00 53.00
C 84.43 54.15 85.39 55.39 86.00 56.00
C 84.33 52.77 88.12 53.83 89.00 53.00
C 90.89 50.52 90.44 44.03 90.00 41.00
C 89.74 40.88 89.35 40.07 89.00 40.00
C 87.03 39.64 83.99 39.73 82.00 40.00
C 82.00 40.00 82.01 40.50 82.00 41.00 Z"/>
</g>
<g fill="#010401" fill-opacity="1.00" stroke="None">
<path d="
M 12.00 42.00 
C 12.00 42.50 11.77 43.65 12.00 44.00
C 18.49 46.88 29.00 42.45 36.00 44.00
C 36.00 43.00 36.00 42.00 36.00 41.00
C 28.12 40.15 19.84 42.13 12.00 41.00
C 12.00 41.00 12.00 41.50 12.00 42.00 Z"/>
</g>
<g fill="#3AB1B8" fill-opacity="1.00" stroke="None">
<path d="
M 86.00 52.00 
C 87.00 52.00 88.00 52.00 89.00 52.00
C 89.00 48.33 89.00 44.67 89.00 41.00
C 86.67 41.04 84.33 40.95 82.00 41.00
C 81.24 43.89 83.72 44.46 86.00 44.00
C 85.72 46.63 86.38 49.39 86.00 52.00 Z"/>
</g>
<g fill="#022528" fill-opacity="1.00" stroke="None">
<path d="
M 89.00 53.00 
C 91.88 50.27 91.37 45.09 91.00 41.00
C 91.00 41.00 90.41 41.19 90.00 41.00
C 90.44 44.03 90.89 50.52 89.00 53.00 Z"/>
</g>
<g fill="#010504" fill-opacity="1.00" stroke="None">
<path d="
M 89.00 53.00 
C 88.12 53.83 84.33 52.77 86.00 56.00
C 92.38 54.09 89.99 61.41 92.00 64.00
C 92.25 58.26 94.95 54.01 102.00 56.00
C 102.00 55.00 102.00 54.00 102.00 53.00
C 99.00 53.00 96.00 53.00 93.00 53.00
C 91.96 49.85 95.23 41.62 91.00 41.00
C 91.37 45.09 91.88 50.27 89.00 53.00 Z"/>
</g>
<g fill="#657464" fill-opacity="0.08" stroke="None">
<path d="
M 37.00 46.00 
C 36.94 45.51 37.00 45.00 37.00 45.00
C 36.88 44.74 36.03 44.35 36.00 44.00
C 29.00 42.45 18.49 46.88 12.00 44.00
C 13.91 46.93 21.57 44.27 25.00 45.00 C 28.43 45.73 33.59 44.27 37.00 46.00 Z"/>
</g>
<g fill="#020504" fill-opacity="0.99" stroke="None">
<path d="
M 37.00 46.00 
C 37.87 50.87 31.79 48.43 29.00 49.00
C 28.88 49.98 29.15 51.02 29.00 52.00
C 40.09 49.73 37.00 61.59 37.00 69.00
C 38.00 69.00 39.00 69.00 40.00 69.00
C 40.00 61.00 40.00 53.00 40.00 45.00
C 39.01 44.94 37.99 45.08 37.00 45.00
C 37.00 45.00 36.94 45.51 37.00 46.00 Z"/>
</g>
<g fill="#000708" fill-opacity="1.00" stroke="None">
<path d="
M 82.00 52.00 
C 86.52 52.95 84.64 47.61 85.00 45.00
C 84.01 44.94 82.99 45.08 82.00 45.00
C 82.57 46.96 82.00 49.95 82.00 52.00 Z"/>
</g>
<g fill="#446667" fill-opacity="1.00" stroke="None">
<path d="
M 28.00 53.00 
C 28.00 52.96 29.00 53.00 29.00 53.00
C 31.31 52.78 33.68 53.16 36.00 53.00
C 36.00 58.00 36.00 63.00 36.00 68.00
C 36.00 68.50 36.00 69.00 36.00 69.00
C 36.00 69.50 36.00 70.00 36.00 70.00
C 36.00 76.12 35.13 82.95 36.00 89.00
C 36.05 89.35 36.65 89.97 37.00 90.00
C 37.99 90.08 39.01 89.94 40.00 90.00
C 40.00 92.33 40.00 94.67 40.00 97.00
C 40.02 97.34 40.87 97.73 41.00 98.00
C 40.75 97.73 41.00 97.00 41.00 97.00
C 41.29 93.90 41.84 88.00 37.00 89.00
C 37.00 82.33 37.00 75.67 37.00 69.00
C 37.00 61.59 40.09 49.73 29.00 52.00
C 28.97 52.21 28.21 52.97 28.00 53.00 Z"/>
</g>
<g fill="#050B0A" fill-opacity="0.99" stroke="None">
<path d="
M 28.00 63.00 
C 27.62 59.92 27.72 56.09 28.00 53.00
C 27.00 53.00 26.00 53.00 25.00 53.00
C 25.00 56.33 25.00 59.67 25.00 63.00
C 25.71 63.39 27.36 62.52 28.00 63.00 Z"/>
</g>
<g fill="#749C9D" fill-opacity="0.96" stroke="None">
<path d="
M 28.00 63.00 
C 28.15 64.21 28.68 64.24 29.00 65.00
C 30.63 66.05 32.67 64.50 32.00 68.00
C 32.00 68.00 31.95 68.50 32.00 69.00
C 32.35 69.21 35.65 69.21 36.00 69.00
C 36.00 69.00 36.00 68.50 36.00 68.00
C 32.09 67.70 33.47 63.60 29.00 64.00
C 29.00 60.33 29.00 56.67 29.00 53.00
C 29.00 53.00 28.00 52.96 28.00 53.00
C 27.72 56.09 27.62 59.92 28.00 63.00 Z"/>
</g>
<g fill="#A4E1E1" fill-opacity="1.00" stroke="None">
<path d="
M 36.00 68.00 
C 36.00 63.00 36.00 58.00 36.00 53.00
C 33.68 53.16 31.31 52.78 29.00 53.00
C 29.00 56.67 29.00 60.33 29.00 64.00
C 33.47 63.60 32.09 67.70 36.00 68.00 Z"/>
</g>
<g fill="#283D38" fill-opacity="0.99" stroke="None">
<path d="
M 135.00 63.00 
C 132.47 65.25 131.27 67.24 129.00 69.00
C 129.00 69.00 128.76 69.69 129.00 70.00
C 131.44 73.09 122.63 73.08 123.00 70.00
C 122.01 70.51 121.46 72.17 121.00 73.00
C 120.79 73.38 121.00 74.00 121.00 74.00
C 122.05 75.13 121.53 75.52 122.00 77.00
C 122.50 77.00 123.00 77.00 123.00 77.00
C 123.45 76.58 122.72 74.58 123.00 74.00
C 124.15 71.66 128.95 73.71 131.00 73.00
C 129.00 67.65 136.95 70.43 135.00 65.00
C 139.01 66.43 138.45 62.83 140.00 61.00
C 141.13 60.29 141.94 61.06 143.00 60.00
C 143.78 58.83 142.31 57.86 144.00 57.00
C 145.00 57.00 146.00 57.00 147.00 57.00
C 146.84 59.32 147.22 61.69 147.00 64.00
C 147.12 63.74 147.73 63.13 148.00 63.00
C 148.41 61.09 147.69 58.94 148.00 57.00
C 146.15 55.82 143.11 56.27 144.00 53.00
C 141.32 56.62 138.10 60.24 135.00 63.00
M 142.00 58.00 
C 142.73 58.73 141.29 60.67 140.29 59.63 C 139.30 58.60 141.44 57.44 142.00 58.00
M 138.00 62.00 
C 138.73 62.73 137.29 64.67 136.29 63.63 C 135.30 62.60 137.45 61.45 138.00 62.00
M 134.00 66.00 
C 134.73 66.73 133.29 68.67 132.29 67.63 C 131.30 66.60 133.45 65.45 134.00 66.00 Z"/>
</g>
<g fill="#030806" fill-opacity="0.99" stroke="None">
<path d="
M 148.00 63.00 
C 148.81 62.60 150.16 63.32 151.00 63.00
L 151.00 53.00
C 148.67 53.00 146.33 53.00 144.00 53.00
C 143.11 56.27 146.15 55.82 148.00 57.00
C 147.69 58.94 148.41 61.09 148.00 63.00 Z"/>
</g>
<g fill="#97BFC1" fill-opacity="1.00" stroke="None">
<path d="
M 61.00 74.00 
C 62.69 74.07 66.54 71.88 69.00 73.00
C 69.65 67.84 67.69 61.34 70.00 57.00
C 70.24 56.68 70.00 56.00 70.00 56.00
C 64.17 59.70 73.31 74.90 62.00 72.00
C 64.62 68.04 60.25 55.94 56.33 61.33 C 52.41 66.72 56.31 73.81 61.00 74.00
M 61.00 61.00 
C 61.00 65.00 61.00 69.00 61.00 73.00
C 54.90 75.05 54.77 58.97 61.00 61.00 Z"/>
</g>
<g fill="#6E9193" fill-opacity="1.00" stroke="None">
<path d="
M 70.00 57.00 
C 71.00 56.95 72.00 57.04 73.00 57.00
C 73.00 62.33 73.00 67.67 73.00 73.00
C 72.00 73.00 71.00 73.00 70.00 73.00
C 69.65 73.03 69.03 73.65 69.00 74.00
C 68.92 74.99 69.06 76.01 69.00 77.00
C 66.67 77.00 64.33 77.00 62.00 77.00
C 61.50 76.95 61.00 77.00 61.00 77.00
C 62.70 79.19 66.48 77.44 69.00 78.00
C 69.75 75.01 71.03 73.71 74.00 73.00
C 72.87 69.42 77.16 54.40 70.00 56.00
C 70.00 56.00 70.24 56.68 70.00 57.00 Z"/>
</g>
<g fill="#143434" fill-opacity="1.00" stroke="None">
<path d="
M 89.00 57.00 
C 91.22 58.49 89.38 62.69 90.00 65.00
C 90.98 65.66 91.99 65.12 93.00 66.00
C 93.98 66.86 94.10 68.01 95.00 69.00
C 95.00 68.00 95.00 67.00 95.00 66.00
C 97.33 66.00 99.67 66.00 102.00 66.00
C 102.00 66.00 102.00 65.50 102.00 65.00
C 99.35 65.24 96.65 64.82 94.00 65.00
C 92.33 58.56 95.56 55.39 102.00 57.00
C 102.00 59.33 102.00 61.67 102.00 64.00
C 102.12 63.74 103.02 63.33 103.00 63.00
C 102.95 62.11 103.19 55.19 106.00 58.00
C 105.53 57.03 103.10 56.20 102.00 56.00
C 94.95 54.01 92.25 58.26 92.00 64.00
C 89.99 61.41 92.38 54.09 86.00 56.00
C 87.12 57.12 87.91 56.27 89.00 57.00 Z"/>
</g>
<g fill="#3A5053" fill-opacity="1.00" stroke="None">
<path d="
M 61.00 74.00 
C 61.50 74.44 60.51 76.54 61.00 77.00
C 61.00 77.00 61.50 76.95 62.00 77.00
C 61.95 76.00 62.04 75.00 62.00 74.00
C 64.33 74.00 66.67 74.00 69.00 74.00
C 69.03 73.65 69.65 73.03 70.00 73.00
C 71.13 67.92 69.15 62.15 70.00 57.00
C 67.69 61.34 69.65 67.84 69.00 73.00
C 66.54 71.88 62.69 74.07 61.00 74.00 Z"/>
</g>
<g fill="#010707" fill-opacity="1.00" stroke="None">
<path d="
M 70.00 73.00 
C 71.00 73.00 72.00 73.00 73.00 73.00
C 73.00 67.67 73.00 62.33 73.00 57.00
C 72.00 57.04 71.00 56.95 70.00 57.00
C 69.15 62.15 71.13 67.92 70.00 73.00 Z"/>
</g>
<g fill="#5F8F92" fill-opacity="1.00" stroke="None">
<path d="
M 90.00 65.00 
C 89.38 62.69 91.22 58.49 89.00 57.00
C 89.62 59.31 87.78 63.51 90.00 65.00 Z"/>
</g>
<g fill="#36ABB1" fill-opacity="1.00" stroke="None">
<path d="
M 102.00 65.00 
C 102.00 65.00 101.95 64.50 102.00 64.00
C 102.00 61.67 102.00 59.33 102.00 57.00
C 95.56 55.39 92.33 58.56 94.00 65.00
C 96.65 64.82 99.35 65.24 102.00 65.00 Z"/>
</g>
<g fill="#719E9F" fill-opacity="1.00" stroke="None">
<path d="
M 143.00 60.00 
C 143.87 59.13 144.39 58.50 144.00 57.00
C 142.31 57.86 143.78 58.83 143.00 60.00 Z"/>
</g>
<g fill="#020703" fill-opacity="1.00" stroke="None">
<path d="
M 103.00 63.00 
C 105.45 62.63 107.53 61.14 106.00 58.00
C 103.19 55.19 102.95 62.11 103.00 63.00 Z"/>
</g>
<g fill="#000704" fill-opacity="1.00" stroke="None">
<path d="
M 142.00 58.00 
C 141.44 57.44 139.30 58.60 140.29 59.63 C 141.29 60.67 142.73 58.73 142.00 58.00 Z"/>
</g>
<g fill="#051112" fill-opacity="1.00" stroke="None">
<path d="
M 61.00 61.00 
C 54.77 58.97 54.90 75.05 61.00 73.00
C 61.00 69.00 61.00 65.00 61.00 61.00 Z"/>
</g>
<g fill="#6EA0A2" fill-opacity="1.00" stroke="None">
<path d="
M 123.00 74.00 
C 125.67 74.00 128.33 74.00 131.00 74.00
C 132.26 70.90 131.64 71.10 134.74 69.74 C 137.85 68.39 138.28 62.60 140.00 61.00
C 138.45 62.83 139.01 66.43 135.00 65.00
C 136.95 70.43 129.00 67.65 131.00 73.00
C 128.95 73.71 124.15 71.66 123.00 74.00 Z"/>
</g>
<g fill="#000805" fill-opacity="1.00" stroke="None">
<path d="
M 138.00 62.00 
C 137.45 61.45 135.30 62.60 136.29 63.63 C 137.29 64.67 138.73 62.73 138.00 62.00 Z"/>
</g>
<g fill="#A9C1A8" fill-opacity="0.95" stroke="None">
<path d="
M 129.00 69.00 
C 131.27 67.24 132.47 65.25 135.00 63.00
C 133.47 63.93 131.83 64.23 130.00 64.00
C 130.74 65.86 129.25 67.45 129.00 69.00 Z"/>
</g>
<g fill="#000000" fill-opacity="0.00" stroke="None">
<path d="
M 147.00 64.00 
C 147.00 64.00 147.00 64.50 147.00 65.00
C 147.00 67.67 147.00 70.33 147.00 73.00
C 146.00 73.00 145.00 73.00 144.00 73.00
C 141.81 75.70 142.35 77.50 138.00 78.00
C 136.04 79.76 138.65 80.00 135.00 81.00
C 134.76 81.07 134.35 81.89 134.00 82.00
C 133.16 85.04 134.10 84.15 131.00 85.00
C 130.76 85.07 130.35 85.95 130.00 86.00
C 129.16 89.04 130.10 88.15 127.00 89.00
C 126.95 89.35 126.35 89.95 126.00 90.00
C 125.16 93.04 126.10 92.15 123.00 93.00
C 122.95 93.35 122.34 93.98 122.00 94.00
C 121.85 94.98 122.12 96.02 122.00 97.00
C 119.67 97.00 117.33 97.00 115.00 97.00
C 114.97 97.35 114.35 97.97 114.00 98.00
C 112.77 102.56 110.41 99.62 107.00 101.00
C 106.64 101.68 106.35 102.35 106.00 103.00
C 103.91 106.92 97.35 104.21 93.00 105.00
C 93.00 109.00 93.00 113.00 93.00 117.00
C 92.12 118.45 91.26 117.35 90.00 118.00
C 89.73 118.14 89.35 118.89 89.00 119.00
C 88.16 122.04 89.10 121.15 86.00 122.00
C 85.76 122.07 85.35 122.95 85.00 123.00
C 85.49 123.60 84.61 125.32 85.00 126.00
L 151.00 126.00
L 151.00 63.00
C 150.16 63.32 148.81 62.60 148.00 63.00
C 147.73 63.13 147.12 63.74 147.00 64.00 Z"/>
</g>
<g fill="#000E08" fill-opacity="1.00" stroke="None">
<path d="
M 32.00 68.00 
C 32.67 64.50 30.63 66.05 29.00 65.00
C 29.96 67.26 28.65 68.20 32.00 68.00 Z"/>
</g>
<g fill="#304541" fill-opacity="0.98" stroke="None">
<path d="
M 135.00 78.00 
C 135.31 77.69 137.53 78.05 138.00 78.00
C 142.35 77.50 141.81 75.70 144.00 73.00
C 144.61 70.48 143.55 67.56 144.00 65.00
C 141.81 66.70 143.56 70.48 143.00 73.00
C 140.35 73.36 136.30 75.96 135.00 78.00
M 142.00 74.00 
C 142.73 74.73 141.29 76.67 140.29 75.63 C 139.30 74.60 141.44 73.44 142.00 74.00 Z"/>
</g>
<g fill="#020A04" fill-opacity="0.99" stroke="None">
<path d="
M 144.00 73.00 
C 145.00 73.00 146.00 73.00 147.00 73.00
C 147.00 70.33 147.00 67.67 147.00 65.00
C 146.58 65.45 144.58 64.72 144.00 65.00
C 143.55 67.56 144.61 70.48 144.00 73.00 Z"/>
</g>
<g fill="#699B9A" fill-opacity="0.94" stroke="None">
<path d="
M 102.00 74.00 
C 102.25 73.92 102.65 73.05 103.00 73.00
C 102.77 72.95 102.09 72.25 102.00 72.00
C 100.95 72.49 99.66 73.60 98.00 73.00
C 98.46 70.72 97.89 68.24 95.00 69.00
C 94.10 68.01 93.98 66.86 93.00 66.00
C 94.98 68.32 96.85 75.64 102.00 74.00 Z"/>
</g>
<g fill="#030D08" fill-opacity="1.00" stroke="None">
<path d="
M 95.00 69.00 
C 97.89 68.24 98.46 70.72 98.00 73.00
C 99.66 73.60 100.95 72.49 102.00 72.00
C 101.44 70.48 102.00 67.64 102.00 66.00
C 99.67 66.00 97.33 66.00 95.00 66.00
C 95.00 67.00 95.00 68.00 95.00 69.00 Z"/>
</g>
<g fill="#000401" fill-opacity="1.00" stroke="None">
<path d="
M 134.00 66.00 
C 133.45 65.45 131.30 66.60 132.29 67.63 C 133.29 68.67 134.73 66.73 134.00 66.00 Z"/>
</g>
<g fill="#1A3C3C" fill-opacity="1.00" stroke="None">
<path d="
M 33.00 70.00 
C 33.03 69.80 35.82 70.19 36.00 70.00
C 36.00 70.00 36.00 69.50 36.00 69.00
C 35.65 69.21 32.35 69.21 32.00 69.00
C 32.03 69.35 33.02 69.88 33.00 70.00 Z"/>
</g>
<g fill="#82D2D6" fill-opacity="1.00" stroke="None">
<path d="
M 41.00 97.00 
C 41.72 96.67 45.05 96.67 45.00 98.00
C 45.38 98.36 44.56 100.76 45.00 101.00
C 47.65 100.15 50.87 101.91 50.00 105.00
C 53.33 105.00 56.67 105.00 60.00 105.00
C 60.00 104.00 60.00 103.00 60.00 102.00
C 57.67 102.00 55.33 102.00 53.00 102.00
C 52.37 97.86 49.02 94.61 45.00 94.00
C 45.54 90.98 44.78 87.76 41.00 89.00
C 41.00 82.33 41.00 75.67 41.00 69.00
C 41.00 69.00 40.50 69.00 40.00 69.00
C 39.00 69.00 38.00 69.00 37.00 69.00
C 37.00 75.67 37.00 82.33 37.00 89.00
C 41.84 88.00 41.29 93.90 41.00 97.00 Z"/>
</g>
<g fill="#010604" fill-opacity="1.00" stroke="None">
<path d="
M 36.00 89.00 
C 35.13 82.95 36.00 76.12 36.00 70.00
C 35.82 70.19 33.03 69.80 33.00 70.00
C 33.00 76.33 33.00 82.67 33.00 89.00
C 33.98 89.12 35.02 88.85 36.00 89.00 Z"/>
</g>
<g fill="#000704" fill-opacity="1.00" stroke="None">
<path d="
M 129.00 70.00 
C 127.34 70.35 124.49 69.24 123.00 70.00
C 122.63 73.08 131.44 73.09 129.00 70.00 Z"/>
</g>
<g fill="#3F4D40" fill-opacity="0.13" stroke="None">
<path d="
M 102.00 74.00 
C 106.73 75.52 116.01 74.45 121.00 74.00
C 121.00 74.00 120.79 73.38 121.00 73.00
C 115.51 72.50 108.45 72.21 103.00 73.00
C 102.65 73.05 102.25 73.92 102.00 74.00 Z"/>
</g>
<g fill="#040E10" fill-opacity="1.00" stroke="None">
<path d="
M 62.00 77.00 
C 64.33 77.00 66.67 77.00 69.00 77.00
C 69.06 76.01 68.92 74.99 69.00 74.00
C 66.67 74.00 64.33 74.00 62.00 74.00
C 62.04 75.00 61.95 76.00 62.00 77.00 Z"/>
</g>
<g fill="#02090B" fill-opacity="1.00" stroke="None">
<path d="
M 102.00 77.00 
C 108.67 77.00 115.33 77.00 122.00 77.00
C 121.53 75.52 122.05 75.13 121.00 74.00
C 116.01 74.45 106.73 75.52 102.00 74.00
C 102.44 74.39 101.73 76.45 102.00 77.00 Z"/>
</g>
<g fill="#010604" fill-opacity="1.00" stroke="None">
<path d="
M 142.00 74.00 
C 141.44 73.44 139.30 74.60 140.29 75.63 C 141.29 76.67 142.73 74.73 142.00 74.00 Z"/>
</g>
<g fill="#54868A" fill-opacity="1.00" stroke="None">
<path d="
M 123.00 77.00 
C 123.00 77.00 122.50 77.00 122.00 77.00
C 115.33 77.00 108.67 77.00 102.00 77.00
C 103.15 79.33 121.26 78.81 123.00 77.00 Z"/>
</g>
<g fill="#0A1512" fill-opacity="0.97" stroke="None">
<path d="
M 135.00 81.00 
C 138.65 80.00 136.04 79.76 138.00 78.00
C 137.53 78.05 135.31 77.69 135.00 78.00
C 134.56 78.70 135.48 80.33 135.00 81.00 Z"/>
</g>
<g fill="#435D5C" fill-opacity="0.98" stroke="None">
<path d="
M 131.00 82.00 
C 131.39 81.61 133.45 82.17 134.00 82.00
C 134.35 81.89 134.76 81.07 135.00 81.00
C 134.38 80.26 131.31 81.22 131.00 82.00 Z"/>
</g>
<g fill="#030D07" fill-opacity="0.97" stroke="None">
<path d="
M 131.00 85.00 
C 134.10 84.15 133.16 85.04 134.00 82.00
C 133.45 82.17 131.39 81.61 131.00 82.00
C 130.79 82.53 131.40 84.65 131.00 85.00 Z"/>
</g>
<g fill="#598486" fill-opacity="0.99" stroke="None">
<path d="
M 106.00 98.00 
C 108.33 98.00 110.67 98.00 113.00 98.00
C 113.50 98.00 114.00 98.00 114.00 98.00
C 114.35 97.97 114.97 97.35 115.00 97.00
C 115.08 96.01 114.94 94.99 115.00 94.00
C 117.33 94.00 119.67 94.00 122.00 94.00
C 122.34 93.98 122.95 93.35 123.00 93.00
C 123.44 90.14 123.08 90.45 126.00 90.00
C 126.35 89.95 126.95 89.35 127.00 89.00
C 127.44 86.14 127.08 86.45 130.00 86.00
C 130.35 85.95 130.76 85.07 131.00 85.00
C 126.36 84.99 123.05 89.12 122.00 93.00
C 118.90 92.99 112.97 91.99 114.00 97.00
C 111.95 97.71 107.15 95.66 106.00 98.00 Z"/>
</g>
<g fill="#020A08" fill-opacity="0.97" stroke="None">
<path d="
M 127.00 89.00 
C 130.10 88.15 129.16 89.04 130.00 86.00
C 127.08 86.45 127.44 86.14 127.00 89.00 Z"/>
</g>
<g fill="#729798" fill-opacity="1.00" stroke="None">
<path d="
M 65.00 90.00 
C 65.27 89.75 66.00 90.00 66.00 90.00
C 68.25 89.57 69.44 90.69 69.00 93.00
C 68.91 93.48 69.00 94.00 69.00 94.00
C 71.88 91.20 67.81 87.11 65.00 90.00 Z"/>
</g>
<g fill="#679193" fill-opacity="1.00" stroke="None">
<path d="
M 89.00 118.00 
C 89.50 118.00 90.00 118.00 90.00 118.00
C 90.35 114.08 89.21 107.64 90.00 104.00 C 90.79 100.36 87.92 92.00 91.00 90.00
C 91.35 89.77 92.92 89.81 93.00 90.00
C 90.83 85.57 87.63 97.40 89.00 101.00 C 90.37 104.60 88.62 113.83 89.00 118.00 Z"/>
</g>
<g fill="#010704" fill-opacity="1.00" stroke="None">
<path d="
M 40.00 97.00 
C 40.00 94.67 40.00 92.33 40.00 90.00
C 39.01 89.94 37.99 90.08 37.00 90.00
C 37.00 92.33 37.00 94.67 37.00 97.00
C 37.98 97.12 39.02 96.85 40.00 97.00 Z"/>
</g>
<g fill="#314B4D" fill-opacity="1.00" stroke="None">
<path d="
M 65.00 93.00 
C 65.11 93.35 66.01 93.99 66.00 94.00
C 66.18 93.61 68.68 94.34 69.00 94.00
C 69.00 94.00 68.91 93.48 69.00 93.00
C 66.53 93.15 65.85 92.54 66.00 90.00
C 66.00 90.00 65.27 89.75 65.00 90.00
C 64.83 90.16 64.92 92.74 65.00 93.00 Z"/>
</g>
<g fill="#040F11" fill-opacity="1.00" stroke="None">
<path d="
M 69.00 93.00 
C 69.44 90.69 68.25 89.57 66.00 90.00
C 65.85 92.54 66.53 93.15 69.00 93.00 Z"/>
</g>
<g fill="#0F2121" fill-opacity="0.99" stroke="None">
<path d="
M 90.00 118.00 
C 91.26 117.35 92.12 118.45 93.00 117.00
C 91.57 112.31 88.05 96.64 91.00 90.00
C 87.92 92.00 90.79 100.36 90.00 104.00 C 89.21 107.64 90.35 114.08 90.00 118.00 Z"/>
</g>
<g fill="#010303" fill-opacity="0.99" stroke="None">
<path d="
M 93.00 117.00 
C 93.00 113.00 93.00 109.00 93.00 105.00
C 97.35 104.21 103.91 106.92 106.00 103.00
C 103.62 104.09 96.05 103.70 93.78 102.22 C 91.51 100.74 94.04 92.34 93.00 90.00
C 92.92 89.81 91.35 89.77 91.00 90.00
C 88.05 96.64 91.57 112.31 93.00 117.00 Z"/>
</g>
<g fill="#223637" fill-opacity="1.00" stroke="None">
<path d="
M 106.00 103.00 
C 106.35 102.35 106.64 101.68 107.00 101.00
C 108.30 98.56 110.51 99.18 113.00 98.00
C 110.67 98.00 108.33 98.00 106.00 98.00
C 105.60 98.80 106.40 100.20 106.00 101.00
C 105.02 102.98 95.12 102.60 94.00 101.00
C 92.05 98.22 95.70 92.70 93.00 90.00
C 94.04 92.34 91.51 100.74 93.78 102.22 C 96.05 103.70 103.62 104.09 106.00 103.00 Z"/>
</g>
<g fill="#010B09" fill-opacity="0.97" stroke="None">
<path d="
M 123.00 93.00 
C 126.10 92.15 125.16 93.04 126.00 90.00
C 123.08 90.45 123.44 90.14 123.00 93.00 Z"/>
</g>
<g fill="#809E9F" fill-opacity="1.00" stroke="None">
<path d="
M 61.00 94.00 
C 62.33 94.00 63.67 94.00 65.00 94.00
C 65.00 100.67 65.00 107.33 65.00 114.00
C 65.00 114.04 66.00 114.00 66.00 114.00
C 66.52 108.26 67.25 99.61 66.00 94.00
C 66.01 93.99 65.11 93.35 65.00 93.00
C 63.81 92.43 61.64 93.10 61.00 94.00 Z"/>
</g>
<g fill="#040F0F" fill-opacity="1.00" stroke="None">
<path d="
M 61.00 102.00 
C 61.37 103.22 60.72 104.75 61.00 106.00
C 57.00 106.00 53.00 106.00 49.00 106.00
C 47.69 112.87 57.04 108.99 61.00 110.00
C 62.46 109.95 61.90 113.20 62.00 114.00
C 62.50 113.95 63.00 114.00 63.00 114.00
C 63.50 114.00 64.58 113.82 65.00 114.00
C 65.00 107.33 65.00 100.67 65.00 94.00
C 63.67 94.00 62.33 94.00 61.00 94.00
C 60.03 95.37 61.16 100.26 61.00 102.00 Z"/>
</g>
<g fill="#000904" fill-opacity="0.97" stroke="None">
<path d="
M 115.00 97.00 
C 117.33 97.00 119.67 97.00 122.00 97.00
C 122.12 96.02 121.85 94.98 122.00 94.00
C 119.67 94.00 117.33 94.00 115.00 94.00
C 114.94 94.99 115.08 96.01 115.00 97.00 Z"/>
</g>
<g fill="#649A9D" fill-opacity="1.00" stroke="None">
<path d="
M 41.00 98.00 
C 41.24 98.26 43.61 98.00 44.00 98.00
C 44.50 98.00 45.00 98.00 45.00 98.00
C 45.05 96.67 41.72 96.67 41.00 97.00
C 41.00 97.00 40.75 97.73 41.00 98.00 Z"/>
</g>
<g fill="#05110F" fill-opacity="1.00" stroke="None">
<path d="
M 41.00 101.00 
C 43.48 101.69 44.13 100.12 44.00 98.00
C 43.61 98.00 41.24 98.26 41.00 98.00
C 41.40 98.81 40.66 100.16 41.00 101.00 Z"/>
</g>
<g fill="#344C48" fill-opacity="1.00" stroke="None">
<path d="
M 41.00 101.00 
C 41.69 102.70 42.81 101.39 44.00 102.00
C 44.04 101.78 45.01 101.01 45.00 101.00
C 44.56 100.76 45.38 98.36 45.00 98.00
C 45.00 98.00 44.50 98.00 44.00 98.00
C 44.13 100.12 43.48 101.69 41.00 101.00 Z"/>
</g>
<g fill="#010803" fill-opacity="0.91" stroke="None">
<path d="
M 107.00 101.00 
C 110.41 99.62 112.77 102.56 114.00 98.00
C 114.00 98.00 113.50 98.00 113.00 98.00
C 110.51 99.18 108.30 98.56 107.00 101.00 Z"/>
</g>
<g fill="#7BACAD" fill-opacity="1.00" stroke="None">
<path d="
M 44.00 102.00 
C 44.27 102.14 44.89 102.74 45.00 103.00
C 45.45 103.02 46.73 101.51 48.00 102.00
C 49.43 102.55 49.47 105.43 48.00 106.00
C 46.57 106.55 45.52 104.98 45.00 105.00
C 44.89 105.26 44.22 105.96 44.00 106.00
C 44.04 106.22 44.76 106.94 45.00 107.00
C 47.69 107.70 48.18 107.96 49.00 111.00
C 53.00 111.00 57.00 111.00 61.00 111.00
C 60.99 110.50 61.00 110.00 61.00 110.00
C 57.04 108.99 47.69 112.87 49.00 106.00
C 53.00 106.00 57.00 106.00 61.00 106.00
C 60.72 104.75 61.37 103.22 61.00 102.00
C 61.00 102.00 60.50 101.95 60.00 102.00
C 60.00 103.00 60.00 104.00 60.00 105.00
C 56.67 105.00 53.33 105.00 50.00 105.00
C 50.87 101.91 47.65 100.15 45.00 101.00
C 45.01 101.01 44.04 101.78 44.00 102.00 Z"/>
</g>
<g fill="#629599" fill-opacity="1.00" stroke="None">
<path d="
M 106.00 101.00 
C 102.00 101.00 98.00 101.00 94.00 101.00
C 95.12 102.60 105.02 102.98 106.00 101.00 Z"/>
</g>
<g fill="#071812" fill-opacity="1.00" stroke="None">
<path d="
M 45.00 103.00 
C 45.18 103.42 45.18 104.58 45.00 105.00
C 45.52 104.98 46.57 106.55 48.00 106.00
C 48.00 104.67 48.00 103.33 48.00 102.00
C 46.73 101.51 45.45 103.02 45.00 103.00 Z"/>
</g>
<g fill="#345757" fill-opacity="1.00" stroke="None">
<path d="
M 48.00 106.00 
C 49.47 105.43 49.43 102.55 48.00 102.00
C 48.00 103.33 48.00 104.67 48.00 106.00 Z"/>
</g>
<g fill="#031008" fill-opacity="1.00" stroke="None">
<path d="
M 41.00 110.00 
C 41.89 109.72 43.14 110.35 44.00 110.00
C 44.57 109.52 43.38 106.37 44.00 106.00
C 40.64 106.64 41.33 106.65 41.00 110.00 Z"/>
</g>
<g fill="#3C5856" fill-opacity="1.00" stroke="None">
<path d="
M 44.00 110.00 
C 44.97 109.61 45.30 108.00 45.00 107.00
C 44.76 106.94 44.04 106.22 44.00 106.00
C 43.38 106.37 44.57 109.52 44.00 110.00 Z"/>
</g>
<g fill="#A5DDE0" fill-opacity="1.00" stroke="None">
<path d="
M 44.00 110.00 
C 43.14 110.35 41.89 109.72 41.00 110.00
C 41.78 112.42 40.42 115.52 41.00 118.00
C 46.33 118.00 51.67 118.00 57.00 118.00
C 56.88 117.89 56.90 115.16 57.00 115.00
C 58.54 112.58 61.12 115.26 61.00 111.00
C 57.00 111.00 53.00 111.00 49.00 111.00
C 48.18 107.96 47.69 107.70 45.00 107.00
C 45.30 108.00 44.97 109.61 44.00 110.00 Z"/>
</g>
<g fill="#4C6161" fill-opacity="1.00" stroke="None">
<path d="
M 40.00 111.00 
C 39.65 112.88 39.65 116.12 40.00 118.00
C 40.07 118.35 40.65 118.95 41.00 119.00
C 46.09 119.73 51.85 119.00 57.00 119.00
C 57.50 119.00 58.00 119.00 58.00 119.00
C 58.00 119.00 58.25 118.25 58.00 118.00
C 57.50 118.00 57.00 118.00 57.00 118.00
C 51.67 118.00 46.33 118.00 41.00 118.00
C 40.42 115.52 41.78 112.42 41.00 110.00
C 40.98 110.20 40.07 110.65 40.00 111.00 Z"/>
</g>
<g fill="#203C3B" fill-opacity="1.00" stroke="None">
<path d="
M 61.00 111.00 
C 61.12 115.26 58.54 112.58 57.00 115.00
C 57.50 114.40 60.26 115.37 61.00 115.00
C 61.27 114.81 61.65 114.03 62.00 114.00
C 61.90 113.20 62.46 109.95 61.00 110.00
C 61.00 110.00 60.99 110.50 61.00 111.00 Z"/>
</g>
<g fill="#020704" fill-opacity="1.00" stroke="None">
<path d="
M 40.00 118.00 
C 39.65 116.12 39.65 112.88 40.00 111.00
C 35.48 110.05 37.36 115.39 37.00 118.00
C 37.98 118.12 39.02 117.85 40.00 118.00 Z"/>
</g>
<g fill="#8A9F8C" fill-opacity="0.97" stroke="None">
<path d="
M 61.00 115.00 
C 60.51 115.35 61.44 117.56 61.00 118.00
C 61.89 117.67 62.90 114.96 63.00 114.00
C 63.00 114.00 62.50 113.95 62.00 114.00
C 61.65 114.03 61.27 114.81 61.00 115.00 Z"/>
</g>
<g fill="#425654" fill-opacity="1.00" stroke="None">
<path d="
M 66.00 115.00 
C 66.02 115.04 68.92 115.09 69.00 115.00
C 69.00 114.50 69.00 114.00 69.00 114.00
C 68.76 113.74 66.39 114.00 66.00 114.00
C 66.00 114.00 65.00 114.04 65.00 114.00
C 65.26 114.11 65.88 114.74 66.00 115.00 Z"/>
</g>
<g fill="#658F90" fill-opacity="1.00" stroke="None">
<path d="
M 69.00 115.00 
C 69.00 117.26 68.70 119.76 69.00 122.00
C 69.01 122.07 70.00 122.00 70.00 122.00
C 70.21 119.68 70.61 115.55 69.00 114.00
C 69.00 114.00 69.00 114.50 69.00 115.00 Z"/>
</g>
<g fill="#07130D" fill-opacity="0.98" stroke="None">
<path d="
M 57.00 118.00 
C 57.00 118.00 57.50 118.00 58.00 118.00
C 58.78 118.00 60.27 118.27 61.00 118.00
C 61.44 117.56 60.51 115.35 61.00 115.00
C 60.26 115.37 57.50 114.40 57.00 115.00
C 56.90 115.16 56.88 117.89 57.00 118.00 Z"/>
</g>
<g fill="#040C0A" fill-opacity="1.00" stroke="None">
<path d="
M 69.00 122.00 
C 68.70 119.76 69.00 117.26 69.00 115.00
C 68.92 115.09 66.02 115.04 66.00 115.00
C 66.00 117.33 66.00 119.67 66.00 122.00
C 66.98 122.12 68.02 121.85 69.00 122.00 Z"/>
</g>
<g fill="#5D8F8F" fill-opacity="1.00" stroke="None">
<path d="
M 85.00 122.00 
C 85.50 122.00 86.00 122.00 86.00 122.00
C 86.26 121.76 86.00 119.39 86.00 119.00
C 86.00 118.50 86.00 118.00 86.00 118.00
C 84.67 117.95 84.67 121.28 85.00 122.00 Z"/>
</g>
<g fill="#405F5C" fill-opacity="0.98" stroke="None">
<path d="
M 86.00 119.00 
C 86.16 119.17 88.74 119.08 89.00 119.00
C 89.35 118.89 89.73 118.14 90.00 118.00
C 90.00 118.00 89.50 118.00 89.00 118.00
C 88.61 118.00 86.24 117.74 86.00 118.00
C 86.00 118.00 86.00 118.50 86.00 119.00 Z"/>
</g>
<g fill="#000603" fill-opacity="0.97" stroke="None">
<path d="
M 57.00 122.00 
C 57.40 121.42 56.50 119.47 57.00 119.00
C 51.85 119.00 46.09 119.73 41.00 119.00
C 41.00 120.00 41.00 121.00 41.00 122.00
C 45.26 120.23 53.10 124.37 57.00 122.00 Z"/>
</g>
<g fill="#9CB69B" fill-opacity="0.97" stroke="None">
<path d="
M 57.00 122.00 
C 58.17 121.29 58.16 120.37 58.00 119.00
C 58.00 119.00 57.50 119.00 57.00 119.00
C 56.50 119.47 57.40 121.42 57.00 122.00 Z"/>
</g>
<g fill="#000A09" fill-opacity="0.97" stroke="None">
<path d="
M 86.00 122.00 
C 89.10 121.15 88.16 122.04 89.00 119.00
C 88.74 119.08 86.16 119.17 86.00 119.00
C 86.00 119.39 86.26 121.76 86.00 122.00 Z"/>
</g>
<g fill="#3B6663" fill-opacity="1.00" stroke="None">
<path d="
M 70.00 123.00 
C 74.37 123.63 80.63 123.63 85.00 123.00
C 85.35 122.95 85.76 122.07 86.00 122.00
C 86.00 122.00 85.50 122.00 85.00 122.00
C 80.00 122.00 75.00 122.00 70.00 122.00
C 70.00 122.00 69.01 122.07 69.00 122.00
C 69.21 122.03 69.65 122.95 70.00 123.00 Z"/>
</g>
<g fill="#010702" fill-opacity="0.97" stroke="None">
<path d="
M 70.00 126.00 
L 85.00 126.00
C 84.61 125.32 85.49 123.60 85.00 123.00
C 80.63 123.63 74.37 123.63 70.00 123.00
C 70.40 123.80 69.68 125.16 70.00 126.00 Z"/>
</g>
</svg>